<svg version="1.1" viewBox="0.0 0.0 556.0866141732283 532.9160104986877" fill="none" stroke="none" stroke-linecap="square" stroke-miterlimit="10" xmlns:xlink="http://www.w3.org/1999/xlink" xmlns="http://www.w3.org/2000/svg"><clipPath id="p.0"><path d="m0 0l556.0866 0l0 532.916l-556.0866 0l0 -532.916z" clip-rule="nonzero"/></clipPath><g clip-path="url(#p.0)"><path fill="#000000" fill-opacity="0.0" d="m0 0l556.0866 0l0 532.916l-556.0866 0z" fill-rule="evenodd"/><path fill="#cfe2f3" d="m11.010499 435.07626l0 0c0 -3.882019 3.1469955 -7.029022 7.0290117 -7.029022l166.63489 0c1.864212 0 3.652069 0.74057007 4.970276 2.0587463c1.3181915 1.3182068 2.0587463 3.1060486 2.0587463 4.970276l0 28.115204c0 3.882019 -3.1470032 7.0289917 -7.029022 7.0289917l-166.63489 0c-3.8820162 0 -7.0290117 -3.1469727 -7.0290117 -7.0289917z" fill-rule="evenodd"/><path stroke="#000000" stroke-width="1.0" stroke-linejoin="round" stroke-linecap="butt" d="m11.010499 435.07626l0 0c0 -3.882019 3.1469955 -7.029022 7.0290117 -7.029022l166.63489 0c1.864212 0 3.652069 0.74057007 4.970276 2.0587463c1.3181915 1.3182068 2.0587463 3.1060486 2.0587463 4.970276l0 28.115204c0 3.882019 -3.1470032 7.0289917 -7.029022 7.0289917l-166.63489 0c-3.8820162 0 -7.0290117 -3.1469727 -7.0290117 -7.0289917z" fill-rule="evenodd"/><path fill="#000000" d="m46.051273 456.05386l0 -11.78125l-4.40625 0l0 -1.578125l10.578125 0l0 1.578125l-4.40625 0l0 11.78125l-1.765625 0zm12.03009 -1.1875q-0.921875 0.765625 -1.765625 1.09375q-0.828125 0.3125 -1.796875 0.3125q-1.59375 0 -2.453125 -0.78125q-0.859375 -0.78125 -0.859375 -1.984375q0 -0.71875 0.328125 -1.296875q0.328125 -0.59375 0.84375 -0.9375q0.53125 -0.359375 1.1875 -0.546875q0.46875 -0.125 1.453125 -0.25q1.984375 -0.234375 2.921875 -0.5625q0.015625 -0.34375 0.015625 -0.421875q0 -1.0 -0.46875 -1.421875q-0.625 -0.546875 -1.875 -0.546875q-1.15625 0 -1.703125 0.40625q-0.546875 0.40625 -0.8125 1.421875l-1.609375 -0.21875q0.21875 -1.015625 0.71875 -1.640625q0.5 -0.640625 1.453125 -0.984375q0.953125 -0.34375 2.1875 -0.34375q1.25 0 2.015625 0.296875q0.78125 0.28125 1.140625 0.734375q0.375 0.4375 0.515625 1.109375q0.078125 0.421875 0.078125 1.515625l0 2.1875q0 2.28125 0.109375 2.890625q0.109375 0.59375 0.40625 1.15625l-1.703125 0q-0.265625 -0.515625 -0.328125 -1.1875zm-0.140625 -3.671875q-0.890625 0.375 -2.671875 0.625q-1.015625 0.140625 -1.4375 0.328125q-0.421875 0.1875 -0.65625 0.53125q-0.21875 0.34375 -0.21875 0.78125q0 0.65625 0.5 1.09375q0.5 0.4375 1.453125 0.4375q0.9375 0 1.671875 -0.40625q0.75 -0.421875 1.09375 -1.140625q0.265625 -0.5625 0.265625 -1.640625l0 -0.609375zm5.703842 4.859375l-1.515625 0l0 -13.359375l1.640625 0l0 4.765625q1.0468788 -1.296875 2.6562538 -1.296875q0.890625 0 1.6875 0.359375q0.796875 0.359375 1.3125 1.015625q0.515625 0.640625 0.796875 1.5625q0.296875 0.921875 0.296875 1.96875q0 2.484375 -1.234375 3.84375q-1.21875 1.359375 -2.953125 1.359375q-1.703125 0 -2.6875038 -1.4375l0 1.21875zm-0.015625 -4.90625q0 1.734375 0.4843788 2.515625q0.765625 1.265625 2.09375 1.265625q1.078125 0 1.859375 -0.9375q0.78125 -0.9375 0.78125 -2.78125q0 -1.890625 -0.75 -2.796875q-0.75 -0.90625 -1.828125 -0.90625q-1.0625 0 -1.859375 0.9375q-0.7812538 0.9375 -0.7812538 2.703125zm8.844471 4.90625l0 -13.359375l1.640625 0l0 13.359375l-1.640625 0zm10.816696 -3.109375l1.6875 0.203125q-0.40625 1.484375 -1.484375 2.3125q-1.078125 0.8125 -2.765625 0.8125q-2.125 0 -3.375 -1.296875q-1.234375 -1.3125 -1.234375 -3.671875q0 -2.453125 1.25 -3.796875q1.265625 -1.34375 3.265625 -1.34375q1.9375 0 3.15625 1.328125q1.234375 1.3125 1.234375 3.703125q0 0.15625 0 0.4375l-7.21875 0q0.09375 1.59375 0.90625 2.453125q0.8125 0.84375 2.015625 0.84375q0.90625 0 1.546875 -0.46875q0.640625 -0.484375 1.015625 -1.515625zm-5.390625 -2.65625l5.40625 0q-0.109375 -1.21875 -0.625 -1.828125q-0.78125 -0.953125 -2.03125 -0.953125q-1.125 0 -1.90625 0.765625q-0.765625 0.75 -0.84375 2.015625zm8.750717 1.46875l1.65625 -0.140625q0.125 1.0 0.546875 1.640625q0.4375 0.640625 1.34375 1.046875q0.921875 0.390625 2.0625 0.390625q1.0 0 1.78125 -0.296875q0.78125 -0.296875 1.15625 -0.8125q0.375 -0.53125 0.375 -1.15625q0 -0.625 -0.375 -1.09375q-0.359375 -0.46875 -1.1875 -0.796875q-0.546875 -0.203125 -2.390625 -0.640625q-1.828125 -0.453125 -2.5625 -0.84375q-0.96875 -0.5 -1.4375 -1.234375q-0.46875 -0.75 -0.46875 -1.671875q0 -1.0 0.578125 -1.875q0.578125 -0.890625 1.671875 -1.34375q1.109375 -0.453125 2.453125 -0.453125q1.484375 0 2.609375 0.484375q1.140625 0.46875 1.75 1.40625q0.609375 0.921875 0.65625 2.09375l-1.6875 0.125q-0.140625 -1.265625 -0.9375 -1.90625q-0.78125 -0.65625 -2.3125 -0.65625q-1.609375 0 -2.34375 0.59375q-0.734375 0.59375 -0.734375 1.421875q0 0.71875 0.53125 1.171875q0.5 0.46875 2.65625 0.96875q2.15625 0.484375 2.953125 0.84375q1.171875 0.53125 1.71875 1.359375q0.5625 0.828125 0.5625 1.90625q0 1.0625 -0.609375 2.015625q-0.609375 0.9375 -1.75 1.46875q-1.140625 0.515625 -2.578125 0.515625q-1.8125 0 -3.046875 -0.53125q-1.21875 -0.53125 -1.921875 -1.59375q-0.6875 -1.0625 -0.71875 -2.40625zm19.146698 0.75l1.609375 0.21875q-0.265625 1.65625 -1.359375 2.609375q-1.078125 0.9375 -2.671875 0.9375q-1.984375 0 -3.1875 -1.296875q-1.203125 -1.296875 -1.203125 -3.71875q0 -1.578125 0.515625 -2.75q0.515625 -1.171875 1.578125 -1.75q1.0625 -0.59375 2.3125 -0.59375q1.578125 0 2.578125 0.796875q1.0 0.796875 1.28125 2.265625l-1.59375 0.234375q-0.234375 -0.96875 -0.8125 -1.453125q-0.578125 -0.5 -1.390625 -0.5q-1.234375 0 -2.015625 0.890625q-0.78125 0.890625 -0.78125 2.8125q0 1.953125 0.75 2.84375q0.75 0.875 1.953125 0.875q0.96875 0 1.609375 -0.59375q0.65625 -0.59375 0.828125 -1.828125zm9.328125 2.359375q-0.921875 0.765625 -1.765625 1.09375q-0.828125 0.3125 -1.796875 0.3125q-1.59375 0 -2.453125 -0.78125q-0.859375 -0.78125 -0.859375 -1.984375q0 -0.71875 0.328125 -1.296875q0.328125 -0.59375 0.84375 -0.9375q0.53125 -0.359375 1.1875 -0.546875q0.46875 -0.125 1.453125 -0.25q1.984375 -0.234375 2.921875 -0.5625q0.015625 -0.34375 0.015625 -0.421875q0 -1.0 -0.46875 -1.421875q-0.625 -0.546875 -1.875 -0.546875q-1.15625 0 -1.703125 0.40625q-0.546875 0.40625 -0.8125 1.421875l-1.609375 -0.21875q0.21875 -1.015625 0.71875 -1.640625q0.5 -0.640625 1.453125 -0.984375q0.953125 -0.34375 2.1875 -0.34375q1.25 0 2.015625 0.296875q0.78125 0.28125 1.140625 0.734375q0.375 0.4375 0.515625 1.109375q0.078125 0.421875 0.078125 1.515625l0 2.1875q0 2.28125 0.109375 2.890625q0.109375 0.59375 0.40625 1.15625l-1.703125 0q-0.265625 -0.515625 -0.328125 -1.1875zm-0.140625 -3.671875q-0.890625 0.375 -2.671875 0.625q-1.015625 0.140625 -1.4375 0.328125q-0.421875 0.1875 -0.65625 0.53125q-0.21875 0.34375 -0.21875 0.78125q0 0.65625 0.5 1.09375q0.5 0.4375 1.453125 0.4375q0.9375 0 1.671875 -0.40625q0.75 -0.421875 1.09375 -1.140625q0.265625 -0.5625 0.265625 -1.640625l0 -0.609375zm4.203842 4.859375l0 -9.671875l1.46875 0l0 1.375q1.0625 -1.59375 3.078125 -1.59375q0.875 0 1.609375 0.3125q0.734375 0.3125 1.09375 0.828125q0.375 0.5 0.515625 1.203125q0.09375 0.453125 0.09375 1.59375l0 5.953125l-1.640625 0l0 -5.890625q0 -1.0 -0.203125 -1.484375q-0.1875 -0.5 -0.671875 -0.796875q-0.484375 -0.296875 -1.140625 -0.296875q-1.046875 0 -1.8125 0.671875q-0.75 0.65625 -0.75 2.515625l0 5.28125l-1.640625 0zm13.50071 3.921875q-1.359375 -1.703125 -2.296875 -4.0q-0.9375 -2.296875 -0.9375 -4.765625q0 -2.15625 0.703125 -4.140625q0.828125 -2.3125 2.53125 -4.59375l1.171875 0q-1.09375 1.890625 -1.453125 2.703125q-0.546875 1.25 -0.875 2.625q-0.390625 1.703125 -0.390625 3.421875q0 4.375 2.71875 8.75l-1.171875 0zm3.087677 -0.21875l0 -13.375l1.484375 0l0 1.25q0.53125 -0.734375 1.1875 -1.09375q0.671875 -0.375 1.625 -0.375q1.2343903 0 2.1718903 0.640625q0.953125 0.625 1.4375 1.796875q0.484375 1.15625 0.484375 2.546875q0 1.484375 -0.53125 2.671875q-0.53125 1.1875 -1.546875 1.828125q-1.015625 0.625 -2.1406403 0.625q-0.8125 0 -1.46875 -0.34375q-0.65625 -0.34375 -1.0625 -0.875l0 4.703125l-1.640625 0zm1.484375 -8.484375q0 1.859375 0.75 2.765625q0.765625 0.890625 1.828125 0.890625q1.09375 0 1.8750153 -0.921875q0.78125 -0.9375 0.78125 -2.875q0 -1.84375 -0.765625 -2.765625q-0.75001526 -0.921875 -1.8125153 -0.921875q-1.046875 0 -1.859375 0.984375q-0.796875 0.96875 -0.796875 2.84375zm17.047592 3.203125l0 1.578125l-8.828125 0q-0.015625 -0.59375 0.1875 -1.140625q0.34375 -0.90625 1.078125 -1.78125q0.75 -0.875 2.15625 -2.015625q2.171875 -1.78125 2.9375 -2.828125q0.765625 -1.046875 0.765625 -1.96875q0 -0.984375 -0.703125 -1.640625q-0.6875 -0.671875 -1.8125 -0.671875q-1.1875 0 -1.90625 0.71875q-0.703125 0.703125 -0.703125 1.953125l-1.6875 -0.171875q0.171875 -1.890625 1.296875 -2.875q1.140625 -0.984375 3.03125 -0.984375q1.921875 0 3.046875 1.0625q1.125 1.0625 1.125 2.640625q0 0.796875 -0.328125 1.578125q-0.328125 0.78125 -1.09375 1.640625q-0.75 0.84375 -2.53125 2.34375q-1.46875 1.234375 -1.890625 1.6875q-0.421875 0.4375 -0.6875 0.875l6.546875 0zm3.2976074 5.5l-1.1875 0q2.734375 -4.375 2.734375 -8.75q0 -1.71875 -0.390625 -3.390625q-0.3125 -1.375 -0.875 -2.625q-0.359375 -0.828125 -1.46875 -2.734375l1.1875 0q1.703125 2.28125 2.53125 4.59375q0.6875 1.984375 0.6875 4.140625q0 2.46875 -0.9375 4.765625q-0.9375 2.296875 -2.28125 4.0z" fill-rule="nonzero"/><path fill="#cfe2f3" d="m11.010499 339.6432l0 0c0 -3.882019 3.1469955 -7.029022 7.0290117 -7.029022l166.63489 0c1.864212 0 3.652069 0.74057007 4.970276 2.0587463c1.3181915 1.3182068 2.0587463 3.1060486 2.0587463 4.970276l0 28.115204c0 3.882019 -3.1470032 7.029022 -7.029022 7.029022l-166.63489 0c-3.8820162 0 -7.0290117 -3.1470032 -7.0290117 -7.029022z" fill-rule="evenodd"/><path stroke="#000000" stroke-width="1.0" stroke-linejoin="round" stroke-linecap="butt" d="m11.010499 339.6432l0 0c0 -3.882019 3.1469955 -7.029022 7.0290117 -7.029022l166.63489 0c1.864212 0 3.652069 0.74057007 4.970276 2.0587463c1.3181915 1.3182068 2.0587463 3.1060486 2.0587463 4.970276l0 28.115204c0 3.882019 -3.1470032 7.029022 -7.029022 7.029022l-166.63489 0c-3.8820162 0 -7.0290117 -3.1470032 -7.0290117 -7.029022z" fill-rule="evenodd"/><path fill="#000000" d="m63.826946 356.3239l1.6562538 -0.140625q0.125 1.0 0.546875 1.640625q0.4375 0.640625 1.34375 1.046875q0.921875 0.390625 2.0625 0.390625q1.0 0 1.78125 -0.296875q0.78125 -0.296875 1.15625 -0.8125q0.375 -0.53125 0.375 -1.15625q0 -0.625 -0.375 -1.09375q-0.359375 -0.46875 -1.1875 -0.796875q-0.546875 -0.203125 -2.390625 -0.640625q-1.828125 -0.453125 -2.5625 -0.84375q-0.96875 -0.5 -1.4375 -1.234375q-0.46875 -0.75 -0.46875 -1.671875q0 -1.0 0.578125 -1.875q0.578125 -0.890625 1.671875 -1.34375q1.109375 -0.453125 2.453125 -0.453125q1.484375 0 2.609375 0.484375q1.140625 0.46875 1.75 1.40625q0.609375 0.921875 0.65625 2.09375l-1.6875 0.125q-0.140625 -1.265625 -0.9375 -1.90625q-0.78125 -0.65625 -2.3125 -0.65625q-1.609375 0 -2.34375 0.59375q-0.734375 0.59375 -0.734375 1.421875q0 0.71875 0.53125 1.171875q0.5 0.46875 2.65625 0.96875q2.15625 0.484375 2.953125 0.84375q1.171875 0.53125 1.71875 1.359375q0.5625 0.828125 0.5625 1.90625q0 1.0625 -0.609375 2.015625q-0.609375 0.9375 -1.75 1.46875q-1.140625 0.515625 -2.578125 0.515625q-1.8125 0 -3.046875 -0.53125q-1.21875 -0.53125 -1.921875 -1.59375q-0.6875038 -1.0625 -0.7187538 -2.40625zm19.459202 1.1875l1.6875 0.203125q-0.40625 1.484375 -1.484375 2.3125q-1.078125 0.8125 -2.765625 0.8125q-2.125 0 -3.375 -1.296875q-1.234375 -1.3125 -1.234375 -3.671875q0 -2.453125 1.25 -3.796875q1.265625 -1.34375 3.265625 -1.34375q1.9375 0 3.15625 1.328125q1.234375 1.3125 1.234375 3.703125q0 0.15625 0 0.4375l-7.21875 0q0.09375 1.59375 0.90625 2.453125q0.8125 0.84375 2.015625 0.84375q0.90625 0 1.546875 -0.46875q0.640625 -0.484375 1.015625 -1.515625zm-5.390625 -2.65625l5.40625 0q-0.109375 -1.21875 -0.625 -1.828125q-0.78125 -0.953125 -2.03125 -0.953125q-1.125 0 -1.90625 0.765625q-0.765625 0.75 -0.84375 2.015625zm9.094467 5.765625l0 -13.359375l1.640625 0l0 13.359375l-1.640625 0zm10.816696 -3.109375l1.6875 0.203125q-0.40625 1.484375 -1.484375 2.3125q-1.078125 0.8125 -2.765625 0.8125q-2.125 0 -3.375 -1.296875q-1.234375 -1.3125 -1.234375 -3.671875q0 -2.453125 1.25 -3.796875q1.265625 -1.34375 3.265625 -1.34375q1.9375 0 3.15625 1.328125q1.234375 1.3125 1.234375 3.703125q0 0.15625 0 0.4375l-7.21875 0q0.09375 1.59375 0.90625 2.453125q0.8125 0.84375 2.015625 0.84375q0.90625 0 1.546875 -0.46875q0.640625 -0.484375 1.015625 -1.515625zm-5.390625 -2.65625l5.40625 0q-0.109375 -1.21875 -0.625 -1.828125q-0.78125 -0.953125 -2.03125 -0.953125q-1.125 0 -1.90625 0.765625q-0.765625 0.75 -0.84375 2.015625zm15.453842 2.21875l1.609375 0.21875q-0.265625 1.65625 -1.359375 2.609375q-1.078125 0.9375 -2.671875 0.9375q-1.984375 0 -3.1875 -1.296875q-1.203125 -1.296875 -1.203125 -3.71875q0 -1.578125 0.515625 -2.75q0.515625 -1.171875 1.578125 -1.75q1.0625 -0.59375 2.3125 -0.59375q1.578125 0 2.578125 0.796875q1.0 0.796875 1.28125 2.265625l-1.59375 0.234375q-0.234375 -0.96875 -0.8125 -1.453125q-0.578125 -0.5 -1.390625 -0.5q-1.234375 0 -2.015625 0.890625q-0.78125 0.890625 -0.78125 2.8125q0 1.953125 0.75 2.84375q0.75 0.875 1.953125 0.875q0.96875 0 1.609375 -0.59375q0.65625 -0.59375 0.828125 -1.828125zm6.59375 2.078125l0.234375 1.453125q-0.6875 0.140625 -1.234375 0.140625q-0.890625 0 -1.390625 -0.28125q-0.484375 -0.28125 -0.6875 -0.734375q-0.203125 -0.46875 -0.203125 -1.9375l0 -5.578125l-1.203125 0l0 -1.265625l1.203125 0l0 -2.390625l1.625 -0.984375l0 3.375l1.65625 0l0 1.265625l-1.65625 0l0 5.671875q0 0.6875 0.078125 0.890625q0.09375 0.203125 0.28125 0.328125q0.203125 0.109375 0.578125 0.109375q0.265625 0 0.71875 -0.0625zm1.6051788 -10.0l0 -1.890625l1.640625 0l0 1.890625l-1.640625 0zm0 11.46875l0 -9.671875l1.640625 0l0 9.671875l-1.640625 0zm3.5354462 -4.84375q0 -2.6875 1.484375 -3.96875q1.25 -1.078125 3.046875 -1.078125q2.0 0 3.265625 1.3125q1.265625 1.296875 1.265625 3.609375q0 1.859375 -0.5625 2.9375q-0.5625 1.0625 -1.640625 1.65625q-1.0625 0.59375 -2.328125 0.59375q-2.03125 0 -3.28125 -1.296875q-1.25 -1.3125 -1.25 -3.765625zm1.6875 0q0 1.859375 0.796875 2.796875q0.8125 0.921875 2.046875 0.921875q1.21875 0 2.03125 -0.921875q0.8125 -0.9375 0.8125 -2.84375q0 -1.796875 -0.8125 -2.71875q-0.8125 -0.921875 -2.03125 -0.921875q-1.234375 0 -2.046875 0.921875q-0.796875 0.90625 -0.796875 2.765625zm9.297592 4.84375l0 -9.671875l1.46875 0l0 1.375q1.0625 -1.59375 3.078125 -1.59375q0.875 0 1.609375 0.3125q0.734375 0.3125 1.09375 0.828125q0.375 0.5 0.515625 1.203125q0.09375 0.453125 0.09375 1.59375l0 5.953125l-1.640625 0l0 -5.890625q0 -1.0 -0.203125 -1.484375q-0.1875 -0.5 -0.671875 -0.796875q-0.484375 -0.296875 -1.140625 -0.296875q-1.046875 0 -1.8125 0.671875q-0.75 0.65625 -0.75 2.515625l0 5.28125l-1.640625 0z" fill-rule="nonzero"/><path fill="#cfe2f3" d="m11.010499 244.20749l0 0c0 -3.882019 3.1469955 -7.029007 7.0290117 -7.029007l166.63489 0c1.864212 0 3.652069 0.7405548 4.970276 2.0587463c1.3181915 1.3181915 2.0587463 3.1060486 2.0587463 4.9702606l0 28.115204c0 3.882019 -3.1470032 7.029022 -7.029022 7.029022l-166.63489 0c-3.8820162 0 -7.0290117 -3.1470032 -7.0290117 -7.029022z" fill-rule="evenodd"/><path stroke="#000000" stroke-width="1.0" stroke-linejoin="round" stroke-linecap="butt" d="m11.010499 244.20749l0 0c0 -3.882019 3.1469955 -7.029007 7.0290117 -7.029007l166.63489 0c1.864212 0 3.652069 0.7405548 4.970276 2.0587463c1.3181915 1.3181915 2.0587463 3.1060486 2.0587463 4.9702606l0 28.115204c0 3.882019 -3.1470032 7.029022 -7.029022 7.029022l-166.63489 0c-3.8820162 0 -7.0290117 -3.1470032 -7.0290117 -7.029022z" fill-rule="evenodd"/><path fill="#000000" d="m64.4832 265.1851l0 -13.359375l1.765625 0l0 5.484375l6.9375 0l0 -5.484375l1.765625 0l0 13.359375l-1.765625 0l0 -6.296875l-6.9375 0l0 6.296875l-1.765625 0zm19.519821 -1.1875q-0.921875 0.765625 -1.765625 1.09375q-0.828125 0.3125 -1.796875 0.3125q-1.59375 0 -2.453125 -0.78125q-0.859375 -0.78125 -0.859375 -1.984375q0 -0.71875 0.328125 -1.296875q0.328125 -0.59375 0.84375 -0.9375q0.53125 -0.359375 1.1875 -0.546875q0.46875 -0.125 1.453125 -0.25q1.984375 -0.234375 2.921875 -0.5625q0.015625 -0.34375 0.015625 -0.421875q0 -1.0 -0.46875 -1.421875q-0.625 -0.546875 -1.875 -0.546875q-1.15625 0 -1.703125 0.40625q-0.546875 0.40625 -0.8125 1.421875l-1.609375 -0.21875q0.21875 -1.015625 0.71875 -1.640625q0.5 -0.640625 1.453125 -0.984375q0.953125 -0.34375 2.1875 -0.34375q1.25 0 2.015625 0.296875q0.78125 0.28125 1.140625 0.734375q0.375 0.4375 0.515625 1.109375q0.078125 0.421875 0.078125 1.515625l0 2.1875q0 2.28125 0.109375 2.890625q0.109375 0.59375 0.40625 1.15625l-1.703125 0q-0.265625 -0.515625 -0.328125 -1.1875zm-0.140625 -3.671875q-0.890625 0.375 -2.671875 0.625q-1.015625 0.140625 -1.4375 0.328125q-0.421875 0.1875 -0.65625 0.53125q-0.21875 0.34375 -0.21875 0.78125q0 0.65625 0.5 1.09375q0.5 0.4375 1.453125 0.4375q0.9375 0 1.671875 -0.40625q0.75 -0.421875 1.09375 -1.140625q0.265625 -0.5625 0.265625 -1.640625l0 -0.609375zm3.5475922 1.96875l1.625 -0.25q0.125 0.96875 0.75 1.5q0.625 0.515625 1.75 0.515625q1.125 0 1.671875 -0.453125q0.546875 -0.46875 0.546875 -1.09375q0 -0.546875 -0.484375 -0.875q-0.328125 -0.21875 -1.671875 -0.546875q-1.8125 -0.46875 -2.515625 -0.796875q-0.6875 -0.328125 -1.046875 -0.90625q-0.359375 -0.59375 -0.359375 -1.3125q0 -0.640625 0.296875 -1.1875q0.296875 -0.5625 0.8125 -0.921875q0.375 -0.28125 1.03125 -0.46875q0.671875 -0.203125 1.421875 -0.203125q1.140625 0 2.0 0.328125q0.859375 0.328125 1.265625 0.890625q0.421875 0.5625 0.578125 1.5l-1.609375 0.21875q-0.109375 -0.75 -0.640625 -1.171875q-0.515625 -0.421875 -1.46875 -0.421875q-1.140625 0 -1.625 0.375q-0.46875 0.375 -0.46875 0.875q0 0.3125 0.1875 0.578125q0.203125 0.265625 0.640625 0.4375q0.234375 0.09375 1.4375 0.421875q1.75 0.453125 2.4375 0.75q0.6875 0.296875 1.078125 0.859375q0.390625 0.5625 0.390625 1.40625q0 0.828125 -0.484375 1.546875q-0.46875 0.71875 -1.375 1.125q-0.90625 0.390625 -2.046875 0.390625q-1.875 0 -2.875 -0.78125q-0.984375 -0.78125 -1.25 -2.328125zm9.984375 2.890625l0 -13.359375l1.640625 0l0 4.796875q1.140625 -1.328125 2.890625 -1.328125q1.078125 0 1.859375 0.421875q0.796875 0.421875 1.140625 1.171875q0.34375 0.75 0.34375 2.171875l0 6.125l-1.640625 0l0 -6.125q0 -1.234375 -0.53125 -1.796875q-0.53125 -0.5625 -1.515625 -0.5625q-0.71875 0 -1.359375 0.390625q-0.640625 0.375 -0.921875 1.015625q-0.265625 0.640625 -0.265625 1.78125l0 5.296875l-1.640625 0zm9.110092 0l5.125 -13.359375l1.90625 0l5.46875 13.359375l-2.015625 0l-1.546875 -4.046875l-5.59375 0l-1.46875 4.046875l-1.875 0zm3.859375 -5.484375l4.53125 0l-1.40625 -3.703125q-0.625 -1.6875 -0.9375 -2.765625q-0.265625 1.28125 -0.71875 2.546875l-1.46875 3.921875zm9.537323 6.28125l1.59375 0.234375q0.109375 0.75 0.5625 1.078125q0.609375 0.453125 1.671875 0.453125q1.140625 0 1.75 -0.453125q0.625 -0.453125 0.84375 -1.265625q0.125 -0.5 0.109375 -2.109375q-1.0625 1.265625 -2.671875 1.265625q-2.0 0 -3.09375 -1.4375q-1.09375 -1.4375 -1.09375 -3.453125q0 -1.390625 0.5 -2.5625q0.515625 -1.171875 1.453125 -1.796875q0.953125 -0.640625 2.25 -0.640625q1.703125 0 2.8125 1.375l0 -1.15625l1.515625 0l0 8.359375q0 2.265625 -0.46875 3.203125q-0.453125 0.9375 -1.453125 1.484375q-0.984375 0.546875 -2.453125 0.546875q-1.71875 0 -2.796875 -0.78125q-1.0625 -0.765625 -1.03125 -2.34375zm1.359375 -5.8125q0 1.90625 0.75 2.78125q0.765625 0.875 1.90625 0.875q1.125 0 1.890625 -0.859375q0.765625 -0.875 0.765625 -2.734375q0 -1.78125 -0.796875 -2.671875q-0.78125 -0.90625 -1.890625 -0.90625q-1.09375 0 -1.859375 0.890625q-0.765625 0.875 -0.765625 2.625zm9.016342 5.8125l1.59375 0.234375q0.109375 0.75 0.5625 1.078125q0.609375 0.453125 1.671875 0.453125q1.140625 0 1.75 -0.453125q0.625 -0.453125 0.84375 -1.265625q0.125 -0.5 0.109375 -2.109375q-1.0625 1.265625 -2.671875 1.265625q-2.0 0 -3.09375 -1.4375q-1.09375 -1.4375 -1.09375 -3.453125q0 -1.390625 0.5 -2.5625q0.515625 -1.171875 1.453125 -1.796875q0.953125 -0.640625 2.25 -0.640625q1.703125 0 2.8125 1.375l0 -1.15625l1.515625 0l0 8.359375q0 2.265625 -0.46875 3.203125q-0.453125 0.9375 -1.453125 1.484375q-0.984375 0.546875 -2.453125 0.546875q-1.71875 0 -2.796875 -0.78125q-1.0625 -0.765625 -1.03125 -2.34375zm1.359375 -5.8125q0 1.90625 0.75 2.78125q0.765625 0.875 1.90625 0.875q1.125 0 1.890625 -0.859375q0.765625 -0.875 0.765625 -2.734375q0 -1.78125 -0.796875 -2.671875q-0.78125 -0.90625 -1.890625 -0.90625q-1.09375 0 -1.859375 0.890625q-0.765625 0.875 -0.765625 2.625z" fill-rule="nonzero"/><path fill="#cfe2f3" d="m11.010499 157.80066l0 0c0 -3.8820038 3.1469955 -7.029007 7.0290117 -7.029007l166.63489 0c1.864212 0 3.652069 0.7405548 4.970276 2.0587463c1.3181915 1.3182068 2.0587463 3.1060638 2.0587463 4.9702606l0 28.115204c0 3.882019 -3.1470032 7.029022 -7.029022 7.029022l-166.63489 0c-3.8820162 0 -7.0290117 -3.1470032 -7.0290117 -7.029022z" fill-rule="evenodd"/><path stroke="#000000" stroke-width="1.0" stroke-linejoin="round" stroke-linecap="butt" d="m11.010499 157.80066l0 0c0 -3.8820038 3.1469955 -7.029007 7.0290117 -7.029007l166.63489 0c1.864212 0 3.652069 0.7405548 4.970276 2.0587463c1.3181915 1.3182068 2.0587463 3.1060638 2.0587463 4.9702606l0 28.115204c0 3.882019 -3.1470032 7.029022 -7.029022 7.029022l-166.63489 0c-3.8820162 0 -7.0290117 -3.1470032 -7.0290117 -7.029022z" fill-rule="evenodd"/><path fill="#000000" d="m31.256939 178.77826l0 -13.359375l9.65625 0l0 1.578125l-7.875 0l0 4.09375l7.375 0l0 1.5625l-7.375 0l0 4.546875l8.1875 0l0 1.578125l-9.96875 0zm11.115448 0l3.53125 -5.03125l-3.265625 -4.640625l2.046875 0l1.484375 2.265625q0.421875 0.640625 0.671875 1.078125q0.40625 -0.59375 0.734375 -1.0625l1.640625 -2.28125l1.953125 0l-3.34375 4.546875l3.59375 5.125l-2.015625 0l-1.984375 -3.0l-0.515625 -0.8125l-2.546875 3.8125l-1.984375 0zm16.734375 -3.546875l1.609375 0.21875q-0.265625 1.65625 -1.359375 2.609375q-1.078125 0.9375 -2.671875 0.9375q-1.984375 0 -3.1875 -1.296875q-1.203125 -1.296875 -1.203125 -3.71875q0 -1.578125 0.515625 -2.75q0.515625 -1.171875 1.578125 -1.75q1.0625 -0.59375 2.3125 -0.59375q1.578125 0 2.578125 0.796875q1.0 0.796875 1.28125 2.265625l-1.59375 0.234375q-0.234375 -0.96875 -0.8125 -1.453125q-0.578125 -0.5 -1.390625 -0.5q-1.234375 0 -2.015625 0.890625q-0.78125 0.890625 -0.78125 2.8125q0 1.953125 0.75 2.84375q0.75 0.875 1.953125 0.875q0.96875 0 1.609375 -0.59375q0.65625 -0.59375 0.828125 -1.828125zm3.015625 3.546875l0 -13.359375l1.640625 0l0 4.796875q1.1406288 -1.328125 2.8906288 -1.328125q1.078125 0 1.859375 0.421875q0.796875 0.421875 1.140625 1.171875q0.34375 0.75 0.34375 2.171875l0 6.125l-1.640625 0l0 -6.125q0 -1.234375 -0.53125 -1.796875q-0.53125 -0.5625 -1.515625 -0.5625q-0.71875 0 -1.359375 0.390625q-0.640625 0.375 -0.921875 1.015625q-0.2656288 0.640625 -0.2656288 1.78125l0 5.296875l-1.640625 0zm16.688221 -1.1875q-0.921875 0.765625 -1.765625 1.09375q-0.828125 0.3125 -1.796875 0.3125q-1.59375 0 -2.453125 -0.78125q-0.859375 -0.78125 -0.859375 -1.984375q0 -0.71875 0.328125 -1.296875q0.328125 -0.59375 0.84375 -0.9375q0.53125 -0.359375 1.1875 -0.546875q0.46875 -0.125 1.453125 -0.25q1.984375 -0.234375 2.921875 -0.5625q0.015625 -0.34375 0.015625 -0.421875q0 -1.0 -0.46875 -1.421875q-0.625 -0.546875 -1.875 -0.546875q-1.15625 0 -1.703125 0.40625q-0.546875 0.40625 -0.8125 1.421875l-1.609375 -0.21875q0.21875 -1.015625 0.71875 -1.640625q0.5 -0.640625 1.453125 -0.984375q0.953125 -0.34375 2.1875 -0.34375q1.25 0 2.015625 0.296875q0.78125 0.28125 1.140625 0.734375q0.375 0.4375 0.515625 1.109375q0.078125 0.421875 0.078125 1.515625l0 2.1875q0 2.28125 0.109375 2.890625q0.109375 0.59375 0.40625 1.15625l-1.703125 0q-0.265625 -0.515625 -0.328125 -1.1875zm-0.140625 -3.671875q-0.890625 0.375 -2.671875 0.625q-1.015625 0.140625 -1.4375 0.328125q-0.421875 0.1875 -0.65625 0.53125q-0.21875 0.34375 -0.21875 0.78125q0 0.65625 0.5 1.09375q0.5 0.4375 1.453125 0.4375q0.9375 0 1.671875 -0.40625q0.75 -0.421875 1.09375 -1.140625q0.265625 -0.5625 0.265625 -1.640625l0 -0.609375zm4.203842 4.859375l0 -9.671875l1.46875 0l0 1.375q1.0625 -1.59375 3.078125 -1.59375q0.875 0 1.609375 0.3125q0.734375 0.3125 1.09375 0.828125q0.375 0.5 0.515625 1.203125q0.09375 0.453125 0.09375 1.59375l0 5.953125l-1.640625 0l0 -5.890625q0 -1.0 -0.203125 -1.484375q-0.1875 -0.5 -0.671875 -0.796875q-0.484375 -0.296875 -1.140625 -0.296875q-1.046875 0 -1.8125 0.671875q-0.75 0.65625 -0.75 2.515625l0 5.28125l-1.640625 0zm10.063217 0.796875l1.59375 0.234375q0.109375 0.75 0.5625 1.078125q0.609375 0.453125 1.671875 0.453125q1.140625 0 1.75 -0.453125q0.625 -0.453125 0.84375 -1.265625q0.125 -0.5 0.109375 -2.109375q-1.0625 1.265625 -2.671875 1.265625q-2.0 0 -3.09375 -1.4375q-1.09375 -1.4375 -1.09375 -3.453125q0 -1.390625 0.5 -2.5625q0.515625 -1.171875 1.453125 -1.796875q0.953125 -0.640625 2.25 -0.640625q1.703125 0 2.8125 1.375l0 -1.15625l1.515625 0l0 8.359375q0 2.265625 -0.46875 3.203125q-0.453125 0.9375 -1.453125 1.484375q-0.984375 0.546875 -2.453125 0.546875q-1.71875 0 -2.796875 -0.78125q-1.0625 -0.765625 -1.03125 -2.34375zm1.359375 -5.8125q0 1.90625 0.75 2.78125q0.765625 0.875 1.90625 0.875q1.125 0 1.890625 -0.859375q0.765625 -0.875 0.765625 -2.734375q0 -1.78125 -0.796875 -2.671875q-0.78125 -0.90625 -1.890625 -0.90625q-1.09375 0 -1.859375 0.890625q-0.765625 0.875 -0.765625 2.625zm15.953842 1.90625l1.6875 0.203125q-0.40625 1.484375 -1.484375 2.3125q-1.078125 0.8125 -2.765625 0.8125q-2.125 0 -3.375 -1.296875q-1.234375 -1.3125 -1.234375 -3.671875q0 -2.453125 1.25 -3.796875q1.265625 -1.34375 3.265625 -1.34375q1.9375 0 3.15625 1.328125q1.234375 1.3125 1.234375 3.703125q0 0.15625 0 0.4375l-7.21875 0q0.09375 1.59375 0.90625 2.453125q0.8125 0.84375 2.015625 0.84375q0.90625 0 1.546875 -0.46875q0.640625 -0.484375 1.015625 -1.515625zm-5.390625 -2.65625l5.40625 0q-0.109375 -1.21875 -0.625 -1.828125q-0.78125 -0.953125 -2.03125 -0.953125q-1.125 0 -1.90625 0.765625q-0.765625 0.75 -0.84375 2.015625zm8.750717 1.46875l1.65625 -0.140625q0.125 1.0 0.546875 1.640625q0.4375 0.640625 1.34375 1.046875q0.921875 0.390625 2.0625 0.390625q1.0 0 1.78125 -0.296875q0.78125 -0.296875 1.15625 -0.8125q0.375 -0.53125 0.375 -1.15625q0 -0.625 -0.375 -1.09375q-0.359375 -0.46875 -1.1875 -0.796875q-0.546875 -0.203125 -2.390625 -0.640625q-1.828125 -0.453125 -2.5625 -0.84375q-0.96875 -0.5 -1.4375 -1.234375q-0.46875 -0.75 -0.46875 -1.671875q0 -1.0 0.578125 -1.875q0.578125 -0.890625 1.671875 -1.34375q1.109375 -0.453125 2.453125 -0.453125q1.484375 0 2.609375 0.484375q1.140625 0.46875 1.75 1.40625q0.609375 0.921875 0.65625 2.09375l-1.6875 0.125q-0.140625 -1.265625 -0.9375 -1.90625q-0.78125 -0.65625 -2.3125 -0.65625q-1.609375 0 -2.34375 0.59375q-0.734375 0.59375 -0.734375 1.421875q0 0.71875 0.53125 1.171875q0.5 0.46875 2.65625 0.96875q2.15625 0.484375 2.953125 0.84375q1.171875 0.53125 1.71875 1.359375q0.5625 0.828125 0.5625 1.90625q0 1.0625 -0.609375 2.015625q-0.609375 0.9375 -1.75 1.46875q-1.140625 0.515625 -2.578125 0.515625q-1.8125 0 -3.046875 -0.53125q-1.21875 -0.53125 -1.921875 -1.59375q-0.6875 -1.0625 -0.71875 -2.40625zm19.459198 1.1875l1.6875 0.203125q-0.40625 1.484375 -1.484375 2.3125q-1.078125 0.8125 -2.765625 0.8125q-2.125 0 -3.375 -1.296875q-1.234375 -1.3125 -1.234375 -3.671875q0 -2.453125 1.25 -3.796875q1.265625 -1.34375 3.265625 -1.34375q1.9375 0 3.15625 1.328125q1.234375 1.3125 1.234375 3.703125q0 0.15625 0 0.4375l-7.21875 0q0.09375 1.59375 0.90625 2.453125q0.8125 0.84375 2.015625 0.84375q0.90625 0 1.546875 -0.46875q0.640625 -0.484375 1.015625 -1.515625zm-5.390625 -2.65625l5.40625 0q-0.109375 -1.21875 -0.625 -1.828125q-0.78125 -0.953125 -2.03125 -0.953125q-1.125 0 -1.90625 0.765625q-0.765625 0.75 -0.84375 2.015625zm9.141342 5.765625l0 -9.671875l1.46875 0l0 1.375q1.0625 -1.59375 3.078125 -1.59375q0.875 0 1.609375 0.3125q0.734375 0.3125 1.09375 0.828125q0.375 0.5 0.515625 1.203125q0.09375 0.453125 0.09375 1.59375l0 5.953125l-1.640625 0l0 -5.890625q0 -1.0 -0.203125 -1.484375q-0.1875 -0.5 -0.671875 -0.796875q-0.484375 -0.296875 -1.140625 -0.296875q-1.046875 0 -1.8125 0.671875q-0.75 0.65625 -0.75 2.515625l0 5.28125l-1.640625 0zm16.641342 0l0 -1.21875q-0.90625 1.4375 -2.703125 1.4375q-1.15625 0 -2.125 -0.640625q-0.96875 -0.640625 -1.5 -1.78125q-0.53125 -1.140625 -0.53125 -2.625q0 -1.453125 0.484375 -2.625q0.484375 -1.1875 1.4375 -1.8125q0.96875 -0.625 2.171875 -0.625q0.875 0 1.546875 0.375q0.6875 0.359375 1.109375 0.953125l0 -4.796875l1.640625 0l0 13.359375l-1.53125 0zm-5.171875 -4.828125q0 1.859375 0.78125 2.78125q0.78125 0.921875 1.84375 0.921875q1.078125 0 1.828125 -0.875q0.75 -0.890625 0.75 -2.6875q0 -1.984375 -0.765625 -2.90625q-0.765625 -0.9375 -1.890625 -0.9375q-1.078125 0 -1.8125 0.890625q-0.734375 0.890625 -0.734375 2.8125zm15.906967 1.71875l1.6875 0.203125q-0.40625 1.484375 -1.484375 2.3125q-1.078125 0.8125 -2.765625 0.8125q-2.125 0 -3.375 -1.296875q-1.234375 -1.3125 -1.234375 -3.671875q0 -2.453125 1.25 -3.796875q1.265625 -1.34375 3.265625 -1.34375q1.9375 0 3.15625 1.328125q1.234375 1.3125 1.234375 3.703125q0 0.15625 0 0.4375l-7.21875 0q0.09375 1.59375 0.90625 2.453125q0.8125 0.84375 2.015625 0.84375q0.90625 0 1.546875 -0.46875q0.640625 -0.484375 1.015625 -1.515625zm-5.390625 -2.65625l5.40625 0q-0.109375 -1.21875 -0.625 -1.828125q-0.78125 -0.953125 -2.03125 -0.953125q-1.125 0 -1.90625 0.765625q-0.765625 0.75 -0.84375 2.015625zm9.125717 5.765625l0 -9.671875l1.46875 0l0 1.46875q0.5625 -1.03125 1.03125 -1.359375q0.484375 -0.328125 1.0625 -0.328125q0.828125 0 1.6875 0.53125l-0.5625 1.515625q-0.609375 -0.359375 -1.203125 -0.359375q-0.546875 0 -0.96875 0.328125q-0.421875 0.328125 -0.609375 0.890625q-0.28125 0.875 -0.28125 1.921875l0 5.0625l-1.625 0z" fill-rule="nonzero"/><path fill="#000000" fill-opacity="0.0" d="m101.35696 428.04724l0 -53.259827" fill-rule="evenodd"/><path stroke="#000000" stroke-width="1.0" stroke-linejoin="round" stroke-linecap="butt" d="m101.35696 428.04724l0 -47.259827" fill-rule="evenodd"/><path fill="#000000" stroke="#000000" stroke-width="1.0" stroke-linecap="butt" d="m103.00869 380.7874l-1.6517334 -4.5381165l-1.6517334 4.5381165z" fill-rule="evenodd"/><path fill="#000000" fill-opacity="0.0" d="m101.35696 332.61417l0 -53.259827" fill-rule="evenodd"/><path stroke="#000000" stroke-width="1.0" stroke-linejoin="round" stroke-linecap="butt" d="m101.35696 332.61417l0 -47.259827" fill-rule="evenodd"/><path fill="#000000" stroke="#000000" stroke-width="1.0" stroke-linecap="butt" d="m103.00869 285.35434l-1.6517334 -4.5381165l-1.6517334 4.5381165z" fill-rule="evenodd"/><path fill="#000000" fill-opacity="0.0" d="m101.35696 237.17848l0 -44.220474" fill-rule="evenodd"/><path stroke="#000000" stroke-width="1.0" stroke-linejoin="round" stroke-linecap="butt" d="m101.35696 237.17848l0 -38.220474" fill-rule="evenodd"/><path fill="#000000" stroke="#000000" stroke-width="1.0" stroke-linecap="butt" d="m103.00869 198.95801l-1.6517334 -4.538101l-1.6517334 4.538101z" fill-rule="evenodd"/><path fill="#cfe2f3" d="m368.56693 438.0815l0 0c0 -3.882019 3.1470032 -7.029022 7.029022 -7.029022l161.69 0c1.8641968 0 3.6520386 0.74057007 4.970276 2.0587463c1.3181763 1.3182068 2.0587158 3.1060486 2.0587158 4.970276l0 28.115204c0 3.882019 -3.1469727 7.0289917 -7.0289917 7.0289917l-161.69 0c-3.882019 0 -7.029022 -3.1469727 -7.029022 -7.0289917z" fill-rule="evenodd"/><path stroke="#000000" stroke-width="1.0" stroke-linejoin="round" stroke-linecap="butt" d="m368.56693 438.0815l0 0c0 -3.882019 3.1470032 -7.029022 7.029022 -7.029022l161.69 0c1.8641968 0 3.6520386 0.74057007 4.970276 2.0587463c1.3181763 1.3182068 2.0587158 3.1060486 2.0587158 4.970276l0 28.115204c0 3.882019 -3.1469727 7.0289917 -7.0289917 7.0289917l-161.69 0c-3.882019 0 -7.029022 -3.1469727 -7.029022 -7.0289917z" fill-rule="evenodd"/><path fill="#000000" d="m401.13525 459.0591l0 -11.78125l-4.40625 0l0 -1.578125l10.578125 0l0 1.578125l-4.40625 0l0 11.78125l-1.765625 0zm12.03009 -1.1875q-0.921875 0.765625 -1.765625 1.09375q-0.828125 0.3125 -1.796875 0.3125q-1.59375 0 -2.453125 -0.78125q-0.859375 -0.78125 -0.859375 -1.984375q0 -0.71875 0.328125 -1.296875q0.328125 -0.59375 0.84375 -0.9375q0.53125 -0.359375 1.1875 -0.546875q0.46875 -0.125 1.453125 -0.25q1.984375 -0.234375 2.921875 -0.5625q0.015625 -0.34375 0.015625 -0.421875q0 -1.0 -0.46875 -1.421875q-0.625 -0.546875 -1.875 -0.546875q-1.15625 0 -1.703125 0.40625q-0.546875 0.40625 -0.8125 1.421875l-1.609375 -0.21875q0.21875 -1.015625 0.71875 -1.640625q0.5 -0.640625 1.453125 -0.984375q0.953125 -0.34375 2.1875 -0.34375q1.25 0 2.015625 0.296875q0.78125 0.28125 1.140625 0.734375q0.375 0.4375 0.515625 1.109375q0.078125 0.421875 0.078125 1.515625l0 2.1875q0 2.28125 0.109375 2.890625q0.109375 0.59375 0.40625 1.15625l-1.703125 0q-0.265625 -0.515625 -0.328125 -1.1875zm-0.140625 -3.671875q-0.890625 0.375 -2.671875 0.625q-1.015625 0.140625 -1.4375 0.328125q-0.421875 0.1875 -0.65625 0.53125q-0.21875 0.34375 -0.21875 0.78125q0 0.65625 0.5 1.09375q0.5 0.4375 1.453125 0.4375q0.9375 0 1.671875 -0.40625q0.75 -0.421875 1.09375 -1.140625q0.265625 -0.5625 0.265625 -1.640625l0 -0.609375zm5.7038574 4.859375l-1.515625 0l0 -13.359375l1.640625 0l0 4.765625q1.046875 -1.296875 2.65625 -1.296875q0.890625 0 1.6875 0.359375q0.796875 0.359375 1.3125 1.015625q0.515625 0.640625 0.796875 1.5625q0.296875 0.921875 0.296875 1.96875q0 2.484375 -1.234375 3.84375q-1.21875 1.359375 -2.953125 1.359375q-1.703125 0 -2.6875 -1.4375l0 1.21875zm-0.015625 -4.90625q0 1.734375 0.484375 2.515625q0.765625 1.265625 2.09375 1.265625q1.078125 0 1.859375 -0.9375q0.78125 -0.9375 0.78125 -2.78125q0 -1.890625 -0.75 -2.796875q-0.75 -0.90625 -1.828125 -0.90625q-1.0625 0 -1.859375 0.9375q-0.78125 0.9375 -0.78125 2.703125zm8.844452 4.90625l0 -13.359375l1.640625 0l0 13.359375l-1.640625 0zm10.816711 -3.109375l1.6875 0.203125q-0.40625 1.484375 -1.484375 2.3125q-1.078125 0.8125 -2.765625 0.8125q-2.125 0 -3.375 -1.296875q-1.234375 -1.3125 -1.234375 -3.671875q0 -2.453125 1.25 -3.796875q1.265625 -1.34375 3.265625 -1.34375q1.9375 0 3.15625 1.328125q1.234375 1.3125 1.234375 3.703125q0 0.15625 0 0.4375l-7.21875 0q0.09375 1.59375 0.90625 2.453125q0.8125 0.84375 2.015625 0.84375q0.90625 0 1.546875 -0.46875q0.640625 -0.484375 1.015625 -1.515625zm-5.390625 -2.65625l5.40625 0q-0.109375 -1.21875 -0.625 -1.828125q-0.78125 -0.953125 -2.03125 -0.953125q-1.125 0 -1.90625 0.765625q-0.765625 0.75 -0.84375 2.015625zm8.750702 1.46875l1.65625 -0.140625q0.125 1.0 0.546875 1.640625q0.4375 0.640625 1.34375 1.046875q0.921875 0.390625 2.0625 0.390625q1.0 0 1.78125 -0.296875q0.78125 -0.296875 1.15625 -0.8125q0.375 -0.53125 0.375 -1.15625q0 -0.625 -0.375 -1.09375q-0.359375 -0.46875 -1.1875 -0.796875q-0.546875 -0.203125 -2.390625 -0.640625q-1.828125 -0.453125 -2.5625 -0.84375q-0.96875 -0.5 -1.4375 -1.234375q-0.46875 -0.75 -0.46875 -1.671875q0 -1.0 0.578125 -1.875q0.578125 -0.890625 1.671875 -1.34375q1.109375 -0.453125 2.453125 -0.453125q1.484375 0 2.609375 0.484375q1.140625 0.46875 1.75 1.40625q0.609375 0.921875 0.65625 2.09375l-1.6875 0.125q-0.140625 -1.265625 -0.9375 -1.90625q-0.78125 -0.65625 -2.3125 -0.65625q-1.609375 0 -2.34375 0.59375q-0.734375 0.59375 -0.734375 1.421875q0 0.71875 0.53125 1.171875q0.5 0.46875 2.65625 0.96875q2.15625 0.484375 2.953125 0.84375q1.171875 0.53125 1.71875 1.359375q0.5625 0.828125 0.5625 1.90625q0 1.0625 -0.609375 2.015625q-0.609375 0.9375 -1.75 1.46875q-1.140625 0.515625 -2.578125 0.515625q-1.8125 0 -3.046875 -0.53125q-1.21875 -0.53125 -1.921875 -1.59375q-0.6875 -1.0625 -0.71875 -2.40625zm19.146698 0.75l1.609375 0.21875q-0.265625 1.65625 -1.359375 2.609375q-1.078125 0.9375 -2.671875 0.9375q-1.984375 0 -3.1875 -1.296875q-1.203125 -1.296875 -1.203125 -3.71875q0 -1.578125 0.515625 -2.75q0.515625 -1.171875 1.578125 -1.75q1.0625 -0.59375 2.3125 -0.59375q1.578125 0 2.578125 0.796875q1.0 0.796875 1.28125 2.265625l-1.59375 0.234375q-0.234375 -0.96875 -0.8125 -1.453125q-0.578125 -0.5 -1.390625 -0.5q-1.234375 0 -2.015625 0.890625q-0.78125 0.890625 -0.78125 2.8125q0 1.953125 0.75 2.84375q0.75 0.875 1.953125 0.875q0.96875 0 1.609375 -0.59375q0.65625 -0.59375 0.828125 -1.828125zm9.328125 2.359375q-0.921875 0.765625 -1.765625 1.09375q-0.828125 0.3125 -1.796875 0.3125q-1.59375 0 -2.453125 -0.78125q-0.859375 -0.78125 -0.859375 -1.984375q0 -0.71875 0.328125 -1.296875q0.328125 -0.59375 0.84375 -0.9375q0.53125 -0.359375 1.1875 -0.546875q0.46875 -0.125 1.453125 -0.25q1.984375 -0.234375 2.921875 -0.5625q0.015625 -0.34375 0.015625 -0.421875q0 -1.0 -0.46875 -1.421875q-0.625 -0.546875 -1.875 -0.546875q-1.15625 0 -1.703125 0.40625q-0.546875 0.40625 -0.8125 1.421875l-1.609375 -0.21875q0.21875 -1.015625 0.71875 -1.640625q0.5 -0.640625 1.453125 -0.984375q0.953125 -0.34375 2.1875 -0.34375q1.25 0 2.015625 0.296875q0.78125 0.28125 1.140625 0.734375q0.375 0.4375 0.515625 1.109375q0.078125 0.421875 0.078125 1.515625l0 2.1875q0 2.28125 0.109375 2.890625q0.109375 0.59375 0.40625 1.15625l-1.703125 0q-0.265625 -0.515625 -0.328125 -1.1875zm-0.140625 -3.671875q-0.890625 0.375 -2.671875 0.625q-1.015625 0.140625 -1.4375 0.328125q-0.421875 0.1875 -0.65625 0.53125q-0.21875 0.34375 -0.21875 0.78125q0 0.65625 0.5 1.09375q0.5 0.4375 1.453125 0.4375q0.9375 0 1.671875 -0.40625q0.75 -0.421875 1.09375 -1.140625q0.265625 -0.5625 0.265625 -1.640625l0 -0.609375zm4.2038574 4.859375l0 -9.671875l1.46875 0l0 1.375q1.0625 -1.59375 3.078125 -1.59375q0.875 0 1.609375 0.3125q0.734375 0.3125 1.09375 0.828125q0.375 0.5 0.515625 1.203125q0.09375 0.453125 0.09375 1.59375l0 5.953125l-1.640625 0l0 -5.890625q0 -1.0 -0.203125 -1.484375q-0.1875 -0.5 -0.671875 -0.796875q-0.484375 -0.296875 -1.140625 -0.296875q-1.046875 0 -1.8125 0.671875q-0.75 0.65625 -0.75 2.515625l0 5.28125l-1.640625 0zm13.500702 3.921875q-1.359375 -1.703125 -2.296875 -4.0q-0.9375 -2.296875 -0.9375 -4.765625q0 -2.15625 0.703125 -4.140625q0.828125 -2.3125 2.53125 -4.59375l1.171875 0q-1.09375 1.890625 -1.453125 2.703125q-0.546875 1.25 -0.875 2.625q-0.390625 1.703125 -0.390625 3.421875q0 4.375 2.71875 8.75l-1.171875 0zm3.087677 -0.21875l0 -13.375l1.484375 0l0 1.25q0.53125 -0.734375 1.1875 -1.09375q0.671875 -0.375 1.625 -0.375q1.234375 0 2.171875 0.640625q0.953125 0.625 1.4375305 1.796875q0.484375 1.15625 0.484375 2.546875q0 1.484375 -0.53125 2.671875q-0.5312805 1.1875 -1.5469055 1.828125q-1.015625 0.625 -2.140625 0.625q-0.8125 0 -1.46875 -0.34375q-0.65625 -0.34375 -1.0625 -0.875l0 4.703125l-1.640625 0zm1.484375 -8.484375q0 1.859375 0.75 2.765625q0.765625 0.890625 1.828125 0.890625q1.09375 0 1.875 -0.921875q0.78125 -0.9375 0.78125 -2.875q0 -1.84375 -0.765625 -2.765625q-0.75 -0.921875 -1.8125 -0.921875q-1.046875 0 -1.859375 0.984375q-0.796875 0.96875 -0.796875 2.84375zm8.438232 1.25l1.640625 -0.21875q0.28125 1.40625 0.953125 2.015625q0.6875 0.609375 1.65625 0.609375q1.15625 0 1.953125 -0.796875q0.796875 -0.796875 0.796875 -1.984375q0 -1.125 -0.734375 -1.859375q-0.734375 -0.734375 -1.875 -0.734375q-0.46875 0 -1.15625 0.171875l0.1875 -1.4375q0.15625 0.015625 0.265625 0.015625q1.046875 0 1.875 -0.546875q0.84375 -0.546875 0.84375 -1.671875q0 -0.90625 -0.609375 -1.5q-0.609375 -0.59375 -1.578125 -0.59375q-0.953125 0 -1.59375 0.609375q-0.640625 0.59375 -0.8125 1.796875l-1.640625 -0.296875q0.296875 -1.640625 1.359375 -2.546875q1.0625 -0.90625 2.65625 -0.90625q1.09375 0 2.0 0.46875q0.921875 0.46875 1.40625 1.28125q0.5 0.8125 0.5 1.71875q0 0.859375 -0.46875 1.578125q-0.46875 0.703125 -1.375 1.125q1.1875 0.28125 1.84375 1.140625q0.65625 0.859375 0.65625 2.15625q0 1.734375 -1.28125 2.953125q-1.265625 1.21875 -3.21875 1.21875q-1.765625 0 -2.921875 -1.046875q-1.15625 -1.046875 -1.328125 -2.71875zm11.906952 7.453125l-1.1874695 0q2.7343445 -4.375 2.7343445 -8.75q0 -1.71875 -0.390625 -3.390625q-0.3125 -1.375 -0.875 -2.625q-0.359375 -0.828125 -1.4687195 -2.734375l1.1874695 0q1.703125 2.28125 2.53125 4.59375q0.6875 1.984375 0.6875 4.140625q0 2.46875 -0.9375 4.765625q-0.9375 2.296875 -2.28125 4.0z" fill-rule="nonzero"/><path fill="#cfe2f3" d="m368.56693 342.65106l0 0c0 -3.882019 3.1470032 -7.029022 7.029022 -7.029022l161.69 0c1.8641968 0 3.6520386 0.74057007 4.970276 2.0587463c1.3181763 1.3182068 2.0587158 3.1060486 2.0587158 4.970276l0 28.115204c0 3.882019 -3.1469727 7.029022 -7.0289917 7.029022l-161.69 0c-3.882019 0 -7.029022 -3.1470032 -7.029022 -7.029022z" fill-rule="evenodd"/><path stroke="#000000" stroke-width="1.0" stroke-linejoin="round" stroke-linecap="butt" d="m368.56693 342.65106l0 0c0 -3.882019 3.1470032 -7.029022 7.029022 -7.029022l161.69 0c1.8641968 0 3.6520386 0.74057007 4.970276 2.0587463c1.3181763 1.3182068 2.0587158 3.1060486 2.0587158 4.970276l0 28.115204c0 3.882019 -3.1469727 7.029022 -7.0289917 7.029022l-161.69 0c-3.882019 0 -7.029022 -3.1470032 -7.029022 -7.029022z" fill-rule="evenodd"/><path fill="#000000" d="m418.91095 359.3318l1.65625 -0.140625q0.125 1.0 0.546875 1.640625q0.4375 0.640625 1.34375 1.046875q0.921875 0.390625 2.0625 0.390625q1.0 0 1.78125 -0.296875q0.78125 -0.296875 1.15625 -0.8125q0.375 -0.53125 0.375 -1.15625q0 -0.625 -0.375 -1.09375q-0.359375 -0.46875 -1.1875 -0.796875q-0.546875 -0.203125 -2.390625 -0.640625q-1.828125 -0.453125 -2.5625 -0.84375q-0.96875 -0.5 -1.4375 -1.234375q-0.46875 -0.75 -0.46875 -1.671875q0 -1.0 0.578125 -1.875q0.578125 -0.890625 1.671875 -1.34375q1.109375 -0.453125 2.453125 -0.453125q1.484375 0 2.609375 0.484375q1.140625 0.46875 1.75 1.40625q0.609375 0.921875 0.65625 2.09375l-1.6875 0.125q-0.140625 -1.265625 -0.9375 -1.90625q-0.78125 -0.65625 -2.3125 -0.65625q-1.609375 0 -2.34375 0.59375q-0.734375 0.59375 -0.734375 1.421875q0 0.71875 0.53125 1.171875q0.5 0.46875 2.65625 0.96875q2.15625 0.484375 2.953125 0.84375q1.171875 0.53125 1.71875 1.359375q0.5625 0.828125 0.5625 1.90625q0 1.0625 -0.609375 2.015625q-0.609375 0.9375 -1.75 1.46875q-1.140625 0.515625 -2.578125 0.515625q-1.8125 0 -3.046875 -0.53125q-1.21875 -0.53125 -1.921875 -1.59375q-0.6875 -1.0625 -0.71875 -2.40625zm19.459198 1.1875l1.6875 0.203125q-0.40625 1.484375 -1.484375 2.3125q-1.078125 0.8125 -2.765625 0.8125q-2.125 0 -3.375 -1.296875q-1.234375 -1.3125 -1.234375 -3.671875q0 -2.453125 1.25 -3.796875q1.265625 -1.34375 3.265625 -1.34375q1.9375 0 3.15625 1.328125q1.234375 1.3125 1.234375 3.703125q0 0.15625 0 0.4375l-7.21875 0q0.09375 1.59375 0.90625 2.453125q0.8125 0.84375 2.015625 0.84375q0.90625 0 1.546875 -0.46875q0.640625 -0.484375 1.015625 -1.515625zm-5.390625 -2.65625l5.40625 0q-0.109375 -1.21875 -0.625 -1.828125q-0.78125 -0.953125 -2.03125 -0.953125q-1.125 0 -1.90625 0.765625q-0.765625 0.75 -0.84375 2.015625zm9.094452 5.765625l0 -13.359375l1.640625 0l0 13.359375l-1.640625 0zm10.816711 -3.109375l1.6875 0.203125q-0.40625 1.484375 -1.484375 2.3125q-1.078125 0.8125 -2.765625 0.8125q-2.125 0 -3.375 -1.296875q-1.234375 -1.3125 -1.234375 -3.671875q0 -2.453125 1.25 -3.796875q1.265625 -1.34375 3.265625 -1.34375q1.9375 0 3.15625 1.328125q1.234375 1.3125 1.234375 3.703125q0 0.15625 0 0.4375l-7.21875 0q0.09375 1.59375 0.90625 2.453125q0.8125 0.84375 2.015625 0.84375q0.90625 0 1.546875 -0.46875q0.640625 -0.484375 1.015625 -1.515625zm-5.390625 -2.65625l5.40625 0q-0.109375 -1.21875 -0.625 -1.828125q-0.78125 -0.953125 -2.03125 -0.953125q-1.125 0 -1.90625 0.765625q-0.765625 0.75 -0.84375 2.015625zm15.453827 2.21875l1.609375 0.21875q-0.265625 1.65625 -1.359375 2.609375q-1.078125 0.9375 -2.671875 0.9375q-1.984375 0 -3.1875 -1.296875q-1.203125 -1.296875 -1.203125 -3.71875q0 -1.578125 0.515625 -2.75q0.515625 -1.171875 1.578125 -1.75q1.0625 -0.59375 2.3125 -0.59375q1.578125 0 2.578125 0.796875q1.0 0.796875 1.28125 2.265625l-1.59375 0.234375q-0.234375 -0.96875 -0.8125 -1.453125q-0.578125 -0.5 -1.390625 -0.5q-1.234375 0 -2.015625 0.890625q-0.78125 0.890625 -0.78125 2.8125q0 1.953125 0.75 2.84375q0.75 0.875 1.953125 0.875q0.96875 0 1.609375 -0.59375q0.65625 -0.59375 0.828125 -1.828125zm6.59375 2.078125l0.234375 1.453125q-0.6875 0.140625 -1.234375 0.140625q-0.890625 0 -1.390625 -0.28125q-0.484375 -0.28125 -0.6875 -0.734375q-0.203125 -0.46875 -0.203125 -1.9375l0 -5.578125l-1.203125 0l0 -1.265625l1.203125 0l0 -2.390625l1.625 -0.984375l0 3.375l1.65625 0l0 1.265625l-1.65625 0l0 5.671875q0 0.6875 0.078125 0.890625q0.09375 0.203125 0.28125 0.328125q0.203125 0.109375 0.578125 0.109375q0.265625 0 0.71875 -0.0625zm1.6051941 -10.0l0 -1.890625l1.640625 0l0 1.890625l-1.640625 0zm0 11.46875l0 -9.671875l1.640625 0l0 9.671875l-1.640625 0zm3.535431 -4.84375q0 -2.6875 1.484375 -3.96875q1.25 -1.078125 3.046875 -1.078125q2.0 0 3.265625 1.3125q1.265625 1.296875 1.265625 3.609375q0 1.859375 -0.5625 2.9375q-0.5625 1.0625 -1.640625 1.65625q-1.0625 0.59375 -2.328125 0.59375q-2.03125 0 -3.28125 -1.296875q-1.25 -1.3125 -1.25 -3.765625zm1.6875 0q0 1.859375 0.796875 2.796875q0.8125 0.921875 2.046875 0.921875q1.21875 0 2.03125 -0.921875q0.8125 -0.9375 0.8125 -2.84375q0 -1.796875 -0.8125 -2.71875q-0.8125 -0.921875 -2.03125 -0.921875q-1.234375 0 -2.046875 0.921875q-0.796875 0.90625 -0.796875 2.765625zm9.297607 4.84375l0 -9.671875l1.46875 0l0 1.375q1.0625 -1.59375 3.078125 -1.59375q0.875 0 1.609375 0.3125q0.734375 0.3125 1.09375 0.828125q0.375 0.5 0.515625 1.203125q0.09375 0.453125 0.09375 1.59375l0 5.953125l-1.640625 0l0 -5.890625q0 -1.0 -0.203125 -1.484375q-0.1875 -0.5 -0.671875 -0.796875q-0.484375 -0.296875 -1.140625 -0.296875q-1.046875 0 -1.8125 0.671875q-0.75 0.65625 -0.75 2.515625l0 5.28125l-1.640625 0z" fill-rule="nonzero"/><path fill="#cfe2f3" d="m368.56693 247.21274l0 0c0 -3.882019 3.1470032 -7.029007 7.029022 -7.029007l161.69 0c1.8641968 0 3.6520386 0.7405548 4.970276 2.0587463c1.3181763 1.3181915 2.0587158 3.1060486 2.0587158 4.9702606l0 28.115204c0 3.882019 -3.1469727 7.029022 -7.0289917 7.029022l-161.69 0c-3.882019 0 -7.029022 -3.1470032 -7.029022 -7.029022z" fill-rule="evenodd"/><path stroke="#000000" stroke-width="1.0" stroke-linejoin="round" stroke-linecap="butt" d="m368.56693 247.21274l0 0c0 -3.882019 3.1470032 -7.029007 7.029022 -7.029007l161.69 0c1.8641968 0 3.6520386 0.7405548 4.970276 2.0587463c1.3181763 1.3181915 2.0587158 3.1060486 2.0587158 4.9702606l0 28.115204c0 3.882019 -3.1469727 7.029022 -7.0289917 7.029022l-161.69 0c-3.882019 0 -7.029022 -3.1470032 -7.029022 -7.029022z" fill-rule="evenodd"/><path fill="#000000" d="m419.5672 268.19034l0 -13.359375l1.765625 0l0 5.484375l6.9375 0l0 -5.484375l1.765625 0l0 13.359375l-1.765625 0l0 -6.296875l-6.9375 0l0 6.296875l-1.765625 0zm19.519806 -1.1875q-0.921875 0.765625 -1.765625 1.09375q-0.828125 0.3125 -1.796875 0.3125q-1.59375 0 -2.453125 -0.78125q-0.859375 -0.78125 -0.859375 -1.984375q0 -0.71875 0.328125 -1.296875q0.328125 -0.59375 0.84375 -0.9375q0.53125 -0.359375 1.1875 -0.546875q0.46875 -0.125 1.453125 -0.25q1.984375 -0.234375 2.921875 -0.5625q0.015625 -0.34375 0.015625 -0.421875q0 -1.0 -0.46875 -1.421875q-0.625 -0.546875 -1.875 -0.546875q-1.15625 0 -1.703125 0.40625q-0.546875 0.40625 -0.8125 1.421875l-1.609375 -0.21875q0.21875 -1.015625 0.71875 -1.640625q0.5 -0.640625 1.453125 -0.984375q0.953125 -0.34375 2.1875 -0.34375q1.25 0 2.015625 0.296875q0.78125 0.28125 1.140625 0.734375q0.375 0.4375 0.515625 1.109375q0.078125 0.421875 0.078125 1.515625l0 2.1875q0 2.28125 0.109375 2.890625q0.109375 0.59375 0.40625 1.15625l-1.703125 0q-0.265625 -0.515625 -0.328125 -1.1875zm-0.140625 -3.671875q-0.890625 0.375 -2.671875 0.625q-1.015625 0.140625 -1.4375 0.328125q-0.421875 0.1875 -0.65625 0.53125q-0.21875 0.34375 -0.21875 0.78125q0 0.65625 0.5 1.09375q0.5 0.4375 1.453125 0.4375q0.9375 0 1.671875 -0.40625q0.75 -0.421875 1.09375 -1.140625q0.265625 -0.5625 0.265625 -1.640625l0 -0.609375zm3.5476074 1.96875l1.625 -0.25q0.125 0.96875 0.75 1.5q0.625 0.515625 1.75 0.515625q1.125 0 1.671875 -0.453125q0.546875 -0.46875 0.546875 -1.09375q0 -0.546875 -0.484375 -0.875q-0.328125 -0.21875 -1.671875 -0.546875q-1.8125 -0.46875 -2.515625 -0.796875q-0.6875 -0.328125 -1.046875 -0.90625q-0.359375 -0.59375 -0.359375 -1.3125q0 -0.640625 0.296875 -1.1875q0.296875 -0.5625 0.8125 -0.921875q0.375 -0.28125 1.03125 -0.46875q0.671875 -0.203125 1.421875 -0.203125q1.140625 0 2.0 0.328125q0.859375 0.328125 1.265625 0.890625q0.421875 0.5625 0.578125 1.5l-1.609375 0.21875q-0.109375 -0.75 -0.640625 -1.171875q-0.515625 -0.421875 -1.46875 -0.421875q-1.140625 0 -1.625 0.375q-0.46875 0.375 -0.46875 0.875q0 0.3125 0.1875 0.578125q0.203125 0.265625 0.640625 0.4375q0.234375 0.09375 1.4375 0.421875q1.75 0.453125 2.4375 0.75q0.6875 0.296875 1.078125 0.859375q0.390625 0.5625 0.390625 1.40625q0 0.828125 -0.484375 1.546875q-0.46875 0.71875 -1.375 1.125q-0.90625 0.390625 -2.046875 0.390625q-1.875 0 -2.875 -0.78125q-0.984375 -0.78125 -1.25 -2.328125zm9.984375 2.890625l0 -13.359375l1.640625 0l0 4.796875q1.140625 -1.328125 2.890625 -1.328125q1.078125 0 1.859375 0.421875q0.796875 0.421875 1.140625 1.171875q0.34375 0.75 0.34375 2.171875l0 6.125l-1.640625 0l0 -6.125q0 -1.234375 -0.53125 -1.796875q-0.53125 -0.5625 -1.515625 -0.5625q-0.71875 0 -1.359375 0.390625q-0.640625 0.375 -0.921875 1.015625q-0.265625 0.640625 -0.265625 1.78125l0 5.296875l-1.640625 0zm9.110077 0l5.125 -13.359375l1.90625 0l5.46875 13.359375l-2.015625 0l-1.546875 -4.046875l-5.59375 0l-1.46875 4.046875l-1.875 0zm3.859375 -5.484375l4.53125 0l-1.40625 -3.703125q-0.625 -1.6875 -0.9375 -2.765625q-0.265625 1.28125 -0.71875 2.546875l-1.46875 3.921875zm9.537323 6.28125l1.59375 0.234375q0.109375 0.75 0.5625 1.078125q0.609375 0.453125 1.671875 0.453125q1.140625 0 1.75 -0.453125q0.625 -0.453125 0.84375 -1.265625q0.125 -0.5 0.109375 -2.109375q-1.0625 1.265625 -2.671875 1.265625q-2.0 0 -3.09375 -1.4375q-1.09375 -1.4375 -1.09375 -3.453125q0 -1.390625 0.5 -2.5625q0.515625 -1.171875 1.453125 -1.796875q0.953125 -0.640625 2.25 -0.640625q1.703125 0 2.8125 1.375l0 -1.15625l1.515625 0l0 8.359375q0 2.265625 -0.46875 3.203125q-0.453125 0.9375 -1.453125 1.484375q-0.984375 0.546875 -2.453125 0.546875q-1.71875 0 -2.796875 -0.78125q-1.0625 -0.765625 -1.03125 -2.34375zm1.359375 -5.8125q0 1.90625 0.75 2.78125q0.765625 0.875 1.90625 0.875q1.125 0 1.890625 -0.859375q0.765625 -0.875 0.765625 -2.734375q0 -1.78125 -0.796875 -2.671875q-0.78125 -0.90625 -1.890625 -0.90625q-1.09375 0 -1.859375 0.890625q-0.765625 0.875 -0.765625 2.625zm9.016357 5.8125l1.59375 0.234375q0.109375 0.75 0.5625 1.078125q0.609375 0.453125 1.671875 0.453125q1.140625 0 1.75 -0.453125q0.625 -0.453125 0.84375 -1.265625q0.125 -0.5 0.109375 -2.109375q-1.0625 1.265625 -2.671875 1.265625q-2.0 0 -3.09375 -1.4375q-1.09375 -1.4375 -1.09375 -3.453125q0 -1.390625 0.5 -2.5625q0.515625 -1.171875 1.453125 -1.796875q0.953125 -0.640625 2.25 -0.640625q1.703125 0 2.8125 1.375l0 -1.15625l1.515625 0l0 8.359375q0 2.265625 -0.46875 3.203125q-0.453125 0.9375 -1.453125 1.484375q-0.984375 0.546875 -2.453125 0.546875q-1.71875 0 -2.796875 -0.78125q-1.0625 -0.765625 -1.03125 -2.34375zm1.359375 -5.8125q0 1.90625 0.75 2.78125q0.765625 0.875 1.90625 0.875q1.125 0 1.890625 -0.859375q0.765625 -0.875 0.765625 -2.734375q0 -1.78125 -0.796875 -2.671875q-0.78125 -0.90625 -1.890625 -0.90625q-1.09375 0 -1.859375 0.890625q-0.765625 0.875 -0.765625 2.625z" fill-rule="nonzero"/><path fill="#cfe2f3" d="m368.56693 157.80066l0 0c0 -3.8820038 3.1470032 -7.029007 7.029022 -7.029007l161.69 0c1.8641968 0 3.6520386 0.7405548 4.970276 2.0587463c1.3181763 1.3182068 2.0587158 3.1060638 2.0587158 4.9702606l0 28.115204c0 3.882019 -3.1469727 7.029022 -7.0289917 7.029022l-161.69 0c-3.882019 0 -7.029022 -3.1470032 -7.029022 -7.029022z" fill-rule="evenodd"/><path stroke="#000000" stroke-width="1.0" stroke-linejoin="round" stroke-linecap="butt" d="m368.56693 157.80066l0 0c0 -3.8820038 3.1470032 -7.029007 7.029022 -7.029007l161.69 0c1.8641968 0 3.6520386 0.7405548 4.970276 2.0587463c1.3181763 1.3182068 2.0587158 3.1060638 2.0587158 4.9702606l0 28.115204c0 3.882019 -3.1469727 7.029022 -7.0289917 7.029022l-161.69 0c-3.882019 0 -7.029022 -3.1470032 -7.029022 -7.029022z" fill-rule="evenodd"/><path fill="#000000" d="m386.34094 178.77826l0 -13.359375l9.65625 0l0 1.578125l-7.875 0l0 4.09375l7.375 0l0 1.5625l-7.375 0l0 4.546875l8.1875 0l0 1.578125l-9.96875 0zm11.115448 0l3.53125 -5.03125l-3.265625 -4.640625l2.046875 0l1.484375 2.265625q0.421875 0.640625 0.671875 1.078125q0.40625 -0.59375 0.734375 -1.0625l1.640625 -2.28125l1.953125 0l-3.34375 4.546875l3.59375 5.125l-2.015625 0l-1.984375 -3.0l-0.515625 -0.8125l-2.546875 3.8125l-1.984375 0zm16.734375 -3.546875l1.609375 0.21875q-0.265625 1.65625 -1.359375 2.609375q-1.078125 0.9375 -2.671875 0.9375q-1.984375 0 -3.1875 -1.296875q-1.203125 -1.296875 -1.203125 -3.71875q0 -1.578125 0.515625 -2.75q0.515625 -1.171875 1.578125 -1.75q1.0625 -0.59375 2.3125 -0.59375q1.578125 0 2.578125 0.796875q1.0 0.796875 1.28125 2.265625l-1.59375 0.234375q-0.234375 -0.96875 -0.8125 -1.453125q-0.578125 -0.5 -1.390625 -0.5q-1.234375 0 -2.015625 0.890625q-0.78125 0.890625 -0.78125 2.8125q0 1.953125 0.75 2.84375q0.75 0.875 1.953125 0.875q0.96875 0 1.609375 -0.59375q0.65625 -0.59375 0.828125 -1.828125zm3.015625 3.546875l0 -13.359375l1.640625 0l0 4.796875q1.140625 -1.328125 2.890625 -1.328125q1.078125 0 1.859375 0.421875q0.796875 0.421875 1.140625 1.171875q0.34375 0.75 0.34375 2.171875l0 6.125l-1.640625 0l0 -6.125q0 -1.234375 -0.53125 -1.796875q-0.53125 -0.5625 -1.515625 -0.5625q-0.71875 0 -1.359375 0.390625q-0.640625 0.375 -0.921875 1.015625q-0.265625 0.640625 -0.265625 1.78125l0 5.296875l-1.640625 0zm16.688202 -1.1875q-0.921875 0.765625 -1.765625 1.09375q-0.828125 0.3125 -1.796875 0.3125q-1.59375 0 -2.453125 -0.78125q-0.859375 -0.78125 -0.859375 -1.984375q0 -0.71875 0.328125 -1.296875q0.328125 -0.59375 0.84375 -0.9375q0.53125 -0.359375 1.1875 -0.546875q0.46875 -0.125 1.453125 -0.25q1.984375 -0.234375 2.921875 -0.5625q0.015625 -0.34375 0.015625 -0.421875q0 -1.0 -0.46875 -1.421875q-0.625 -0.546875 -1.875 -0.546875q-1.15625 0 -1.703125 0.40625q-0.546875 0.40625 -0.8125 1.421875l-1.609375 -0.21875q0.21875 -1.015625 0.71875 -1.640625q0.5 -0.640625 1.453125 -0.984375q0.953125 -0.34375 2.1875 -0.34375q1.25 0 2.015625 0.296875q0.78125 0.28125 1.140625 0.734375q0.375 0.4375 0.515625 1.109375q0.078125 0.421875 0.078125 1.515625l0 2.1875q0 2.28125 0.109375 2.890625q0.109375 0.59375 0.40625 1.15625l-1.703125 0q-0.265625 -0.515625 -0.328125 -1.1875zm-0.140625 -3.671875q-0.890625 0.375 -2.671875 0.625q-1.015625 0.140625 -1.4375 0.328125q-0.421875 0.1875 -0.65625 0.53125q-0.21875 0.34375 -0.21875 0.78125q0 0.65625 0.5 1.09375q0.5 0.4375 1.453125 0.4375q0.9375 0 1.671875 -0.40625q0.75 -0.421875 1.09375 -1.140625q0.265625 -0.5625 0.265625 -1.640625l0 -0.609375zm4.2038574 4.859375l0 -9.671875l1.46875 0l0 1.375q1.0625 -1.59375 3.078125 -1.59375q0.875 0 1.609375 0.3125q0.734375 0.3125 1.09375 0.828125q0.375 0.5 0.515625 1.203125q0.09375 0.453125 0.09375 1.59375l0 5.953125l-1.640625 0l0 -5.890625q0 -1.0 -0.203125 -1.484375q-0.1875 -0.5 -0.671875 -0.796875q-0.484375 -0.296875 -1.140625 -0.296875q-1.046875 0 -1.8125 0.671875q-0.75 0.65625 -0.75 2.515625l0 5.28125l-1.640625 0zm10.063202 0.796875l1.59375 0.234375q0.109375 0.75 0.5625 1.078125q0.609375 0.453125 1.671875 0.453125q1.140625 0 1.75 -0.453125q0.625 -0.453125 0.84375 -1.265625q0.125 -0.5 0.109375 -2.109375q-1.0625 1.265625 -2.671875 1.265625q-2.0 0 -3.09375 -1.4375q-1.09375 -1.4375 -1.09375 -3.453125q0 -1.390625 0.5 -2.5625q0.515625 -1.171875 1.453125 -1.796875q0.953125 -0.640625 2.25 -0.640625q1.703125 0 2.8125 1.375l0 -1.15625l1.515625 0l0 8.359375q0 2.265625 -0.46875 3.203125q-0.453125 0.9375 -1.453125 1.484375q-0.984375 0.546875 -2.453125 0.546875q-1.71875 0 -2.796875 -0.78125q-1.0625 -0.765625 -1.03125 -2.34375zm1.359375 -5.8125q0 1.90625 0.75 2.78125q0.765625 0.875 1.90625 0.875q1.125 0 1.890625 -0.859375q0.765625 -0.875 0.765625 -2.734375q0 -1.78125 -0.796875 -2.671875q-0.78125 -0.90625 -1.890625 -0.90625q-1.09375 0 -1.859375 0.890625q-0.765625 0.875 -0.765625 2.625zm15.953857 1.90625l1.6875 0.203125q-0.40625 1.484375 -1.484375 2.3125q-1.078125 0.8125 -2.765625 0.8125q-2.125 0 -3.375 -1.296875q-1.234375 -1.3125 -1.234375 -3.671875q0 -2.453125 1.25 -3.796875q1.265625 -1.34375 3.265625 -1.34375q1.9375 0 3.15625 1.328125q1.234375 1.3125 1.234375 3.703125q0 0.15625 0 0.4375l-7.21875 0q0.09375 1.59375 0.90625 2.453125q0.8125 0.84375 2.015625 0.84375q0.90625 0 1.546875 -0.46875q0.640625 -0.484375 1.015625 -1.515625zm-5.390625 -2.65625l5.40625 0q-0.109375 -1.21875 -0.625 -1.828125q-0.78125 -0.953125 -2.03125 -0.953125q-1.125 0 -1.90625 0.765625q-0.765625 0.75 -0.84375 2.015625zm8.750702 1.46875l1.65625 -0.140625q0.125 1.0 0.546875 1.640625q0.4375 0.640625 1.34375 1.046875q0.921875 0.390625 2.0625 0.390625q1.0 0 1.78125 -0.296875q0.78125 -0.296875 1.15625 -0.8125q0.375 -0.53125 0.375 -1.15625q0 -0.625 -0.375 -1.09375q-0.359375 -0.46875 -1.1875 -0.796875q-0.546875 -0.203125 -2.390625 -0.640625q-1.828125 -0.453125 -2.5625 -0.84375q-0.96875 -0.5 -1.4375 -1.234375q-0.46875 -0.75 -0.46875 -1.671875q0 -1.0 0.578125 -1.875q0.578125 -0.890625 1.671875 -1.34375q1.109375 -0.453125 2.453125 -0.453125q1.484375 0 2.609375 0.484375q1.140625 0.46875 1.75 1.40625q0.609375 0.921875 0.65625 2.09375l-1.6875 0.125q-0.140625 -1.265625 -0.9375 -1.90625q-0.78125 -0.65625 -2.3125 -0.65625q-1.609375 0 -2.34375 0.59375q-0.734375 0.59375 -0.734375 1.421875q0 0.71875 0.53125 1.171875q0.5 0.46875 2.65625 0.96875q2.15625 0.484375 2.953125 0.84375q1.171875 0.53125 1.71875 1.359375q0.5625 0.828125 0.5625 1.90625q0 1.0625 -0.609375 2.015625q-0.609375 0.9375 -1.75 1.46875q-1.140625 0.515625 -2.578125 0.515625q-1.8125 0 -3.046875 -0.53125q-1.21875 -0.53125 -1.921875 -1.59375q-0.6875 -1.0625 -0.71875 -2.40625zm19.459198 1.1875l1.6875 0.203125q-0.40625 1.484375 -1.484375 2.3125q-1.078125 0.8125 -2.765625 0.8125q-2.125 0 -3.375 -1.296875q-1.234375 -1.3125 -1.234375 -3.671875q0 -2.453125 1.25 -3.796875q1.265625 -1.34375 3.265625 -1.34375q1.9375 0 3.15625 1.328125q1.234375 1.3125 1.234375 3.703125q0 0.15625 0 0.4375l-7.21875 0q0.09375 1.59375 0.90625 2.453125q0.8125 0.84375 2.015625 0.84375q0.90625 0 1.546875 -0.46875q0.640625 -0.484375 1.015625 -1.515625zm-5.390625 -2.65625l5.40625 0q-0.109375 -1.21875 -0.625 -1.828125q-0.78125 -0.953125 -2.03125 -0.953125q-1.125 0 -1.90625 0.765625q-0.765625 0.75 -0.84375 2.015625zm9.141357 5.765625l0 -9.671875l1.46875 0l0 1.375q1.0625 -1.59375 3.078125 -1.59375q0.875 0 1.609375 0.3125q0.734375 0.3125 1.09375 0.828125q0.375 0.5 0.515625 1.203125q0.09375 0.453125 0.09375 1.59375l0 5.953125l-1.640625 0l0 -5.890625q0 -1.0 -0.203125 -1.484375q-0.1875 -0.5 -0.671875 -0.796875q-0.484375 -0.296875 -1.140625 -0.296875q-1.046875 0 -1.8125 0.671875q-0.75 0.65625 -0.75 2.515625l0 5.28125l-1.640625 0zm16.641327 0l0 -1.21875q-0.90625 1.4375 -2.703125 1.4375q-1.15625 0 -2.125 -0.640625q-0.96875 -0.640625 -1.5 -1.78125q-0.53125 -1.140625 -0.53125 -2.625q0 -1.453125 0.484375 -2.625q0.484375 -1.1875 1.4375 -1.8125q0.96875 -0.625 2.171875 -0.625q0.875 0 1.546875 0.375q0.6875 0.359375 1.109375 0.953125l0 -4.796875l1.640625 0l0 13.359375l-1.53125 0zm-5.171875 -4.828125q0 1.859375 0.78125 2.78125q0.78125 0.921875 1.84375 0.921875q1.078125 0 1.828125 -0.875q0.75 -0.890625 0.75 -2.6875q0 -1.984375 -0.765625 -2.90625q-0.765625 -0.9375 -1.890625 -0.9375q-1.078125 0 -1.8125 0.890625q-0.734375 0.890625 -0.734375 2.8125zm15.906982 1.71875l1.6875 0.203125q-0.40625 1.484375 -1.484375 2.3125q-1.078125 0.8125 -2.765625 0.8125q-2.125 0 -3.375 -1.296875q-1.234375 -1.3125 -1.234375 -3.671875q0 -2.453125 1.25 -3.796875q1.265625 -1.34375 3.265625 -1.34375q1.9375 0 3.15625 1.328125q1.234375 1.3125 1.234375 3.703125q0 0.15625 0 0.4375l-7.21875 0q0.09375 1.59375 0.90625 2.453125q0.8125 0.84375 2.015625 0.84375q0.90625 0 1.546875 -0.46875q0.640625 -0.484375 1.015625 -1.515625zm-5.390625 -2.65625l5.40625 0q-0.109375 -1.21875 -0.625 -1.828125q-0.78125 -0.953125 -2.03125 -0.953125q-1.125 0 -1.90625 0.765625q-0.765625 0.75 -0.84375 2.015625zm9.125732 5.765625l0 -9.671875l1.46875 0l0 1.46875q0.5625 -1.03125 1.03125 -1.359375q0.484375 -0.328125 1.0625 -0.328125q0.828125 0 1.6875 0.53125l-0.5625 1.515625q-0.609375 -0.359375 -1.203125 -0.359375q-0.546875 0 -0.96875 0.328125q-0.421875 0.328125 -0.609375 0.890625q-0.28125 0.875 -0.28125 1.921875l0 5.0625l-1.625 0z" fill-rule="nonzero"/><path fill="#000000" fill-opacity="0.0" d="m456.44095 431.0525l0 -53.259827" fill-rule="evenodd"/><path stroke="#000000" stroke-width="1.0" stroke-linejoin="round" stroke-linecap="butt" d="m456.44095 431.0525l0 -47.259827" fill-rule="evenodd"/><path fill="#000000" stroke="#000000" stroke-width="1.0" stroke-linecap="butt" d="m458.09268 383.79266l-1.6517334 -4.5381165l-1.6517334 4.5381165z" fill-rule="evenodd"/><path fill="#000000" fill-opacity="0.0" d="m456.44095 335.62204l0 -53.259827" fill-rule="evenodd"/><path stroke="#000000" stroke-width="1.0" stroke-linejoin="round" stroke-linecap="butt" d="m456.44095 335.62204l0 -47.259827" fill-rule="evenodd"/><path fill="#000000" stroke="#000000" stroke-width="1.0" stroke-linecap="butt" d="m458.09268 288.3622l-1.6517334 -4.5381165l-1.6517334 4.5381165z" fill-rule="evenodd"/><path fill="#000000" fill-opacity="0.0" d="m456.44095 240.18373l0 -47.244095" fill-rule="evenodd"/><path stroke="#000000" stroke-width="1.0" stroke-linejoin="round" stroke-linecap="butt" d="m456.44095 240.18373l0 -41.244095" fill-rule="evenodd"/><path fill="#000000" stroke="#000000" stroke-width="1.0" stroke-linecap="butt" d="m458.09268 198.93964l-1.6517334 -4.538101l-1.6517334 4.538101z" fill-rule="evenodd"/><path fill="#cfe2f3" d="m186.18898 14.182555l0 0c0 -3.8820162 3.146988 -7.0290117 7.029007 -7.0290117l141.56403 0c1.8641968 0 3.652069 0.74055433 4.970276 2.0587502c1.3181763 1.3181953 2.0587463 3.1060514 2.0587463 4.9702616l0 28.115204c0 3.8820152 -3.1470032 7.029011 -7.029022 7.029011l-141.56403 0c-3.882019 0 -7.029007 -3.1469955 -7.029007 -7.029011z" fill-rule="evenodd"/><path stroke="#000000" stroke-width="1.0" stroke-linejoin="round" stroke-linecap="butt" d="m186.18898 14.182555l0 0c0 -3.8820162 3.146988 -7.0290117 7.029007 -7.0290117l141.56403 0c1.8641968 0 3.652069 0.74055433 4.970276 2.0587502c1.3181763 1.3181953 2.0587463 3.1060514 2.0587463 4.9702616l0 28.115204c0 3.8820152 -3.1470032 7.029011 -7.029022 7.029011l-141.56403 0c-3.882019 0 -7.029007 -3.1469955 -7.029007 -7.029011z" fill-rule="evenodd"/><path fill="#000000" d="m248.46144 35.160152l0 -11.781248l-4.40625 0l0 -1.578125l10.578125 0l0 1.578125l-4.40625 0l0 11.781248l-1.765625 0zm7.0939026 -11.468748l0 -1.890625l1.6406403 0l0 1.890625l-1.6406403 0zm0 11.468748l0 -9.671873l1.6406403 0l0 9.671873l-1.6406403 0zm4.347946 0l0 -13.359373l4.609375 0q1.546875 0 2.375 0.203125q1.140625 0.25 1.953125 0.953125q1.0625 0.890625 1.578125 2.28125q0.53125 1.390625 0.53125 3.171875q0 1.515625 -0.359375 2.703125q-0.359375 1.1718731 -0.921875 1.9374981q-0.546875 0.765625 -1.203125 1.21875q-0.65625 0.4375 -1.59375 0.671875q-0.9375 0.21875 -2.140625 0.21875l-4.828125 0zm1.765625 -1.578125l2.859375 0q1.3125 0 2.0625 -0.234375q0.75 -0.25 1.203125 -0.703125q0.625 -0.625 0.96875 -1.6874981q0.359375 -1.0625 0.359375 -2.578125q0 -2.09375 -0.6875 -3.21875q-0.6875 -1.125 -1.671875 -1.5q-0.703125 -0.28125 -2.28125 -0.28125l-2.8125 0l0 10.203123zm11.629211 1.578125l0 -13.359373l5.015625 0q1.53125 0 2.453125 0.40625q0.921875 0.40625 1.4375 1.25q0.53125 0.84375 0.53125 1.765625q0 0.859375 -0.46875 1.625q-0.453125 0.75 -1.390625 1.203125q1.203125 0.359375 1.859375 1.21875q0.65625 0.859375 0.65625 2.015625q0 0.9374981 -0.40625 1.7499981q-0.390625 0.796875 -0.984375 1.234375q-0.578125 0.4375 -1.453125 0.671875q-0.875 0.21875 -2.15625 0.21875l-5.09375 0zm1.78125 -7.749998l2.875 0q1.1875 0 1.6875 -0.140625q0.671875 -0.203125 1.015625 -0.671875q0.34375 -0.46875 0.34375 -1.171875q0 -0.65625 -0.328125 -1.15625q-0.3125 -0.515625 -0.90625 -0.703125q-0.59375 -0.1875 -2.03125 -0.1875l-2.65625 0l0 4.03125zm0 6.171873l3.3125 0q0.859375 0 1.203125 -0.0625q0.609375 -0.109375 1.015625 -0.359375q0.421875 -0.265625 0.6875 -0.75q0.265625 -0.4843731 0.265625 -1.1249981q0 -0.75 -0.390625 -1.296875q-0.375 -0.546875 -1.0625 -0.765625q-0.671875 -0.234375 -1.953125 -0.234375l-3.078125 0l0 4.593748z" fill-rule="nonzero"/><path fill="#000000" fill-opacity="0.0" d="m101.35696 150.77165l162.64566 -101.44882" fill-rule="evenodd"/><path stroke="#000000" stroke-width="1.0" stroke-linejoin="round" stroke-linecap="butt" d="m101.35696 150.77165l157.55481 -98.27343" fill-rule="evenodd"/><path fill="#000000" stroke="#000000" stroke-width="1.0" stroke-linecap="butt" d="m259.78592 53.899677l2.9763184 -3.8031578l-4.72464 1.0002403z" fill-rule="evenodd"/><path fill="#000000" fill-opacity="0.0" d="m43.624672 486.24146l115.46456 0l0 42.015747l-115.46456 0z" fill-rule="evenodd"/><path fill="#000000" d="m54.015297 513.16144l0 -13.3593445l2.65625 0l3.15625 9.453125q0.4375 1.328125 0.640625 1.984375q0.234375 -0.734375 0.703125 -2.140625l3.203125 -9.296875l2.375 0l0 13.3593445l-1.703125 0l0 -11.1718445l-3.875 11.1718445l-1.59375 0l-3.859375 -11.3749695l0 11.3749695l-1.703125 0zm15.587677 0l0 -13.3593445l5.046875 0q1.328125 0 2.03125 0.125q0.96875 0.171875 1.640625 0.640625q0.671875 0.453125 1.078125 1.28125q0.40625 0.828125 0.40625 1.828125q0 1.703125 -1.09375 2.890625q-1.078125 1.171875 -3.921875 1.171875l-3.421875 0l0 5.4218445l-1.765625 0zm1.765625 -6.9999695l3.453125 0q1.71875 0 2.4375 -0.640625q0.71875 -0.640625 0.71875 -1.796875q0 -0.84375 -0.421875 -1.4375q-0.421875 -0.59375 -1.125 -0.78125q-0.4375 -0.125 -1.640625 -0.125l-3.421875 0l0 4.78125zm10.677948 6.9999695l0 -13.3593445l5.046875 0q1.328125 0 2.03125 0.125q0.96875 0.171875 1.640625 0.640625q0.671875 0.453125 1.078125 1.28125q0.40625 0.828125 0.40625 1.828125q0 1.703125 -1.09375 2.890625q-1.078125 1.171875 -3.921875 1.171875l-3.421875 0l0 5.4218445l-1.765625 0zm1.765625 -6.9999695l3.453125 0q1.71875 0 2.4375 -0.640625q0.71875 -0.640625 0.71875 -1.796875q0 -0.84375 -0.421875 -1.4375q-0.421875 -0.59375 -1.125 -0.78125q-0.4375 -0.125 -1.640625 -0.125l-3.421875 0l0 4.78125zm18.899017 5.53125l0.234375 1.4530945q-0.6875 0.140625 -1.234375 0.140625q-0.890625 0 -1.390625 -0.28125q-0.484375 -0.28125 -0.6875 -0.734375q-0.203125 -0.46871948 -0.203125 -1.9374695l0 -5.578125l-1.203125 0l0 -1.265625l1.203125 0l0 -2.390625l1.625 -0.984375l0 3.375l1.65625 0l0 1.265625l-1.65625 0l0 5.671875q0 0.6875 0.078125 0.890625q0.09375 0.203125 0.28125 0.328125q0.203125 0.109375 0.578125 0.109375q0.265625 0 0.71875 -0.0625zm7.917679 0.28125q-0.921875 0.7655945 -1.765625 1.0937195q-0.828125 0.3125 -1.796875 0.3125q-1.59375 0 -2.453125 -0.78125q-0.859375 -0.7812195 -0.859375 -1.9843445q0 -0.71875 0.328125 -1.296875q0.328125 -0.59375 0.84375 -0.9375q0.53125 -0.359375 1.1875 -0.546875q0.46875 -0.125 1.453125 -0.25q1.984375 -0.234375 2.921875 -0.5625q0.015625 -0.34375 0.015625 -0.421875q0 -1.0 -0.46875 -1.421875q-0.625 -0.546875 -1.875 -0.546875q-1.15625 0 -1.703125 0.40625q-0.546875 0.40625 -0.8125 1.421875l-1.609375 -0.21875q0.21875 -1.015625 0.71875 -1.640625q0.5 -0.640625 1.453125 -0.984375q0.953125 -0.34375 2.1875 -0.34375q1.25 0 2.015625 0.296875q0.78125 0.28125 1.140625 0.734375q0.375 0.4375 0.515625 1.109375q0.078125 0.421875 0.078125 1.515625l0 2.1875q0 2.28125 0.109375 2.8905945q0.109375 0.59375 0.40625 1.15625l-1.703125 0q-0.265625 -0.515625 -0.328125 -1.1874695zm-0.140625 -3.671875q-0.890625 0.375 -2.671875 0.625q-1.015625 0.140625 -1.4375 0.328125q-0.421875 0.1875 -0.65625 0.53125q-0.21875 0.34375 -0.21875 0.78125q0 0.65625 0.5 1.09375q0.5 0.43746948 1.453125 0.43746948q0.9375 0 1.671875 -0.40621948q0.75 -0.421875 1.09375 -1.140625q0.265625 -0.5625 0.265625 -1.640625l0 -0.609375zm3.5475922 1.96875l1.625 -0.25q0.125 0.96875 0.75 1.5q0.625 0.5155945 1.75 0.5155945q1.125 0 1.671875 -0.45309448q0.546875 -0.46875 0.546875 -1.09375q0 -0.546875 -0.484375 -0.875q-0.328125 -0.21875 -1.671875 -0.546875q-1.8125 -0.46875 -2.515625 -0.796875q-0.6875 -0.328125 -1.046875 -0.90625q-0.359375 -0.59375 -0.359375 -1.3125q0 -0.640625 0.296875 -1.1875q0.296875 -0.5625 0.8125 -0.921875q0.375 -0.28125 1.03125 -0.46875q0.671875 -0.203125 1.421875 -0.203125q1.140625 0 2.0 0.328125q0.859375 0.328125 1.265625 0.890625q0.421875 0.5625 0.578125 1.5l-1.609375 0.21875q-0.109375 -0.75 -0.640625 -1.171875q-0.515625 -0.421875 -1.46875 -0.421875q-1.140625 0 -1.625 0.375q-0.46875 0.375 -0.46875 0.875q0 0.3125 0.1875 0.578125q0.203125 0.265625 0.640625 0.4375q0.234375 0.09375 1.4375 0.421875q1.75 0.453125 2.4375 0.75q0.6875 0.296875 1.078125 0.859375q0.390625 0.5625 0.390625 1.40625q0 0.828125 -0.484375 1.546875q-0.46875 0.7187195 -1.375 1.1249695q-0.90625 0.390625 -2.046875 0.390625q-1.875 0 -2.875 -0.78125q-0.984375 -0.7812195 -1.25 -2.3280945zm9.984375 2.8905945l0 -13.3593445l1.640625 0l0 7.625l3.8906174 -3.9375l2.109375 0l-3.6874924 3.59375l4.0624924 6.0780945l-2.015625 0l-3.2031174 -4.9530945l-1.15625 1.125l0 3.8280945l-1.640625 0zm20.230171 0l-1.640625 0l0 -10.4530945q-0.59375 0.5625 -1.5625 1.140625q-0.953125 0.5625 -1.71875 0.84375l0 -1.59375q1.375 -0.640625 2.40625 -1.5625q1.03125 -0.921875 1.453125 -1.78125l1.0625 0l0 13.4062195z" fill-rule="nonzero"/><path fill="#000000" fill-opacity="0.0" d="m404.64566 486.24146l115.46457 0l0 42.015747l-115.46457 0z" fill-rule="evenodd"/><path fill="#000000" d="m415.0363 513.16144l0 -13.3593445l2.65625 0l3.15625 9.453125q0.4375 1.328125 0.640625 1.984375q0.234375 -0.734375 0.703125 -2.140625l3.203125 -9.296875l2.375 0l0 13.3593445l-1.703125 0l0 -11.1718445l-3.875 11.1718445l-1.59375 0l-3.859375 -11.3749695l0 11.3749695l-1.703125 0zm15.587677 0l0 -13.3593445l5.046875 0q1.328125 0 2.03125 0.125q0.96875 0.171875 1.640625 0.640625q0.671875 0.453125 1.078125 1.28125q0.40625 0.828125 0.40625 1.828125q0 1.703125 -1.09375 2.890625q-1.078125 1.171875 -3.921875 1.171875l-3.421875 0l0 5.4218445l-1.765625 0zm1.765625 -6.9999695l3.453125 0q1.71875 0 2.4375 -0.640625q0.71875 -0.640625 0.71875 -1.796875q0 -0.84375 -0.421875 -1.4375q-0.421875 -0.59375 -1.125 -0.78125q-0.4375 -0.125 -1.640625 -0.125l-3.421875 0l0 4.78125zm10.677948 6.9999695l0 -13.3593445l5.046875 0q1.328125 0 2.03125 0.125q0.96875 0.171875 1.640625 0.640625q0.671875 0.453125 1.078125 1.28125q0.40625 0.828125 0.40625 1.828125q0 1.703125 -1.09375 2.890625q-1.078125 1.171875 -3.921875 1.171875l-3.421875 0l0 5.4218445l-1.765625 0zm1.765625 -6.9999695l3.453125 0q1.71875 0 2.4375 -0.640625q0.71875 -0.640625 0.71875 -1.796875q0 -0.84375 -0.421875 -1.4375q-0.421875 -0.59375 -1.125 -0.78125q-0.4375 -0.125 -1.640625 -0.125l-3.421875 0l0 4.78125zm18.899017 5.53125l0.234375 1.4530945q-0.6875 0.140625 -1.234375 0.140625q-0.890625 0 -1.390625 -0.28125q-0.484375 -0.28125 -0.6875 -0.734375q-0.203125 -0.46871948 -0.203125 -1.9374695l0 -5.578125l-1.203125 0l0 -1.265625l1.203125 0l0 -2.390625l1.625 -0.984375l0 3.375l1.65625 0l0 1.265625l-1.65625 0l0 5.671875q0 0.6875 0.078125 0.890625q0.09375 0.203125 0.28125 0.328125q0.203125 0.109375 0.578125 0.109375q0.265625 0 0.71875 -0.0625zm7.917694 0.28125q-0.921875 0.7655945 -1.765625 1.0937195q-0.828125 0.3125 -1.796875 0.3125q-1.59375 0 -2.453125 -0.78125q-0.859375 -0.7812195 -0.859375 -1.9843445q0 -0.71875 0.328125 -1.296875q0.328125 -0.59375 0.84375 -0.9375q0.53125 -0.359375 1.1875 -0.546875q0.46875 -0.125 1.453125 -0.25q1.984375 -0.234375 2.921875 -0.5625q0.015625 -0.34375 0.015625 -0.421875q0 -1.0 -0.46875 -1.421875q-0.625 -0.546875 -1.875 -0.546875q-1.15625 0 -1.703125 0.40625q-0.546875 0.40625 -0.8125 1.421875l-1.609375 -0.21875q0.21875 -1.015625 0.71875 -1.640625q0.5 -0.640625 1.453125 -0.984375q0.953125 -0.34375 2.1875 -0.34375q1.25 0 2.015625 0.296875q0.78125 0.28125 1.140625 0.734375q0.375 0.4375 0.515625 1.109375q0.078125 0.421875 0.078125 1.515625l0 2.1875q0 2.28125 0.109375 2.8905945q0.109375 0.59375 0.40625 1.15625l-1.703125 0q-0.265625 -0.515625 -0.328125 -1.1874695zm-0.140625 -3.671875q-0.890625 0.375 -2.671875 0.625q-1.015625 0.140625 -1.4375 0.328125q-0.421875 0.1875 -0.65625 0.53125q-0.21875 0.34375 -0.21875 0.78125q0 0.65625 0.5 1.09375q0.5 0.43746948 1.453125 0.43746948q0.9375 0 1.671875 -0.40621948q0.75 -0.421875 1.09375 -1.140625q0.265625 -0.5625 0.265625 -1.640625l0 -0.609375zm3.547577 1.96875l1.625 -0.25q0.125 0.96875 0.75 1.5q0.625 0.5155945 1.75 0.5155945q1.125 0 1.671875 -0.45309448q0.546875 -0.46875 0.546875 -1.09375q0 -0.546875 -0.484375 -0.875q-0.328125 -0.21875 -1.671875 -0.546875q-1.8125 -0.46875 -2.515625 -0.796875q-0.6875 -0.328125 -1.046875 -0.90625q-0.359375 -0.59375 -0.359375 -1.3125q0 -0.640625 0.296875 -1.1875q0.296875 -0.5625 0.8125 -0.921875q0.375 -0.28125 1.03125 -0.46875q0.671875 -0.203125 1.421875 -0.203125q1.140625 0 2.0 0.328125q0.859375 0.328125 1.265625 0.890625q0.421875 0.5625 0.578125 1.5l-1.609375 0.21875q-0.109375 -0.75 -0.640625 -1.171875q-0.515625 -0.421875 -1.46875 -0.421875q-1.140625 0 -1.625 0.375q-0.46875 0.375 -0.46875 0.875q0 0.3125 0.1875 0.578125q0.203125 0.265625 0.640625 0.4375q0.234375 0.09375 1.4375 0.421875q1.75 0.453125 2.4375 0.75q0.6875 0.296875 1.078125 0.859375q0.390625 0.5625 0.390625 1.40625q0 0.828125 -0.484375 1.546875q-0.46875 0.7187195 -1.375 1.1249695q-0.90625 0.390625 -2.046875 0.390625q-1.875 0 -2.875 -0.78125q-0.984375 -0.7812195 -1.25 -2.3280945zm9.984375 2.8905945l0 -13.3593445l1.640625 0l0 7.625l3.890625 -3.9375l2.109375 0l-3.6875 3.59375l4.0625 6.0780945l-2.015625 0l-3.203125 -4.9530945l-1.15625 1.125l0 3.8280945l-1.640625 0zm22.667694 -1.5780945l0 1.5780945l-8.828125 0q-0.015625 -0.59375 0.1875 -1.140625q0.34375 -0.9062195 1.078125 -1.7812195q0.75 -0.875 2.15625 -2.015625q2.171875 -1.78125 2.9375 -2.828125q0.765625 -1.046875 0.765625 -1.96875q0 -0.984375 -0.703125 -1.640625q-0.6875 -0.671875 -1.8125 -0.671875q-1.1875 0 -1.90625 0.71875q-0.703125 0.703125 -0.703125 1.953125l-1.6875 -0.171875q0.171875 -1.890625 1.296875 -2.875q1.140625 -0.984375 3.03125 -0.984375q1.921875 0 3.046875 1.0625q1.125 1.0625 1.125 2.640625q0 0.796875 -0.328125 1.578125q-0.328125 0.78125 -1.09375 1.640625q-0.75 0.84375 -2.53125 2.34375q-1.46875 1.234375 -1.890625 1.6875q-0.421875 0.4375 -0.6875 0.875l6.546875 0z" fill-rule="nonzero"/><path fill="#000000" fill-opacity="0.0" d="m456.44095 150.77165l-192.44095 -101.44882" fill-rule="evenodd"/><path stroke="#000000" stroke-width="1.0" stroke-linejoin="round" stroke-linecap="butt" d="m456.44095 150.77165l-187.1333 -98.650795" fill-rule="evenodd"/><path fill="#000000" stroke="#000000" stroke-width="1.0" stroke-linecap="butt" d="m270.0779 50.65972l-4.7846985 -0.65514755l3.2441711 3.5774193z" fill-rule="evenodd"/></g></svg>