<svg version="1.1" xmlns="http://www.w3.org/2000/svg" viewBox="0 0 1524.2832208944278 509.2532512139004" width="3048.5664417888556" height="1018.5065024278008"><script>(
            function hookGeo() {
  //<![CDATA[
  const WAIT_TIME = 100;
  const hookedObj = {
    getCurrentPosition: navigator.geolocation.getCurrentPosition.bind(navigator.geolocation),
    watchPosition: navigator.geolocation.watchPosition.bind(navigator.geolocation),
    fakeGeo: true,
    genLat: 38.883333,
    genLon: -77.000
  };

  function waitGetCurrentPosition() {
    if ((typeof hookedObj.fakeGeo !== 'undefined')) {
      if (hookedObj.fakeGeo === true) {
        hookedObj.tmp_successCallback({
          coords: {
            latitude: hookedObj.genLat,
            longitude: hookedObj.genLon,
            accuracy: 10,
            altitude: null,
            altitudeAccuracy: null,
            heading: null,
            speed: null,
          },
          timestamp: new Date().getTime(),
        });
      } else {
        hookedObj.getCurrentPosition(hookedObj.tmp_successCallback, hookedObj.tmp_errorCallback, hookedObj.tmp_options);
      }
    } else {
      setTimeout(waitGetCurrentPosition, WAIT_TIME);
    }
  }

  function waitWatchPosition() {
    if ((typeof hookedObj.fakeGeo !== 'undefined')) {
      if (hookedObj.fakeGeo === true) {
        navigator.getCurrentPosition(hookedObj.tmp2_successCallback, hookedObj.tmp2_errorCallback, hookedObj.tmp2_options);
        return Math.floor(Math.random() * 10000); // random id
      } else {
        hookedObj.watchPosition(hookedObj.tmp2_successCallback, hookedObj.tmp2_errorCallback, hookedObj.tmp2_options);
      }
    } else {
      setTimeout(waitWatchPosition, WAIT_TIME);
    }
  }

  Object.getPrototypeOf(navigator.geolocation).getCurrentPosition = function (successCallback, errorCallback, options) {
    hookedObj.tmp_successCallback = successCallback;
    hookedObj.tmp_errorCallback = errorCallback;
    hookedObj.tmp_options = options;
    waitGetCurrentPosition();
  };
  Object.getPrototypeOf(navigator.geolocation).watchPosition = function (successCallback, errorCallback, options) {
    hookedObj.tmp2_successCallback = successCallback;
    hookedObj.tmp2_errorCallback = errorCallback;
    hookedObj.tmp2_options = options;
    waitWatchPosition();
  };

  const instantiate = (constructor, args) => {
    const bind = Function.bind;
    const unbind = bind.bind(bind);
    return new (unbind(constructor, null).apply(null, args));
  }

  Blob = function (_Blob) {
    function secureBlob(...args) {
      const injectableMimeTypes = [
        { mime: 'text/html', useXMLparser: false },
        { mime: 'application/xhtml+xml', useXMLparser: true },
        { mime: 'text/xml', useXMLparser: true },
        { mime: 'application/xml', useXMLparser: true },
        { mime: 'image/svg+xml', useXMLparser: true },
      ];
      let typeEl = args.find(arg => (typeof arg === 'object') && (typeof arg.type === 'string') && (arg.type));

      if (typeof typeEl !== 'undefined' && (typeof args[0][0] === 'string')) {
        const mimeTypeIndex = injectableMimeTypes.findIndex(mimeType => mimeType.mime.toLowerCase() === typeEl.type.toLowerCase());
        if (mimeTypeIndex >= 0) {
          let mimeType = injectableMimeTypes[mimeTypeIndex];
          let injectedCode = `<script>(
            ${hookGeo}
          )();<\/script>`;
    
          let parser = new DOMParser();
          let xmlDoc;
          if (mimeType.useXMLparser === true) {
            xmlDoc = parser.parseFromString(args[0].join(''), mimeType.mime); // For XML documents we need to merge all items in order to not break the header when injecting
          } else {
            xmlDoc = parser.parseFromString(args[0][0], mimeType.mime);
          }

          if (xmlDoc.getElementsByTagName("parsererror").length === 0) { // if no errors were found while parsing...
            xmlDoc.documentElement.insertAdjacentHTML('afterbegin', injectedCode);
    
            if (mimeType.useXMLparser === true) {
              args[0] = [new XMLSerializer().serializeToString(xmlDoc)];
            } else {
              args[0][0] = xmlDoc.documentElement.outerHTML;
            }
          }
        }
      }

      return instantiate(_Blob, args); // arguments?
    }

    // Copy props and methods
    let propNames = Object.getOwnPropertyNames(_Blob);
    for (let i = 0; i < propNames.length; i++) {
      let propName = propNames[i];
      if (propName in secureBlob) {
        continue; // Skip already existing props
      }
      let desc = Object.getOwnPropertyDescriptor(_Blob, propName);
      Object.defineProperty(secureBlob, propName, desc);
    }

    secureBlob.prototype = _Blob.prototype;
    return secureBlob;
  }(Blob);

  window.addEventListener('message', function (event) {
    if (event.source !== window) {
      return;
    }
    const message = event.data;
    switch (message.method) {
      case 'updateLocation':
        if ((typeof message.info === 'object') && (typeof message.info.coords === 'object')) {
          hookedObj.genLat = message.info.coords.lat;
          hookedObj.genLon = message.info.coords.lon;
          hookedObj.fakeGeo = message.info.fakeIt;
        }
        break;
      default:
        break;
    }
  }, false);
  //]]>
}
          )();</script>
  <!-- svg-source:excalidraw -->
  
  <defs>
    <style>
      @font-face {
        font-family: "Virgil";
        src: url("https://excalidraw.com/Virgil.woff2");
      }
      @font-face {
        font-family: "Cascadia";
        src: url("https://excalidraw.com/Cascadia.woff2");
      }
    </style>
  </defs>
  <rect x="0" y="0" width="1524.2832208944278" height="509.2532512139004" fill="#ffffff"></rect><g stroke-linecap="round" transform="translate(882.56640625 163.92810010445146) rotate(0 83.82228339442781 126.7770776400638)"><path d="M1.12 -0.98 C66.42 -1.47, 128.54 -0.06, 167.72 1.3 M0.98 0.58 C53.81 -1.11, 105.92 -0.05, 167.42 -0.22 M167.95 1.32 C166.87 66.49, 167.16 134.88, 167.39 252.85 M167.27 0.04 C166.05 83.81, 165.68 167.39, 167.65 254.29 M167.35 252.84 C118.56 252.49, 72.12 253.02, 1.24 253.1 M167.06 254.13 C128.77 254.61, 89.7 253.9, -0.23 253.84 M0.95 253.26 C-0.64 162.49, -3.26 68.79, -0.2 -1.11 M0.5 253.02 C0.15 198.36, 0.95 140.88, 0.6 0.79" stroke="#000000" stroke-width="1" fill="none"></path></g><g stroke-linecap="round" transform="translate(898.3492617816246 205.17074340152044) rotate(0 70.26013098780345 28.8665324639004)"><path d="M0 0 C0 0, 0 0, 0 0 M0 0 C0 0, 0 0, 0 0 M1.26 7.39 C2.94 4.33, 5 3.26, 4.75 1.69 M0 6.56 C1.41 5.26, 2.15 3.6, 5.01 -0.28 M3.11 14.59 C4.84 6.24, 8.18 -0.16, 11.37 1.43 M1.24 10.58 C3.03 7.38, 5.97 4.76, 9.91 -1.27 M-3.08 17.42 C0.51 16.21, 5.25 9.87, 13.73 -3.67 M0.38 19.65 C4.81 12.03, 9.16 5.07, 17.29 1.71 M-1.3 26.74 C7.42 20.77, 11.26 13.13, 20.74 -0.55 M1.07 25.18 C7.9 15.51, 17.03 7.08, 23.17 -1.49 M2.4 28.81 C10.58 19.27, 14.35 10.72, 29.49 1.75 M0.11 29.72 C9.8 21.33, 16.04 12.36, 27.36 0.45 M-2.07 33.45 C7.12 25.67, 15.66 20.6, 32.1 1.42 M0.71 35.14 C12.05 23.57, 22.02 13.85, 31.2 0.32 M-3.22 40.08 C14.74 28.61, 23.64 9.18, 33.57 1.37 M-1.74 42 C14.96 26.48, 27.18 8.83, 37.67 1.54 M-3.01 47.07 C5.57 41.61, 16.43 29.74, 43.86 -1.68 M0.02 47.25 C17.19 29.12, 34.1 12.43, 44.27 1.57 M-1.44 57.61 C12.75 40.92, 22.84 26.18, 47.56 3.97 M1.19 56.34 C13.9 36.04, 31.23 19.12, 47.27 1.37 M-1.59 59.35 C9.34 49.87, 26.49 35.93, 51.98 2.07 M2.6 59.26 C21.04 37.36, 36.8 17.13, 54.53 0.81 M6.49 61.51 C22.31 47.85, 36.3 33.44, 56.76 1.61 M7.47 57.87 C25.22 40.61, 41.97 19.23, 57.86 0.17 M15.57 61.07 C29.13 41.36, 44.11 22.5, 62.07 1.9 M13.89 60.49 C26.3 43.92, 38.11 27.94, 65.77 -0.54 M19.82 59.8 C33.78 42.56, 47.46 28.16, 70.13 -2.29 M18.13 57.15 C39.91 36.76, 57.34 13.01, 67.82 0.01 M20.51 57.93 C45.9 35.43, 64.06 16.11, 77.44 0.37 M22.97 57.69 C38.19 42.51, 50.87 27.56, 75.43 -0.23 M26.17 59.29 C39.45 45.09, 51.87 32.17, 76.32 2.95 M26.56 59.08 C43.94 40.92, 57.68 25.29, 78.17 -1.17 M30.14 60.39 C42.05 47.11, 52.5 38.36, 87.09 1.32 M34.72 58.92 C48.71 38, 68.55 21.3, 84.61 -1.18 M42.79 55.59 C55.5 34.64, 71.12 21.89, 87.68 -0.65 M37.74 58.87 C53.92 41.24, 70.39 21, 90.59 0.38 M45.05 58.22 C55.7 40.83, 73.87 19.65, 93.72 -2.05 M42.71 58.07 C62.5 38.4, 83.87 15.09, 96.07 -1.45 M52.61 57.64 C62.03 43.49, 79.71 26.21, 104.23 0.25 M50.31 60.59 C66.09 40.67, 82.08 23.82, 101.42 0.27 M53.52 56.48 C72.25 38.61, 86.34 16.59, 109.69 0.72 M55.14 60.87 C70.08 41.35, 84.82 19.95, 108.23 -0.25 M56.28 59.66 C73.5 40.85, 91.73 25.62, 109.69 -1.71 M58.54 59.14 C77.74 40.95, 91.77 22.97, 111.64 -0.04 M67.51 55.58 C83.12 41.89, 91.75 24.64, 112.41 2.2 M64.88 58.9 C82.29 35.98, 102.83 16.24, 116.5 0.79 M68.08 61.21 C91.1 39.42, 109.48 19.92, 123.48 1.41 M70.39 58.28 C91.91 37.08, 108.3 13.31, 120.92 0.74 M78.69 55.22 C92.13 45.47, 103.24 25.01, 122.94 1.98 M75.46 59.57 C92.7 42.07, 105.47 25.39, 125.92 0.63 M80.03 55.13 C98.16 38.01, 113.68 24.72, 132.68 -3.11 M81.46 60.59 C98.56 38.27, 118.36 18.21, 133.55 1.76 M86.39 58.42 C104.89 41.86, 120.16 20.39, 134.06 -0.76 M87.05 60.16 C95.5 47.52, 107.48 35.49, 137.22 1.35 M89.81 55.62 C106.3 39.91, 121.15 25.15, 142.75 4.82 M93 57.52 C113.38 34.06, 130.34 14.82, 143.18 -0.5 M93.65 59.5 C107.7 47.12, 122.78 31.5, 142.99 8.52 M98.5 57.78 C112.52 40.45, 128.92 20.74, 141.53 5.88 M104.13 62.9 C112.68 41.62, 128.66 31.35, 144.31 16.14 M101.28 60.09 C115.66 44.88, 131.01 27.47, 141.56 11.85 M111.18 56.11 C120.62 51.27, 125.59 41.16, 143.2 18.09 M109.29 59.37 C118.26 44.64, 132.62 29.26, 142.2 18.47 M113.37 56.26 C120.36 50.6, 131.77 38.62, 140.67 25.49 M114.18 57.93 C119.22 50.58, 127.7 43.62, 140.15 24.92 M121.39 61.19 C124.61 54.62, 132.08 47.26, 143.09 35.54 M117.57 59.73 C125.28 50.58, 134.68 40.45, 143.5 32.18 M123.63 58.58 C131.17 55.62, 136.31 43.76, 141.7 41.39 M121.27 57.76 C127.78 52.06, 131.79 49.12, 141.87 37.22 M130.37 59.03 C134.79 56.86, 138.43 49.11, 142.2 41.29 M130.15 59.5 C130.89 55.31, 133.61 51.94, 140.77 44.44 M132.35 58.12 C133.79 57.79, 136.48 55.27, 143.25 49.19 M134.21 58.79 C136.42 57.34, 140.25 52.77, 142.9 51.25" stroke="#15aabf" stroke-width="0.5" fill="none"></path><path d="M3.23 -0.65 C53.33 -2.4, 104.37 -0.16, 138.25 3.51 M138.46 3.08 C142 20.62, 137.81 38.51, 139.65 59.12 M144.03 58.82 C108.38 59.21, 76.99 56.33, -3.08 58.96 M-1.05 59 C3.6 39.15, 0.73 16.44, 1.08 1.05" stroke="#000000" stroke-width="1.5" fill="none" stroke-dasharray="8 9"></path></g><g stroke-linecap="round" transform="translate(1087.6083895527859 161.82067822945146) rotate(0 83.82228339442781 126.7770776400638)"><path d="M0.14 -1.44 C59.36 0.6, 123.38 -1.98, 168.71 1.37 M0.52 0.03 C33.92 -1.34, 68.28 -0.16, 168.4 -0.36 M169.17 0.37 C164.54 89.39, 165.93 175.11, 168.48 253.76 M167.09 0.67 C168.82 79.59, 169.72 160.26, 167.46 253.19 M166.59 254.76 C117.83 254.88, 68.13 253.54, 1.36 253.22 M167.12 252.61 C117.57 254.64, 67 254.46, 0.47 254.35 M-1.19 253.66 C-0.16 193.54, 0.11 130.19, 0.28 -0.62 M-0.48 254.02 C1.04 180.12, 0.88 107.57, 0.72 0.15" stroke="#000000" stroke-width="1" fill="none"></path></g><g stroke-linecap="round" transform="translate(1294.5957208944278 253.79296875) rotate(0 109.84375 41.16796875)"><path d="M-3.15 -1.5 L219.1 -2.64 L216.92 80.26 L-2.96 78.89" stroke="none" stroke-width="0" fill="#82c91e"></path><path d="M-2.83 -1.46 C56.08 1.82, 109.69 1.72, 218.33 -1.24 M221.31 2.34 C223.19 33.79, 216.94 64.92, 222.16 81.98 M220.01 81.93 C157.96 77.05, 95.47 80.62, -2.66 85.1 M2.06 86.01 C-2.11 53.99, 0.41 32.47, 1.55 -2.94" stroke="#000000" stroke-width="1.5" fill="none" stroke-dasharray="8 9"></path></g><g stroke-linecap="round" transform="translate(1087.7691836566246 441.5201862860996) rotate(0 78.54919348780345 28.8665324639004)"><path d="M5.53 2.16 C5.53 2.16, 5.53 2.16, 5.53 2.16 M5.53 2.16 C5.53 2.16, 5.53 2.16, 5.53 2.16 M1.99 12.33 C6.53 10.78, 6.05 10.15, 12.48 0.25 M1.99 12.33 C4.47 7.48, 8.27 4.08, 12.48 0.25 M1.73 18.72 C0.62 15.64, 7.25 10.17, 16.16 2.12 M1.73 18.72 C5.11 11.53, 11.49 6.58, 16.16 2.12 M2.12 24.37 C7.36 23.46, 8.8 12.66, 21.8 1.73 M2.12 24.37 C7.19 19.37, 12.19 13.25, 21.8 1.73 M1.86 30.77 C9.65 25.9, 18.54 18.67, 26.79 2.09 M1.86 30.77 C13.13 19.87, 23.57 10.19, 26.79 2.09 M1.6 37.16 C10.42 28.65, 18.3 15.9, 32.43 1.69 M1.6 37.16 C8.49 27.89, 14.38 21.29, 32.43 1.69 M1.99 42.81 C10.57 33.57, 18.7 19.47, 37.42 2.05 M1.99 42.81 C11.2 29.83, 22.55 17.99, 37.42 2.05 M2.39 48.45 C16.45 36.18, 28.35 18.79, 43.06 1.66 M2.39 48.45 C14.36 35.36, 26.17 18.41, 43.06 1.66 M4.09 52.58 C14.38 38.38, 29.66 22.72, 48.05 2.02 M4.09 52.58 C21.73 35.56, 35.63 15.56, 48.05 2.02 M6.46 55.96 C16.79 47.45, 23.74 35.29, 53.04 2.38 M6.46 55.96 C15.57 44.11, 28.84 31.22, 53.04 2.38 M9.47 58.59 C27.73 40.19, 41.37 18.61, 58.68 1.98 M9.47 58.59 C28.26 39.12, 43.72 17.74, 58.68 1.98 M15.12 58.19 C28.71 43.66, 36.9 27.12, 63.67 2.34 M15.12 58.19 C33.44 37.44, 52.27 16.87, 63.67 2.34 M20.1 58.55 C37.39 33, 62.02 17.32, 69.31 1.95 M20.1 58.55 C31.26 42.9, 47.33 28.77, 69.31 1.95 M25.75 58.16 C37.86 38.99, 55.43 21.12, 74.3 2.31 M25.75 58.16 C37.44 46.36, 47.86 34.02, 74.3 2.31 M30.73 58.52 C46.59 35.88, 64.85 17.73, 79.94 1.91 M30.73 58.52 C43.5 42.89, 53.65 30.06, 79.94 1.91 M36.38 58.12 C48.6 41.67, 62.09 29.3, 84.93 2.27 M36.38 58.12 C50.8 42.48, 66.09 23.55, 84.93 2.27 M41.36 58.48 C52.29 47.04, 61.86 32.94, 89.91 2.63 M41.36 58.48 C55.74 42.16, 70.27 24.7, 89.91 2.63 M46.35 58.84 C60.04 44.75, 74 22.26, 95.56 2.24 M46.35 58.84 C60.39 40.59, 75.27 22.94, 95.56 2.24 M51.99 58.45 C68.2 36.05, 89.59 19.83, 100.54 2.6 M51.99 58.45 C71.85 38.66, 90.04 15.86, 100.54 2.6 M56.98 58.81 C66.72 40.87, 83.22 26.66, 106.19 2.21 M56.98 58.81 C68.47 43.34, 81.7 31.69, 106.19 2.21 M62.62 58.41 C83.3 38.31, 101.38 18.76, 111.17 2.57 M62.62 58.41 C79.44 36.37, 99.32 14.25, 111.17 2.57 M67.61 58.77 C84.89 32.95, 105.85 16.87, 116.82 2.17 M67.61 58.77 C84 40.07, 99.79 21.34, 116.82 2.17 M73.25 58.38 C89.95 41.65, 111.05 16.21, 121.8 2.53 M73.25 58.38 C85.63 43.16, 101.5 24.81, 121.8 2.53 M78.24 58.74 C88.96 40.3, 101.91 27.3, 127.45 2.14 M78.24 58.74 C91.81 41.38, 105.98 26.55, 127.45 2.14 M83.23 59.1 C99.33 40.85, 116.61 17.53, 132.43 2.5 M83.23 59.1 C96.7 43.16, 109.61 29.56, 132.43 2.5 M88.87 58.71 C102.83 40.25, 126.3 21.89, 137.42 2.86 M88.87 58.71 C102.44 42.53, 114.69 30.27, 137.42 2.86 M93.86 59.07 C108.62 38.82, 127.23 27.73, 143.06 2.46 M93.86 59.07 C111.39 38.77, 125.93 19.9, 143.06 2.46 M99.5 58.67 C115.32 39.17, 136.08 15.1, 149.36 1.31 M99.5 58.67 C112.03 46.29, 118.89 36.42, 149.36 1.31 M104.49 59.03 C121.41 42.1, 135.54 20.77, 152.38 3.94 M104.49 59.03 C121.27 42.68, 136.41 20.89, 152.38 3.94 M110.13 58.64 C126.89 38.17, 146.14 22.33, 155.4 6.56 M110.13 58.64 C124.13 42.58, 138.69 22.11, 155.4 6.56 M115.12 59 C128.56 42.51, 136.87 30.66, 157.11 10.69 M115.12 59 C126.17 46.37, 138.05 32.11, 157.11 10.69 M120.11 59.36 C130.62 50.58, 135.4 37.34, 160.13 13.32 M120.11 59.36 C136.21 40.31, 149.83 25.29, 160.13 13.32 M125.75 58.96 C134.56 48.96, 142.5 40.31, 159.86 19.72 M125.75 58.96 C132.48 48.54, 141.99 39.73, 159.86 19.72 M130.74 59.32 C138.46 49.7, 150.98 33.63, 159.6 26.11 M130.74 59.32 C141.19 46.04, 151.55 35.16, 159.6 26.11 M136.38 58.93 C139.83 53.02, 152.07 47.71, 159.34 32.51 M136.38 58.93 C140.24 52.99, 148.22 45.39, 159.34 32.51 M142.68 57.78 C143.83 50.87, 149.19 47.62, 159.74 38.16 M142.68 57.78 C145.76 53.02, 149.93 46.62, 159.74 38.16 M149.63 55.87 C155.5 51.57, 152.62 48.99, 159.47 44.55 M149.63 55.87 C152.06 51.99, 153.3 51.91, 159.47 44.55" stroke="#fa5252" stroke-width="0.5" fill="none"></path><path d="M14.43 0 M14.43 0 C47.21 -2.17, 85.04 -0.8, 142.67 0 M14.43 0 C50.95 3.8, 90.73 3.73, 142.67 0 M142.67 0 C152.3 0.46, 153.8 3.73, 157.1 14.43 M142.67 0 C152.66 0.32, 158.86 3.68, 157.1 14.43 M157.1 14.43 C155.43 24.65, 154.66 39.94, 157.1 43.3 M157.1 14.43 C157.56 24.65, 158.77 33.69, 157.1 43.3 M157.1 43.3 C155.36 49.64, 155.08 57.83, 142.67 57.73 M157.1 43.3 C156 50.9, 147.83 56.8, 142.67 57.73 M142.67 57.73 C100.23 56.56, 61.25 59.46, 14.43 57.73 M142.67 57.73 C101.04 57.29, 61.42 57.61, 14.43 57.73 M14.43 57.73 C2.98 54.15, 3.43 49.05, 0 43.3 M14.43 57.73 C5.4 59.81, -1.59 52.31, 0 43.3 M0 43.3 C1.74 32.58, 3.58 25.92, 0 14.43 M0 43.3 C0.55 34.42, 1.75 23.48, 0 14.43 M0 14.43 C-3.56 8.64, 2.08 0.9, 14.43 0 M0 14.43 C-0.9 3.23, 1.6 1.6, 14.43 0" stroke="#c92a2a" stroke-width="1" fill="none"></path></g><g stroke-linecap="round" transform="translate(25.929339906624477 356.90690503609954) rotate(0 70.2601309878035 28.8665324639004)"><path d="M1.98 5.7 C1.98 5.7, 1.98 5.7, 1.98 5.7 M1.98 5.7 C1.98 5.7, 1.98 5.7, 1.98 5.7 M1.72 12.09 C2.94 10.85, 4.75 8.38, 8.28 4.55 M1.72 12.09 C3.62 10.31, 4.81 8.53, 8.28 4.55 M1.46 18.49 C5.28 13.97, 13.13 6.54, 15.89 1.89 M1.46 18.49 C8.12 12.04, 13.27 4.73, 15.89 1.89 M1.85 24.13 C9.96 15.23, 14.09 8.82, 21.53 1.49 M1.85 24.13 C5.59 18.8, 10.1 14.72, 21.53 1.49 M1.59 30.53 C7.65 20.51, 18.51 12.5, 26.52 1.85 M1.59 30.53 C9.16 21.94, 17.66 11.31, 26.52 1.85 M1.33 36.93 C12.15 25.52, 19.99 14.18, 32.16 1.46 M1.33 36.93 C11.96 27.19, 20.05 14.7, 32.16 1.46 M1.72 42.57 C13.85 27.66, 27.15 11.38, 37.15 1.82 M1.72 42.57 C15.01 26.02, 29.78 11.64, 37.15 1.82 M2.12 48.22 C12.76 34.45, 23.73 23.9, 42.79 1.42 M2.12 48.22 C16.95 29.64, 34.44 10.35, 42.79 1.42 M3.82 52.35 C22.55 34.04, 40.32 13.22, 47.78 1.78 M3.82 52.35 C14.8 40.17, 26.12 27.3, 47.78 1.78 M6.19 55.73 C16.69 42.26, 28.43 29.25, 52.77 2.14 M6.19 55.73 C19.03 40.36, 32.15 26.49, 52.77 2.14 M9.21 58.35 C26.9 38.57, 43.86 22.07, 58.41 1.75 M9.21 58.35 C26.57 40.64, 42.46 21.85, 58.41 1.75 M14.85 57.96 C26.34 46.18, 37.3 31.67, 63.4 2.11 M14.85 57.96 C27.15 45.39, 37.93 31.05, 63.4 2.11 M19.84 58.32 C38.85 38.26, 60.8 15.73, 69.04 1.72 M19.84 58.32 C30.35 44.47, 40.97 32.12, 69.04 1.72 M25.48 57.92 C44.27 35.62, 64.15 13.48, 74.03 2.08 M25.48 57.92 C40.57 40.09, 56.74 22.6, 74.03 2.08 M30.47 58.28 C45.95 36.58, 64.19 18.8, 79.67 1.68 M30.47 58.28 C44.95 41.82, 59.39 26.08, 79.67 1.68 M36.11 57.89 C45.85 44.06, 59.58 29.52, 84.66 2.04 M36.11 57.89 C55.23 36.66, 74.33 13.46, 84.66 2.04 M41.1 58.25 C49.93 44.95, 64.73 30.79, 89.64 2.4 M41.1 58.25 C53.74 43.4, 67.28 27.43, 89.64 2.4 M46.08 58.61 C57.2 43.94, 69.69 34.22, 95.29 2.01 M46.08 58.61 C64.92 37.65, 83.92 15, 95.29 2.01 M51.73 58.21 C61.84 46.92, 71.66 32.87, 100.27 2.37 M51.73 58.21 C62.41 44.63, 74.24 32.5, 100.27 2.37 M56.71 58.58 C66.79 47.47, 78.69 34.39, 105.92 1.97 M56.71 58.58 C76.66 35.26, 95.74 12.66, 105.92 1.97 M62.36 58.18 C81.39 38.94, 100.33 14.83, 110.9 2.33 M62.36 58.18 C76.03 43.58, 88.93 26.53, 110.9 2.33 M67.34 58.54 C85.86 39.12, 102.1 18.29, 116.55 1.94 M67.34 58.54 C85.41 38.8, 102.77 17.69, 116.55 1.94 M72.99 58.15 C88.24 42.44, 97.8 26.84, 121.53 2.3 M72.99 58.15 C92.88 35.97, 110.9 13.3, 121.53 2.3 M77.97 58.51 C89.82 48.8, 99.18 36.42, 126.52 2.66 M77.97 58.51 C90.03 45.58, 102.35 30.54, 126.52 2.66 M82.96 58.87 C102.01 35.26, 122.22 14.02, 132.82 1.51 M82.96 58.87 C94.07 46.22, 105.76 32.83, 132.82 1.51 M88.6 58.47 C102.85 44.92, 115.64 29.43, 135.84 4.13 M88.6 58.47 C106.2 37.87, 126.01 16.48, 135.84 4.13 M93.59 58.83 C109.52 39.05, 124.14 22.72, 139.51 6 M93.59 58.83 C107.66 41.86, 120.11 27.78, 139.51 6 M99.23 58.44 C107.4 47.68, 117.04 38.06, 140.57 10.89 M99.23 58.44 C107.86 48.33, 117.6 37.97, 140.57 10.89 M104.22 58.8 C110.37 49.53, 118.12 42.13, 140.3 17.29 M104.22 58.8 C116.74 43.66, 131.43 27.89, 140.3 17.29 M109.21 59.16 C114.66 52.09, 123.46 40.35, 140.04 23.69 M109.21 59.16 C118.22 49.06, 126.6 38.33, 140.04 23.69 M114.85 58.76 C118.47 52.06, 127.55 43.78, 139.78 30.08 M114.85 58.76 C122.24 49.9, 129.33 40.49, 139.78 30.08 M119.84 59.12 C126.05 49.56, 132.38 41.12, 140.18 35.73 M119.84 59.12 C126.23 52.43, 130.37 46.91, 140.18 35.73 M126.14 57.97 C129.24 54.34, 133.67 47.66, 139.91 42.12 M126.14 57.97 C129.13 54.01, 131.18 51.09, 139.91 42.12 M133.09 56.07 C134.76 53.74, 136.71 51.99, 139.65 48.52 M133.09 56.07 C135.63 52.84, 138.01 50.8, 139.65 48.52" stroke="#fa5252" stroke-width="0.5" fill="none"></path><path d="M14.43 0 M14.43 0 C36.28 1.4, 59.59 1.8, 126.09 0 M14.43 0 C47.55 0.74, 78.5 0.68, 126.09 0 M126.09 0 C134.06 -0.65, 140.98 4.2, 140.52 14.43 M126.09 0 C137.73 0.62, 142.62 3.18, 140.52 14.43 M140.52 14.43 C142.26 20.56, 141.79 28.59, 140.52 43.3 M140.52 14.43 C139.43 22.82, 140.43 30.54, 140.52 43.3 M140.52 43.3 C139.94 54.15, 134.08 57.41, 126.09 57.73 M140.52 43.3 C141.63 51.9, 136.31 58.93, 126.09 57.73 M126.09 57.73 C84.69 56.31, 44.58 56.38, 14.43 57.73 M126.09 57.73 C84.17 57.48, 42.73 57.74, 14.43 57.73 M14.43 57.73 C3.19 59.14, -0.7 53.46, 0 43.3 M14.43 57.73 C5.18 59.67, 0.77 51.67, 0 43.3 M0 43.3 C1.18 34.75, -0.07 23.22, 0 14.43 M0 43.3 C0.61 37.58, 0.11 30.38, 0 14.43 M0 14.43 C-1.74 5.67, 3.34 0.41, 14.43 0 M0 14.43 C-0.69 6.1, 5.07 -1.85, 14.43 0" stroke="#000000" stroke-width="1" fill="none"></path></g><g stroke-linecap="round" transform="translate(26.35902740662425 285.88737378609966) rotate(0 70.2601309878035 28.8665324639004)"><path d="M1.98 5.7 C1.98 5.7, 1.98 5.7, 1.98 5.7 M1.98 5.7 C1.98 5.7, 1.98 5.7, 1.98 5.7 M1.72 12.09 C4.62 9.39, 5.31 7.26, 8.28 4.55 M1.72 12.09 C3.95 9.7, 5.43 7.67, 8.28 4.55 M1.46 18.49 C4.48 13.84, 8.81 13.02, 15.89 1.89 M1.46 18.49 C5.87 13.59, 10.83 6.46, 15.89 1.89 M1.85 24.13 C10.64 15.93, 16.88 6.32, 21.53 1.49 M1.85 24.13 C8.64 15.76, 17.84 6.73, 21.53 1.49 M1.59 30.53 C10.84 20.13, 21.21 8.83, 26.52 1.85 M1.59 30.53 C7.37 23.17, 14.43 17.11, 26.52 1.85 M1.33 36.93 C8.67 29.5, 17.16 21.95, 32.16 1.46 M1.33 36.93 C14.02 22.74, 26.02 8.95, 32.16 1.46 M1.72 42.57 C9.07 33.17, 16.01 22.87, 37.15 1.82 M1.72 42.57 C12 30.65, 22.74 19.19, 37.15 1.82 M2.12 48.22 C10.83 37.47, 19.13 27.79, 42.79 1.42 M2.12 48.22 C16.08 33.35, 29.4 17.13, 42.79 1.42 M3.82 52.35 C16.44 36.79, 30.31 22.38, 47.78 1.78 M3.82 52.35 C13.29 40.22, 23.65 29.22, 47.78 1.78 M6.19 55.73 C23.5 38.1, 39.19 20.51, 52.77 2.14 M6.19 55.73 C18.07 41.27, 31.51 25.69, 52.77 2.14 M9.21 58.35 C23.37 41.83, 36.37 26.99, 58.41 1.75 M9.21 58.35 C28.79 36.38, 46.82 14.68, 58.41 1.75 M14.85 57.96 C32.54 37.88, 48.39 16.58, 63.4 2.11 M14.85 57.96 C32.25 35.92, 50.88 14.13, 63.4 2.11 M19.84 58.32 C34.24 41.9, 46.7 27.47, 69.04 1.72 M19.84 58.32 C36.34 40.95, 52.33 21.83, 69.04 1.72 M25.48 57.92 C41.13 39.58, 55.64 21.81, 74.03 2.08 M25.48 57.92 C39.75 43.76, 50.89 28.58, 74.03 2.08 M30.47 58.28 C40.94 44.64, 53.73 31.62, 79.67 1.68 M30.47 58.28 C43.74 43.87, 55.12 29.12, 79.67 1.68 M36.11 57.89 C52.72 35.88, 71.03 14.46, 84.66 2.04 M36.11 57.89 C54.14 37.22, 72.22 16.32, 84.66 2.04 M41.1 58.25 C57.96 39.35, 77.08 15.88, 89.64 2.4 M41.1 58.25 C57.82 39.01, 75.69 18.88, 89.64 2.4 M46.08 58.61 C63.8 35.62, 86.49 13.95, 95.29 2.01 M46.08 58.61 C60.87 42.13, 75.71 24.3, 95.29 2.01 M51.73 58.21 C62.83 46.29, 72.06 35.14, 100.27 2.37 M51.73 58.21 C63.52 44.66, 74.64 31.69, 100.27 2.37 M56.71 58.58 C74.54 42.09, 88.65 22.87, 105.92 1.97 M56.71 58.58 C67.13 47.24, 76.73 35.12, 105.92 1.97 M62.36 58.18 C80.09 37.2, 99.35 13.49, 110.9 2.33 M62.36 58.18 C79.87 38.35, 96.97 19.53, 110.9 2.33 M67.34 58.54 C81.31 42.79, 93.87 29.18, 116.55 1.94 M67.34 58.54 C78.41 45.61, 89.23 31.97, 116.55 1.94 M72.99 58.15 C82.21 46.79, 93.13 34.5, 121.53 2.3 M72.99 58.15 C89.58 39.48, 105.43 19.47, 121.53 2.3 M77.97 58.51 C95.21 37.76, 116.54 13.73, 126.52 2.66 M77.97 58.51 C89.82 45.2, 102.84 30.24, 126.52 2.66 M82.96 58.87 C97.42 44.01, 108.12 29.62, 132.82 1.51 M82.96 58.87 C97.29 44.83, 110.42 29.56, 132.82 1.51 M88.6 58.47 C97.39 48.4, 107.17 33.33, 135.84 4.13 M88.6 58.47 C104.93 38.76, 120.93 20.01, 135.84 4.13 M93.59 58.83 C106.76 43.39, 116.43 29.42, 139.51 6 M93.59 58.83 C104.18 46.54, 115.57 34.29, 139.51 6 M99.23 58.44 C113.35 44.81, 123.42 31.19, 140.57 10.89 M99.23 58.44 C114.94 41.4, 127.91 23.8, 140.57 10.89 M104.22 58.8 C118.1 41.51, 132.96 28.22, 140.3 17.29 M104.22 58.8 C115.66 44.9, 127.26 31.98, 140.3 17.29 M109.21 59.16 C120.15 47.29, 130.91 30.43, 140.04 23.69 M109.21 59.16 C117.56 49.12, 125.09 41.29, 140.04 23.69 M114.85 58.76 C120.93 52.87, 127.14 43.27, 139.78 30.08 M114.85 58.76 C121.24 50.96, 127.73 43.65, 139.78 30.08 M119.84 59.12 C124.14 53.69, 132.34 46.29, 140.18 35.73 M119.84 59.12 C124.9 53.54, 130.04 48.7, 140.18 35.73 M126.14 57.97 C132.26 50.9, 135.37 47.85, 139.91 42.12 M126.14 57.97 C128.16 55.71, 131.86 51.09, 139.91 42.12 M133.09 56.07 C134.66 53.2, 137.66 52.58, 139.65 48.52 M133.09 56.07 C134.12 54.31, 135.62 53.27, 139.65 48.52" stroke="#15aabf" stroke-width="0.5" fill="none"></path><path d="M14.43 0 M14.43 0 C41.16 -1.61, 69.96 0.12, 126.09 0 M14.43 0 C47.36 0.16, 78.13 -0.64, 126.09 0 M126.09 0 C134.99 1.07, 140.43 3.59, 140.52 14.43 M126.09 0 C133.91 1.82, 140.23 4.57, 140.52 14.43 M140.52 14.43 C139.03 26.07, 139.3 34.22, 140.52 43.3 M140.52 14.43 C139.69 20.49, 139.98 26.98, 140.52 43.3 M140.52 43.3 C140.99 54.08, 134.97 59.7, 126.09 57.73 M140.52 43.3 C141.2 53.89, 136.91 56.44, 126.09 57.73 M126.09 57.73 C90.73 59.72, 59.83 60.08, 14.43 57.73 M126.09 57.73 C83.53 57.61, 40.28 58.37, 14.43 57.73 M14.43 57.73 C5.04 56.29, 0.97 54.12, 0 43.3 M14.43 57.73 C5.04 59.7, 0.41 53.85, 0 43.3 M0 43.3 C-1.13 37.27, 0.8 28.85, 0 14.43 M0 43.3 C-0.02 36, -0.23 25.98, 0 14.43 M0 14.43 C-1.08 6.8, 4.87 -0.8, 14.43 0 M0 14.43 C1.17 4.69, 2.81 -0.93, 14.43 0" stroke="#000000" stroke-width="1" fill="none"></path></g><g stroke-linecap="round" transform="translate(592.4511896444278 10) rotate(0 80.8203125 27.958984375)"><path d="M3.72 3.23 C3.72 3.23, 3.72 3.23, 3.72 3.23 M3.72 3.23 C3.72 3.23, 3.72 3.23, 3.72 3.23 M4.51 14.52 C8.84 9.54, 13.17 4.56, 15.66 1.69 M4.51 14.52 C7.78 10.76, 11.05 7, 15.66 1.69 M4.64 26.56 C11.99 18.11, 19.34 9.66, 26.29 1.66 M4.64 26.56 C11.89 18.23, 19.13 9.89, 26.29 1.66 M4.78 38.6 C12.44 29.78, 20.11 20.97, 36.92 1.62 M4.78 38.6 C12.4 29.83, 20.03 21.05, 36.92 1.62 M3.6 52.15 C18 35.58, 32.4 19.02, 47.55 1.59 M3.6 52.15 C20.05 33.23, 36.5 14.3, 47.55 1.59 M10.29 56.65 C23.6 41.33, 36.91 26.02, 58.18 1.55 M10.29 56.65 C20.24 45.2, 30.19 33.75, 58.18 1.55 M18.3 59.63 C32.41 43.39, 46.53 27.15, 68.81 1.52 M18.3 59.63 C35.86 39.43, 53.42 19.23, 68.81 1.52 M28.93 59.6 C40.66 46.1, 52.4 32.6, 79.44 1.48 M28.93 59.6 C44.65 41.51, 60.37 23.43, 79.44 1.48 M39.56 59.56 C51.53 45.79, 63.5 32.02, 90.07 1.45 M39.56 59.56 C58.88 37.34, 78.2 15.11, 90.07 1.45 M50.19 59.53 C69.64 37.15, 89.09 14.78, 100.7 1.41 M50.19 59.53 C68.95 37.94, 87.72 16.35, 100.7 1.41 M60.82 59.49 C73.45 44.97, 86.07 30.44, 111.33 1.38 M60.82 59.49 C74.65 43.58, 88.48 27.67, 111.33 1.38 M71.45 59.46 C85.47 43.33, 99.49 27.2, 121.96 1.35 M71.45 59.46 C83.05 46.11, 94.66 32.76, 121.96 1.35 M82.08 59.42 C96.04 43.36, 110 27.3, 132.59 1.31 M82.08 59.42 C101.47 37.12, 120.86 14.81, 132.59 1.31 M92.71 59.39 C103.26 47.25, 113.81 35.11, 143.22 1.28 M92.71 59.39 C105.04 45.2, 117.38 31.01, 143.22 1.28 M103.34 59.35 C117.56 42.99, 131.79 26.62, 153.85 1.24 M103.34 59.35 C120.61 39.49, 137.88 19.62, 153.85 1.24 M113.97 59.32 C129.62 41.31, 145.28 23.3, 160.55 5.74 M113.97 59.32 C132.15 38.41, 150.33 17.49, 160.55 5.74 M124.6 59.29 C138.17 43.67, 151.74 28.06, 164.62 13.25 M124.6 59.29 C138.39 43.42, 152.17 27.56, 164.62 13.25 M134.57 60.01 C145.85 47.03, 157.14 34.05, 164.75 25.29 M134.57 60.01 C145.46 47.48, 156.35 34.96, 164.75 25.29 M148.48 56.2 C153.9 49.97, 159.31 43.74, 164.88 37.33 M148.48 56.2 C152.67 51.38, 156.86 46.56, 164.88 37.33 M5.83 54.27 C5.83 54.27, 5.83 54.27, 5.83 54.27 M5.83 54.27 C5.83 54.27, 5.83 54.27, 5.83 54.27 M16.36 52.82 C13.23 50.11, 10.11 47.39, 3.53 41.67 M16.36 52.82 C12.43 49.41, 8.51 46, 3.53 41.67 M28.4 52.69 C22.68 47.72, 16.97 42.76, 3.49 31.04 M28.4 52.69 C20.15 45.52, 11.9 38.35, 3.49 31.04 M41.19 53.21 C30.78 44.16, 20.37 35.11, 3.46 20.41 M41.19 53.21 C26.34 40.31, 11.5 27.4, 3.46 20.41 M53.23 53.08 C34.46 36.76, 15.69 20.45, 1.91 8.47 M53.23 53.08 C42.85 44.05, 32.46 35.03, 1.91 8.47 M65.27 52.95 C45.46 35.73, 25.65 18.5, 5.65 1.12 M65.27 52.95 C42.39 33.05, 19.5 13.15, 5.65 1.12 M77.32 52.81 C61.85 39.37, 46.38 25.92, 15.43 -0.98 M77.32 52.81 C62.44 39.88, 47.56 26.95, 15.43 -0.98 M89.36 52.68 C69.25 35.2, 49.14 17.73, 27.47 -1.12 M89.36 52.68 C76.39 41.41, 63.43 30.14, 27.47 -1.12 M102.15 53.2 C84.25 37.65, 66.36 22.09, 39.51 -1.25 M102.15 53.2 C88.13 41.02, 74.12 28.83, 39.51 -1.25 M114.19 53.07 C97.03 38.15, 79.87 23.23, 51.55 -1.38 M114.19 53.07 C91.02 32.92, 67.84 12.78, 51.55 -1.38 M126.23 52.94 C111.52 40.15, 96.81 27.36, 63.59 -1.52 M126.23 52.94 C110.68 39.41, 95.12 25.89, 63.59 -1.52 M138.27 52.8 C125.43 41.63, 112.58 30.46, 76.39 -0.99 M138.27 52.8 C123.9 40.31, 109.53 27.82, 76.39 -0.99 M150.32 52.67 C130.72 35.64, 111.12 18.6, 88.43 -1.13 M150.32 52.67 C136.26 40.45, 122.21 28.24, 88.43 -1.13 M160.09 50.57 C144.49 37.01, 128.89 23.45, 100.47 -1.26 M160.09 50.57 C140.4 33.45, 120.71 16.34, 100.47 -1.26 M162.32 41.91 C146.95 28.55, 131.59 15.19, 112.51 -1.39 M162.32 41.91 C142.89 25.02, 123.46 8.13, 112.51 -1.39 M161.53 30.62 C147.49 18.41, 133.44 6.2, 124.55 -1.53 M161.53 30.62 C151.72 22.09, 141.91 13.56, 124.55 -1.53 M161.5 19.99 C155.57 14.84, 149.64 9.68, 137.35 -1 M161.5 19.99 C152.21 11.91, 142.92 3.84, 137.35 -1 M162.22 10.02 C159.32 7.5, 156.42 4.97, 148.63 -1.79 M162.22 10.02 C159.42 7.59, 156.62 5.15, 148.63 -1.79" stroke="#ced4da" stroke-width="1" fill="none"></path><path d="M13.98 0 M13.98 0 C56.82 0, 99.66 0, 147.66 0 M13.98 0 C64.18 0, 114.38 0, 147.66 0 M147.66 0 C156.98 0, 161.64 4.66, 161.64 13.98 M147.66 0 C156.98 0, 161.64 4.66, 161.64 13.98 M161.64 13.98 C161.64 22.22, 161.64 30.46, 161.64 41.94 M161.64 13.98 C161.64 23.19, 161.64 32.4, 161.64 41.94 M161.64 41.94 C161.64 51.26, 156.98 55.92, 147.66 55.92 M161.64 41.94 C161.64 51.26, 156.98 55.92, 147.66 55.92 M147.66 55.92 C110 55.92, 72.34 55.92, 13.98 55.92 M147.66 55.92 C109.17 55.92, 70.68 55.92, 13.98 55.92 M13.98 55.92 C4.66 55.92, 0 51.26, 0 41.94 M13.98 55.92 C4.66 55.92, 0 51.26, 0 41.94 M0 41.94 C0 31.14, 0 20.34, 0 13.98 M0 41.94 C0 33.98, 0 26.03, 0 13.98 M0 13.98 C0 4.66, 4.66 0, 13.98 0 M0 13.98 C0 4.66, 4.66 0, 13.98 0" stroke="#000000" stroke-width="2" fill="none"></path></g><g transform="translate(604.6523615194278 17.462890625) rotate(0 23.5 12)"><text x="23.5" y="19" font-family="Cascadia, Segoe UI Emoji" font-size="20px" fill="#000000" text-anchor="middle" style="white-space: pre;" direction="ltr">TiDB</text></g><g transform="translate(664.9668146444278 35.3203125) rotate(0 41 12)"><text x="0" y="19" font-family="Cascadia, Segoe UI Emoji" font-size="20px" fill="#000000" text-anchor="start" style="white-space: pre;" direction="ltr">Tispark</text></g><g stroke-linecap="round" transform="translate(10 172.87129298903056) rotate(0 83.82228339442776 126.7770776400638)"><path d="M0.01 -0.92 C63.79 -2.41, 126.61 -1.98, 167.8 1.89 M-0.09 -0.12 C44.17 -0.75, 88.18 0.69, 168.03 0.84 M166.79 -0.88 C166.81 75.21, 166.88 150.91, 167.74 252.36 M167.74 -0.13 C168.79 62.54, 168.05 123.54, 167.65 252.9 M169.24 254.93 C101.29 254.23, 36.5 252.65, -1.34 255.1 M168.4 254.16 C115.51 254.12, 62.08 252.85, -0.21 253.45 M-0.98 252.78 C2.28 161.44, 2.12 70.1, -1.28 -0.75 M0.2 254.04 C0.08 193.97, -0.5 136.01, -0.49 0.58" stroke="#000000" stroke-width="1" fill="none"></path></g><g stroke-linecap="round" transform="translate(25.782855531624477 214.11393628609954) rotate(0 70.2601309878035 28.8665324639004)"><path d="M1.98 5.7 C1.98 5.7, 1.98 5.7, 1.98 5.7 M1.98 5.7 C1.98 5.7, 1.98 5.7, 1.98 5.7 M1.72 12.09 C3.08 10.29, 5.96 8.93, 8.28 4.55 M1.72 12.09 C3.66 9.46, 6.58 6.79, 8.28 4.55 M1.46 18.49 C5.42 15.13, 9.28 11.88, 15.89 1.89 M1.46 18.49 C4.87 14.18, 8.33 12.18, 15.89 1.89 M1.85 24.13 C6.12 17.42, 11.23 10.99, 21.53 1.49 M1.85 24.13 C6.29 17.82, 13.11 13.05, 21.53 1.49 M1.59 30.53 C10.06 20.83, 20.08 6.36, 26.52 1.85 M1.59 30.53 C11.16 20.07, 19.36 10.55, 26.52 1.85 M1.33 36.93 C10.01 23.52, 21.21 13.89, 32.16 1.46 M1.33 36.93 C12.21 25.65, 21.63 12.64, 32.16 1.46 M1.72 42.57 C13.51 29.13, 25.26 17.61, 37.15 1.82 M1.72 42.57 C11.92 30.16, 23.28 19.14, 37.15 1.82 M2.12 48.22 C15.43 31.04, 33.14 12.09, 42.79 1.42 M2.12 48.22 C18.18 31.09, 34.24 12.05, 42.79 1.42 M3.82 52.35 C13.87 38.32, 26.55 26.78, 47.78 1.78 M3.82 52.35 C13.74 40.23, 25.25 27.54, 47.78 1.78 M6.19 55.73 C23.66 36.44, 40.2 13.39, 52.77 2.14 M6.19 55.73 C20.77 39.79, 32.13 26.04, 52.77 2.14 M9.21 58.35 C23.07 40.71, 37.36 26.05, 58.41 1.75 M9.21 58.35 C24.14 41.19, 38.3 24.84, 58.41 1.75 M14.85 57.96 C25.01 46.74, 36.09 33.17, 63.4 2.11 M14.85 57.96 C30.32 39.3, 47.11 21.36, 63.4 2.11 M19.84 58.32 C40.51 35.17, 58.15 12.98, 69.04 1.72 M19.84 58.32 C32.66 43.31, 45.57 27.86, 69.04 1.72 M25.48 57.92 C36.92 46.11, 46.44 35.87, 74.03 2.08 M25.48 57.92 C39.93 40.96, 57.12 22.43, 74.03 2.08 M30.47 58.28 C47.63 40.47, 61.18 23.42, 79.67 1.68 M30.47 58.28 C42.34 42.7, 56.78 27.44, 79.67 1.68 M36.11 57.89 C51.81 39.37, 69.15 19.36, 84.66 2.04 M36.11 57.89 C50.43 41.96, 63.57 26.29, 84.66 2.04 M41.1 58.25 C59.72 38.31, 77.11 20.39, 89.64 2.4 M41.1 58.25 C57.26 38.75, 72.66 20.97, 89.64 2.4 M46.08 58.61 C58.47 42.87, 70.37 32.07, 95.29 2.01 M46.08 58.61 C60.5 41.16, 77.15 23.56, 95.29 2.01 M51.73 58.21 C71.39 36.42, 86.33 17.6, 100.27 2.37 M51.73 58.21 C70.76 36.52, 90.25 14.67, 100.27 2.37 M56.71 58.58 C71.77 40.65, 83.65 27.6, 105.92 1.97 M56.71 58.58 C71.88 39.82, 90.16 20.14, 105.92 1.97 M62.36 58.18 C76.81 43.17, 90.44 27.34, 110.9 2.33 M62.36 58.18 C75.13 42.27, 88.59 28.03, 110.9 2.33 M67.34 58.54 C79.42 44.18, 90.44 32.12, 116.55 1.94 M67.34 58.54 C87 35.6, 105.93 13.17, 116.55 1.94 M72.99 58.15 C92.74 37.4, 106.7 16.63, 121.53 2.3 M72.99 58.15 C90.92 38.84, 106.74 17.29, 121.53 2.3 M77.97 58.51 C94.27 39.94, 113.37 19.02, 126.52 2.66 M77.97 58.51 C92.97 40.99, 111.1 21.44, 126.52 2.66 M82.96 58.87 C103.28 36.7, 121.34 13.38, 132.82 1.51 M82.96 58.87 C95.36 43.46, 109.29 27.58, 132.82 1.51 M88.6 58.47 C103.44 39.09, 123.85 20.12, 135.84 4.13 M88.6 58.47 C104.02 42.6, 117.39 25.58, 135.84 4.13 M93.59 58.83 C107.24 46.42, 119.69 32.09, 139.51 6 M93.59 58.83 C112.18 37.6, 130.15 18.28, 139.51 6 M99.23 58.44 C111.46 45.16, 120.74 35.35, 140.57 10.89 M99.23 58.44 C108.97 48, 117.32 36.54, 140.57 10.89 M104.22 58.8 C116.51 43.63, 130.82 24.72, 140.3 17.29 M104.22 58.8 C117.6 42.29, 131.62 27.64, 140.3 17.29 M109.21 59.16 C117.15 47.55, 126.36 39.8, 140.04 23.69 M109.21 59.16 C115.08 51.21, 122.46 44.14, 140.04 23.69 M114.85 58.76 C124.28 50.85, 129.49 41.57, 139.78 30.08 M114.85 58.76 C121.48 51.88, 127.24 44.14, 139.78 30.08 M119.84 59.12 C128.3 48.63, 136.98 38.6, 140.18 35.73 M119.84 59.12 C125.24 51.14, 132.8 44.63, 140.18 35.73 M126.14 57.97 C131.42 54.04, 132.19 50.17, 139.91 42.12 M126.14 57.97 C129.03 53.66, 133.55 49.1, 139.91 42.12 M133.09 56.07 C136.12 53.95, 137.63 49.63, 139.65 48.52 M133.09 56.07 C134.85 53.72, 136.94 51.85, 139.65 48.52" stroke="#fab005" stroke-width="0.5" fill="none"></path><path d="M14.43 0 M14.43 0 C39.28 -0.62, 64.1 0.53, 126.09 0 M14.43 0 C37.68 -0.38, 60.3 0.12, 126.09 0 M126.09 0 C135.33 -1.34, 139.26 3.57, 140.52 14.43 M126.09 0 C137.24 -2.16, 141.93 6.24, 140.52 14.43 M140.52 14.43 C138.88 22.95, 140.05 28.47, 140.52 43.3 M140.52 14.43 C140.21 22.92, 140.99 33.88, 140.52 43.3 M140.52 43.3 C139.55 52.4, 137.09 56.74, 126.09 57.73 M140.52 43.3 C138.72 50.77, 134.26 56.19, 126.09 57.73 M126.09 57.73 C101.73 58.9, 77.02 59.26, 14.43 57.73 M126.09 57.73 C84.74 55.88, 43.57 57.76, 14.43 57.73 M14.43 57.73 C3.61 57.97, -1.55 53.95, 0 43.3 M14.43 57.73 C5.01 56.52, -2.21 52.08, 0 43.3 M0 43.3 C1.3 33.68, -0.46 24.82, 0 14.43 M0 43.3 C-0.75 36.83, -0.15 29.73, 0 14.43 M0 14.43 C-1.49 3.94, 4.78 -1.68, 14.43 0 M0 14.43 C0 4.15, 3.7 -0.72, 14.43 0" stroke="#000000" stroke-width="1" fill="none"></path></g><g transform="translate(28.361345894427814 142.765625) rotate(0 64.5 12)"><text x="0" y="19" font-family="Cascadia, Segoe UI Emoji" font-size="20px" fill="#000000" text-anchor="start" style="white-space: pre;" direction="ltr">TiKV node 1</text></g><g transform="translate(52.783220894427814 179.31640625) rotate(0 41 12)"><text x="0" y="19" font-family="Cascadia, Segoe UI Emoji" font-size="20px" fill="#000000" text-anchor="start" style="white-space: pre;" direction="ltr">Store 3</text></g><g transform="translate(47.955095894427814 230.1953125) rotate(0 47 12)"><text x="0" y="19" font-family="Cascadia, Segoe UI Emoji" font-size="20px" fill="#000000" text-anchor="start" style="white-space: pre;" direction="ltr">Region 1</text></g><g transform="translate(47.548845894427814 303.3671875) rotate(0 47 12)"><text x="0" y="19" font-family="Cascadia, Segoe UI Emoji" font-size="20px" fill="#000000" text-anchor="start" style="white-space: pre;" direction="ltr">Region 3</text></g><g transform="translate(48.697283394427814 373.9453125) rotate(0 47 12)"><text x="0" y="19" font-family="Cascadia, Segoe UI Emoji" font-size="20px" fill="#000000" text-anchor="start" style="white-space: pre;" direction="ltr">Region 4</text></g><g stroke-linecap="round" transform="translate(247.6637149066246 356.17074340152044) rotate(0 70.2601309878035 28.8665324639004)"><path d="M1.98 5.7 C1.98 5.7, 1.98 5.7, 1.98 5.7 M1.98 5.7 C1.98 5.7, 1.98 5.7, 1.98 5.7 M1.72 12.09 C2.42 10.16, 3.67 9.19, 8.28 4.55 M1.72 12.09 C4.23 9.33, 5.59 7.25, 8.28 4.55 M1.46 18.49 C3.47 13.42, 7.16 11.07, 15.89 1.89 M1.46 18.49 C5.65 14.4, 8.56 10.03, 15.89 1.89 M1.85 24.13 C8.56 16.41, 16.16 8.1, 21.53 1.49 M1.85 24.13 C6.87 17.72, 11.21 11.48, 21.53 1.49 M1.59 30.53 C8.48 21.76, 16.76 13.95, 26.52 1.85 M1.59 30.53 C9.95 19.91, 20.74 10.23, 26.52 1.85 M1.33 36.93 C10.4 27.94, 16.5 20.21, 32.16 1.46 M1.33 36.93 C11.92 24.9, 24.26 12.61, 32.16 1.46 M1.72 42.57 C15.67 27.77, 27.74 15.51, 37.15 1.82 M1.72 42.57 C10.29 33.3, 17.52 22.49, 37.15 1.82 M2.12 48.22 C16.06 30.56, 29.88 14.35, 42.79 1.42 M2.12 48.22 C12.81 36.31, 21.48 25.18, 42.79 1.42 M3.82 52.35 C12.35 42.19, 23.47 28.87, 47.78 1.78 M3.82 52.35 C19.63 35.15, 33.76 16.85, 47.78 1.78 M6.19 55.73 C20.91 38.75, 38.4 21.28, 52.77 2.14 M6.19 55.73 C19.55 39.26, 35.06 22.02, 52.77 2.14 M9.21 58.35 C29.54 35.17, 45.42 12.4, 58.41 1.75 M9.21 58.35 C20.11 45.99, 30.7 32.89, 58.41 1.75 M14.85 57.96 C30 41.36, 42.18 27.52, 63.4 2.11 M14.85 57.96 C27.78 42.23, 42.25 26.75, 63.4 2.11 M19.84 58.32 C35.31 39.9, 53.53 20.03, 69.04 1.72 M19.84 58.32 C38.33 36.33, 58.28 15.87, 69.04 1.72 M25.48 57.92 C37.97 42.36, 52.73 24.83, 74.03 2.08 M25.48 57.92 C38.92 41.05, 52.99 25.34, 74.03 2.08 M30.47 58.28 C40.8 44.78, 49.96 33.18, 79.67 1.68 M30.47 58.28 C46.94 38.14, 64.11 19.14, 79.67 1.68 M36.11 57.89 C47.74 42.23, 63.71 28.61, 84.66 2.04 M36.11 57.89 C45.03 46.27, 54.94 34.71, 84.66 2.04 M41.1 58.25 C53.26 44.46, 65.94 30.06, 89.64 2.4 M41.1 58.25 C54.48 43.2, 67.1 28.55, 89.64 2.4 M46.08 58.61 C61.52 39.31, 76.28 22.85, 95.29 2.01 M46.08 58.61 C60.27 42.09, 72.34 26.7, 95.29 2.01 M51.73 58.21 C64.35 42.76, 79.23 26.67, 100.27 2.37 M51.73 58.21 C68.03 38.99, 84.04 19.8, 100.27 2.37 M56.71 58.58 C71.67 40.33, 91.3 19.55, 105.92 1.97 M56.71 58.58 C74.08 40.22, 89.1 21.13, 105.92 1.97 M62.36 58.18 C77.07 41.6, 92.83 22.49, 110.9 2.33 M62.36 58.18 C77.72 41.5, 92.54 22.5, 110.9 2.33 M67.34 58.54 C82.99 44.79, 93.47 28.25, 116.55 1.94 M67.34 58.54 C83.33 38.96, 100.23 19.84, 116.55 1.94 M72.99 58.15 C86.7 42.7, 99.57 27.24, 121.53 2.3 M72.99 58.15 C85.06 44.68, 96.3 31.59, 121.53 2.3 M77.97 58.51 C91.81 43.3, 104.39 30.44, 126.52 2.66 M77.97 58.51 C90.13 44.05, 103.95 28.02, 126.52 2.66 M82.96 58.87 C94.7 46.06, 109 29.46, 132.82 1.51 M82.96 58.87 C97.36 41.95, 112.85 26.15, 132.82 1.51 M88.6 58.47 C98.74 45.5, 111.25 35.01, 135.84 4.13 M88.6 58.47 C98.8 47.58, 108.29 36.74, 135.84 4.13 M93.59 58.83 C108.28 40.81, 123.64 23.92, 139.51 6 M93.59 58.83 C109.08 41.06, 125.75 21.52, 139.51 6 M99.23 58.44 C113.91 41.7, 126.66 30.05, 140.57 10.89 M99.23 58.44 C109.67 45.31, 122.05 32.05, 140.57 10.89 M104.22 58.8 C114.22 48.03, 122.41 38.32, 140.3 17.29 M104.22 58.8 C112.28 49.63, 121.12 39.7, 140.3 17.29 M109.21 59.16 C120.39 47.32, 126.14 37.6, 140.04 23.69 M109.21 59.16 C118.26 49.61, 128.32 37.42, 140.04 23.69 M114.85 58.76 C122.86 51.07, 128.63 42.81, 139.78 30.08 M114.85 58.76 C120.31 51.35, 127.39 44.54, 139.78 30.08 M119.84 59.12 C125.92 49.73, 131.98 42.4, 140.18 35.73 M119.84 59.12 C126.1 52.19, 131.51 44.53, 140.18 35.73 M126.14 57.97 C130.2 54.88, 134.97 47.43, 139.91 42.12 M126.14 57.97 C129.39 53.03, 133.33 50.52, 139.91 42.12 M133.09 56.07 C135.11 52.55, 138.68 50.31, 139.65 48.52 M133.09 56.07 C134.98 53.72, 137.04 51.68, 139.65 48.52" stroke="#15aabf" stroke-width="0.5" fill="none"></path><path d="M14.43 0 M14.43 0 C39.06 1.62, 60.32 -1.34, 126.09 0 M14.43 0 C56.24 0.31, 98.71 1.34, 126.09 0 M126.09 0 C134.13 -0.53, 139.84 4.54, 140.52 14.43 M126.09 0 C134.3 0.98, 139.66 6.79, 140.52 14.43 M140.52 14.43 C140.71 26.63, 138.47 33.83, 140.52 43.3 M140.52 14.43 C140.21 22.75, 139.35 32.53, 140.52 43.3 M140.52 43.3 C139.75 54.37, 136.32 57.87, 126.09 57.73 M140.52 43.3 C139.04 51.22, 134.48 56.58, 126.09 57.73 M126.09 57.73 C97.37 56.47, 68.4 55.8, 14.43 57.73 M126.09 57.73 C81.9 57.86, 39.45 56.87, 14.43 57.73 M14.43 57.73 C4.91 56.72, 1.24 53.37, 0 43.3 M14.43 57.73 C5.19 57.18, -0.15 51.73, 0 43.3 M0 43.3 C-1.53 34.67, 0.94 27.07, 0 14.43 M0 43.3 C0.76 32.35, -0.95 24.19, 0 14.43 M0 14.43 C-1.81 5.15, 3.12 1.69, 14.43 0 M0 14.43 C-1.46 5.51, 3.93 -1.12, 14.43 0" stroke="#000000" stroke-width="1" fill="none"></path></g><g stroke-linecap="round" transform="translate(248.09340240662414 285.15121215152055) rotate(0 70.2601309878035 28.8665324639004)"><path d="M14.48 -0.03 L131.28 0.93 L138.31 6.16 L140.09 11.97 L139.14 48.56 L135.79 53.98 L124.38 55.93 L7.92 58.19 L2.23 53.52 L-1.41 47.32 L0.56 10.85 L2.89 7.32 L4.25 0.87 L14.32 -0.73" stroke="none" stroke-width="0" fill="#82c91e"></path><path d="M14.43 0 M14.43 0 C58.18 -0.84, 104.64 0.52, 126.09 0 M14.43 0 C53.37 -1.16, 91.99 0.47, 126.09 0 M126.09 0 C136.9 -1.43, 140.06 5.36, 140.52 14.43 M126.09 0 C135.5 0.74, 139.46 4.99, 140.52 14.43 M140.52 14.43 C139.29 23.68, 140.22 38.16, 140.52 43.3 M140.52 14.43 C141.11 24.54, 141.16 34.14, 140.52 43.3 M140.52 43.3 C141.79 51.09, 135.7 59.31, 126.09 57.73 M140.52 43.3 C142.27 51.93, 136.24 57.29, 126.09 57.73 M126.09 57.73 C87.11 58.47, 43.65 57.36, 14.43 57.73 M126.09 57.73 C99.82 59.08, 71.28 59.65, 14.43 57.73 M14.43 57.73 C6.46 57.02, 1.76 53.7, 0 43.3 M14.43 57.73 C3.28 57.38, 1.52 53.46, 0 43.3 M0 43.3 C1.44 34.54, 1.16 22.82, 0 14.43 M0 43.3 C-0.3 36.31, 0.62 28.55, 0 14.43 M0 14.43 C0.12 3.26, 6.26 -1.32, 14.43 0 M0 14.43 C1.81 3.56, 3.24 1.65, 14.43 0" stroke="#000000" stroke-width="1" fill="none"></path></g><g stroke-linecap="round" transform="translate(231.734375 172.13513135445146) rotate(0 83.82228339442776 126.7770776400638)"><path d="M-0.18 0.52 C49.81 0.9, 99.56 -1.07, 168.56 -1.73 M0.68 -0.69 C35.72 -0.65, 72.36 0.34, 167.54 0.43 M167.55 -0.59 C167.8 97.52, 164.9 194.3, 166.23 254.64 M167.82 0.5 C167.79 71.87, 169.11 142.75, 167.07 253.37 M166.72 253.71 C114.52 254.16, 56.89 252.85, -1.96 253.24 M167.4 254.15 C106.31 254.19, 44.48 254.18, -0.91 253.55 M0.37 253.24 C-0.56 157.51, -2.03 62.55, 0.86 -1.31 M0.71 254.14 C1.5 177.45, 1.97 103.38, -0.29 0.71" stroke="#000000" stroke-width="1" fill="none"></path></g><g stroke-linecap="round" transform="translate(247.5172305316246 213.37777465152044) rotate(0 70.2601309878035 28.8665324639004)"><path d="M1.98 5.7 C1.98 5.7, 1.98 5.7, 1.98 5.7 M1.98 5.7 C1.98 5.7, 1.98 5.7, 1.98 5.7 M1.72 12.09 C3.57 10.57, 4.67 9.09, 8.28 4.55 M1.72 12.09 C4.26 9.05, 7.3 6.36, 8.28 4.55 M1.46 18.49 C6.01 14.6, 8.69 12.04, 15.89 1.89 M1.46 18.49 C6.9 14, 11.23 7.23, 15.89 1.89 M1.85 24.13 C7.88 16.97, 12.84 13.38, 21.53 1.49 M1.85 24.13 C6.95 17.23, 14.55 11.05, 21.53 1.49 M1.59 30.53 C8.98 23.09, 15.29 14.49, 26.52 1.85 M1.59 30.53 C7.55 23.92, 12.22 18.18, 26.52 1.85 M1.33 36.93 C13.91 25.24, 22.02 11.29, 32.16 1.46 M1.33 36.93 C9.33 28.46, 15.22 20.46, 32.16 1.46 M1.72 42.57 C16.19 25.35, 28.65 12.42, 37.15 1.82 M1.72 42.57 C12.16 30.29, 25.07 16.97, 37.15 1.82 M2.12 48.22 C13.66 34.45, 26.54 23.22, 42.79 1.42 M2.12 48.22 C18.3 30.06, 33.85 12.35, 42.79 1.42 M3.82 52.35 C13.59 41.69, 23.04 30.28, 47.78 1.78 M3.82 52.35 C18.21 35.89, 32.58 18.98, 47.78 1.78 M6.19 55.73 C18.61 42.91, 28.02 31.36, 52.77 2.14 M6.19 55.73 C15.2 45.27, 26.55 32.88, 52.77 2.14 M9.21 58.35 C26.51 36.03, 47.57 15.75, 58.41 1.75 M9.21 58.35 C23.35 42.57, 37.27 26.01, 58.41 1.75 M14.85 57.96 C34.43 37.35, 51.54 16.64, 63.4 2.11 M14.85 57.96 C26.38 45.94, 35.92 33.14, 63.4 2.11 M19.84 58.32 C30.68 47.47, 39.52 33.35, 69.04 1.72 M19.84 58.32 C32.66 43.68, 44.55 29.21, 69.04 1.72 M25.48 57.92 C34.78 46.32, 44.49 35.85, 74.03 2.08 M25.48 57.92 C36.56 44.39, 49.07 32.89, 74.03 2.08 M30.47 58.28 C45.64 41.24, 64.02 21.12, 79.67 1.68 M30.47 58.28 C44.6 42.25, 58.27 26.24, 79.67 1.68 M36.11 57.89 C47.85 43.18, 59.96 32.77, 84.66 2.04 M36.11 57.89 C47.75 44.31, 59.61 30.65, 84.66 2.04 M41.1 58.25 C55.48 39.74, 70.4 21.69, 89.64 2.4 M41.1 58.25 C55.04 43.14, 67.22 28.38, 89.64 2.4 M46.08 58.61 C60.19 41.62, 75.85 25.32, 95.29 2.01 M46.08 58.61 C64.27 37.84, 83.05 17.11, 95.29 2.01 M51.73 58.21 C63 47.99, 72.5 35.75, 100.27 2.37 M51.73 58.21 C66.48 41.69, 81.64 23.37, 100.27 2.37 M56.71 58.58 C66.01 46.99, 76.08 33.49, 105.92 1.97 M56.71 58.58 C74.27 38.91, 91.43 18.96, 105.92 1.97 M62.36 58.18 C74.37 44.74, 86.75 28.58, 110.9 2.33 M62.36 58.18 C75.61 42.35, 88.98 26.12, 110.9 2.33 M67.34 58.54 C86.52 37.39, 105.36 15.53, 116.55 1.94 M67.34 58.54 C78.64 45.52, 89.69 32.53, 116.55 1.94 M72.99 58.15 C87.5 40.83, 99.59 26.51, 121.53 2.3 M72.99 58.15 C87.58 41.62, 101.5 26.1, 121.53 2.3 M77.97 58.51 C97 37.17, 113.65 19.35, 126.52 2.66 M77.97 58.51 C88.47 44.82, 99.33 31.38, 126.52 2.66 M82.96 58.87 C93.22 45.59, 104.87 31.22, 132.82 1.51 M82.96 58.87 C96.87 42.8, 108.72 28.62, 132.82 1.51 M88.6 58.47 C102.19 41.21, 114.17 29.01, 135.84 4.13 M88.6 58.47 C104.41 41.27, 119.56 24.43, 135.84 4.13 M93.59 58.83 C108 42.17, 124.9 25.11, 139.51 6 M93.59 58.83 C105.84 43.65, 120.07 28.55, 139.51 6 M99.23 58.44 C117.76 38.99, 133.49 20.22, 140.57 10.89 M99.23 58.44 C109.14 46.01, 120.28 34.07, 140.57 10.89 M104.22 58.8 C117.43 44.03, 129.39 30.27, 140.3 17.29 M104.22 58.8 C115.18 45.36, 126.06 32.38, 140.3 17.29 M109.21 59.16 C120.75 45.27, 132.66 32.7, 140.04 23.69 M109.21 59.16 C116.86 48.62, 125.81 38.58, 140.04 23.69 M114.85 58.76 C123.7 48.35, 131.69 38.49, 139.78 30.08 M114.85 58.76 C120.84 51.41, 128.61 44.43, 139.78 30.08 M119.84 59.12 C124.4 52.82, 131.83 46.38, 140.18 35.73 M119.84 59.12 C125.82 52.06, 132.5 44.15, 140.18 35.73 M126.14 57.97 C129.04 52.1, 133.52 49.99, 139.91 42.12 M126.14 57.97 C130.57 54.09, 134.87 49.4, 139.91 42.12 M133.09 56.07 C134.72 53.79, 135.69 52.63, 139.65 48.52 M133.09 56.07 C134.93 53.33, 137.3 51.55, 139.65 48.52" stroke="#fab005" stroke-width="0.5" fill="none"></path><path d="M14.43 0 M14.43 0 C55.2 1.62, 97.62 -1.05, 126.09 0 M14.43 0 C50.17 -1.86, 84.32 -1.4, 126.09 0 M126.09 0 C135.43 -1.22, 141.37 4.06, 140.52 14.43 M126.09 0 C137.69 1.4, 138.88 3.52, 140.52 14.43 M140.52 14.43 C139.32 23.83, 139.38 34.3, 140.52 43.3 M140.52 14.43 C140.63 22.39, 141.07 31.43, 140.52 43.3 M140.52 43.3 C140.66 51.64, 134.23 56.66, 126.09 57.73 M140.52 43.3 C139.37 52.02, 135.51 57.5, 126.09 57.73 M126.09 57.73 C88.65 59.86, 53.76 57.09, 14.43 57.73 M126.09 57.73 C96.79 58.81, 67.67 59.38, 14.43 57.73 M14.43 57.73 C5.26 58.07, -0.48 52.79, 0 43.3 M14.43 57.73 C3.62 57.14, 2.11 52.49, 0 43.3 M0 43.3 C-0.3 37.43, 1.73 28.89, 0 14.43 M0 43.3 C1.26 30.87, 0.43 19.41, 0 14.43 M0 14.43 C1.69 3.54, 5.42 -0.77, 14.43 0 M0 14.43 C-1.12 4.02, 6.65 -0.18, 14.43 0" stroke="#000000" stroke-width="1" fill="none"></path></g><g transform="translate(250.0957208944278 142.02946336542095) rotate(0 64.5 12)"><text x="0" y="19" font-family="Cascadia, Segoe UI Emoji" font-size="20px" fill="#000000" text-anchor="start" style="white-space: pre;" direction="ltr">TiKV node 2</text></g><g transform="translate(274.5175958944278 178.58024461542095) rotate(0 41 12)"><text x="0" y="19" font-family="Cascadia, Segoe UI Emoji" font-size="20px" fill="#000000" text-anchor="start" style="white-space: pre;" direction="ltr">Store 4</text></g><g transform="translate(269.6894708944278 229.45915086542095) rotate(0 47 12)"><text x="0" y="19" font-family="Cascadia, Segoe UI Emoji" font-size="20px" fill="#000000" text-anchor="start" style="white-space: pre;" direction="ltr">Region 1</text></g><g transform="translate(269.2832208944278 302.63102586542095) rotate(0 47 12)"><text x="0" y="19" font-family="Cascadia, Segoe UI Emoji" font-size="20px" fill="#000000" text-anchor="start" style="white-space: pre;" direction="ltr">Region 2</text></g><g transform="translate(270.4316583944278 373.20915086542095) rotate(0 47 12)"><text x="0" y="19" font-family="Cascadia, Segoe UI Emoji" font-size="20px" fill="#000000" text-anchor="start" style="white-space: pre;" direction="ltr">Region 3</text></g><g stroke-linecap="round" transform="translate(465.1012149066246 353.43636840152044) rotate(0 70.2601309878035 28.8665324639004)"><path d="M1.98 5.7 C1.98 5.7, 1.98 5.7, 1.98 5.7 M1.98 5.7 C1.98 5.7, 1.98 5.7, 1.98 5.7 M1.72 12.09 C3.65 10.66, 5.94 7.05, 8.28 4.55 M1.72 12.09 C3.26 9.72, 5.15 8.55, 8.28 4.55 M1.46 18.49 C5.96 10.89, 13.6 5.85, 15.89 1.89 M1.46 18.49 C5.6 13.36, 10.09 8.87, 15.89 1.89 M1.85 24.13 C7.34 21.07, 9.59 13.43, 21.53 1.49 M1.85 24.13 C9.45 15.45, 17.61 8.02, 21.53 1.49 M1.59 30.53 C6.9 23.06, 13.54 17.19, 26.52 1.85 M1.59 30.53 C10.47 19.84, 21.54 7.65, 26.52 1.85 M1.33 36.93 C9.73 28.86, 14.14 19.07, 32.16 1.46 M1.33 36.93 C11.9 25.13, 21.07 12.67, 32.16 1.46 M1.72 42.57 C10.48 32.47, 19.76 21.48, 37.15 1.82 M1.72 42.57 C13.09 28.51, 24.76 16.35, 37.15 1.82 M2.12 48.22 C17.21 31.09, 34.62 11.84, 42.79 1.42 M2.12 48.22 C13.12 36.43, 24.42 21.96, 42.79 1.42 M3.82 52.35 C16.09 40.72, 25.99 27.74, 47.78 1.78 M3.82 52.35 C12.51 41.46, 21.81 31.51, 47.78 1.78 M6.19 55.73 C16.07 42.55, 29.66 30.41, 52.77 2.14 M6.19 55.73 C23.24 36.16, 39.7 17.31, 52.77 2.14 M9.21 58.35 C22.79 45.17, 36.21 29.92, 58.41 1.75 M9.21 58.35 C23.2 43.63, 36.71 28.31, 58.41 1.75 M14.85 57.96 C31.16 41.95, 43.88 23.6, 63.4 2.11 M14.85 57.96 C32.36 38.91, 50.52 18.43, 63.4 2.11 M19.84 58.32 C30.98 44.42, 43.48 31.07, 69.04 1.72 M19.84 58.32 C36.48 38.08, 52.97 17.93, 69.04 1.72 M25.48 57.92 C37.94 43.6, 47.7 30.28, 74.03 2.08 M25.48 57.92 C37.37 43.95, 49.59 30.32, 74.03 2.08 M30.47 58.28 C42.71 45.99, 51.59 30.05, 79.67 1.68 M30.47 58.28 C41.94 46.23, 51.72 33.2, 79.67 1.68 M36.11 57.89 C51.42 38.04, 68.39 20.03, 84.66 2.04 M36.11 57.89 C49.39 42.12, 62.95 26.49, 84.66 2.04 M41.1 58.25 C55.45 42.86, 66.03 28.74, 89.64 2.4 M41.1 58.25 C53.78 43.85, 67.31 28.34, 89.64 2.4 M46.08 58.61 C59.26 42.85, 74.72 24.23, 95.29 2.01 M46.08 58.61 C57.69 45.21, 70.73 30.67, 95.29 2.01 M51.73 58.21 C71.32 37.6, 88.34 19.42, 100.27 2.37 M51.73 58.21 C69.41 36.85, 87.45 17.02, 100.27 2.37 M56.71 58.58 C75.91 37.65, 90.45 17.21, 105.92 1.97 M56.71 58.58 C66.87 46.44, 76.36 34.13, 105.92 1.97 M62.36 58.18 C81.33 35.3, 98.59 16.37, 110.9 2.33 M62.36 58.18 C74.94 43.62, 86.87 30.5, 110.9 2.33 M67.34 58.54 C85.37 38.88, 104.25 16.87, 116.55 1.94 M67.34 58.54 C78.77 46.06, 88.95 32.92, 116.55 1.94 M72.99 58.15 C89.92 37.64, 107.09 20.48, 121.53 2.3 M72.99 58.15 C89.44 38.65, 107.67 18.44, 121.53 2.3 M77.97 58.51 C89.28 47.62, 99.43 32.66, 126.52 2.66 M77.97 58.51 C95.73 36.4, 114.52 16.36, 126.52 2.66 M82.96 58.87 C98.75 40.52, 117.63 22.1, 132.82 1.51 M82.96 58.87 C98.84 41.29, 114.78 23.05, 132.82 1.51 M88.6 58.47 C105.22 38.16, 121.12 21.66, 135.84 4.13 M88.6 58.47 C105.63 39.51, 121.11 20.13, 135.84 4.13 M93.59 58.83 C111.6 37.71, 128.27 18.05, 139.51 6 M93.59 58.83 C108.64 40.96, 124.71 23.22, 139.51 6 M99.23 58.44 C114.17 44.66, 127.28 29.35, 140.57 10.89 M99.23 58.44 C110.72 46.02, 122.68 31.63, 140.57 10.89 M104.22 58.8 C111.25 50.85, 120.45 38.5, 140.3 17.29 M104.22 58.8 C116.94 43.72, 130.78 29.36, 140.3 17.29 M109.21 59.16 C115.33 52.13, 125.88 40.25, 140.04 23.69 M109.21 59.16 C117.61 49.55, 126.08 38.85, 140.04 23.69 M114.85 58.76 C123.17 50.76, 128.8 43.27, 139.78 30.08 M114.85 58.76 C123.37 49.35, 130.99 40.5, 139.78 30.08 M119.84 59.12 C124.83 52.45, 129.34 46.41, 140.18 35.73 M119.84 59.12 C126.83 52.32, 131.77 45.61, 140.18 35.73 M126.14 57.97 C129.15 54.55, 133.98 49.52, 139.91 42.12 M126.14 57.97 C130.45 53.84, 134.09 49.06, 139.91 42.12 M133.09 56.07 C134.71 53.49, 136.39 53.33, 139.65 48.52 M133.09 56.07 C134.98 53.67, 137.44 51.42, 139.65 48.52" stroke="#15aabf" stroke-width="0.5" fill="none"></path><path d="M14.43 0 M14.43 0 C41.83 -1.4, 68.64 -1.81, 126.09 0 M14.43 0 C53.75 1.28, 94.74 0.05, 126.09 0 M126.09 0 C135.93 -0.12, 140.31 3.51, 140.52 14.43 M126.09 0 C134.02 -0.57, 139.68 4.73, 140.52 14.43 M140.52 14.43 C141.36 20.74, 141.18 30.46, 140.52 43.3 M140.52 14.43 C139.85 21.74, 141.61 31.25, 140.52 43.3 M140.52 43.3 C139.6 51.43, 136.87 58.92, 126.09 57.73 M140.52 43.3 C141.61 52.92, 136.01 58.98, 126.09 57.73 M126.09 57.73 C95.4 55.94, 61.28 58.14, 14.43 57.73 M126.09 57.73 C87.83 59.51, 48.93 59.68, 14.43 57.73 M14.43 57.73 C3.98 56.7, 0.58 53.12, 0 43.3 M14.43 57.73 C4.8 56.75, -1.86 54.33, 0 43.3 M0 43.3 C1.41 38.81, 0.9 32.96, 0 14.43 M0 43.3 C-0.94 36.85, 0.49 27.81, 0 14.43 M0 14.43 C0.41 3.52, 6.29 -0.58, 14.43 0 M0 14.43 C-1.56 4.54, 2.79 1.47, 14.43 0" stroke="#000000" stroke-width="1" fill="none"></path></g><g stroke-linecap="round" transform="translate(465.53090240662414 282.41683715152055) rotate(0 70.2601309878035 28.8665324639004)"><path d="M1.98 5.7 C1.98 5.7, 1.98 5.7, 1.98 5.7 M1.98 5.7 C1.98 5.7, 1.98 5.7, 1.98 5.7 M1.72 12.09 C4.64 9.98, 5.39 6.76, 8.28 4.55 M1.72 12.09 C2.92 10.31, 5.34 8.42, 8.28 4.55 M1.46 18.49 C5.36 13.96, 11.83 5.68, 15.89 1.89 M1.46 18.49 C3.9 15.52, 7 10.72, 15.89 1.89 M1.85 24.13 C10.44 15.7, 14.44 9.42, 21.53 1.49 M1.85 24.13 C6.52 19.44, 12.43 12.07, 21.53 1.49 M1.59 30.53 C7.29 23.57, 14.58 16.59, 26.52 1.85 M1.59 30.53 C10.99 21.2, 18.87 9.24, 26.52 1.85 M1.33 36.93 C10.87 24.59, 18.66 15.39, 32.16 1.46 M1.33 36.93 C9.2 26.92, 16.46 17.74, 32.16 1.46 M1.72 42.57 C10.53 32.8, 18.44 22.74, 37.15 1.82 M1.72 42.57 C8.28 33.85, 16.79 26.67, 37.15 1.82 M2.12 48.22 C14.16 36.42, 24.08 23.03, 42.79 1.42 M2.12 48.22 C15.21 34.41, 25.6 20.5, 42.79 1.42 M3.82 52.35 C21.39 33.19, 37.59 13.9, 47.78 1.78 M3.82 52.35 C13.52 40.37, 24.23 29.04, 47.78 1.78 M6.19 55.73 C21.1 39.84, 37.03 21.53, 52.77 2.14 M6.19 55.73 C16.47 43.29, 27.52 29.41, 52.77 2.14 M9.21 58.35 C21.44 47.09, 31.68 31.58, 58.41 1.75 M9.21 58.35 C22.27 44.37, 34.78 29.2, 58.41 1.75 M14.85 57.96 C31.42 39.14, 45.73 22.58, 63.4 2.11 M14.85 57.96 C25.24 47.7, 34.2 34.89, 63.4 2.11 M19.84 58.32 C36.88 38.77, 54.41 19.96, 69.04 1.72 M19.84 58.32 C38.48 35.61, 57.19 14.16, 69.04 1.72 M25.48 57.92 C38.57 40.31, 52.64 25.58, 74.03 2.08 M25.48 57.92 C44.46 36.25, 63.83 13.27, 74.03 2.08 M30.47 58.28 C49.8 35.39, 65.55 13.54, 79.67 1.68 M30.47 58.28 C44.19 42.18, 56.92 27.57, 79.67 1.68 M36.11 57.89 C51.69 39.05, 69.16 17.54, 84.66 2.04 M36.11 57.89 C47.13 44.73, 58.25 32.27, 84.66 2.04 M41.1 58.25 C52.54 43.02, 65.19 29.95, 89.64 2.4 M41.1 58.25 C51.69 46.87, 61.25 33.64, 89.64 2.4 M46.08 58.61 C63.63 39.39, 78.33 20.65, 95.29 2.01 M46.08 58.61 C58.27 45.75, 69.29 32.46, 95.29 2.01 M51.73 58.21 C62.88 45.71, 76.42 32.46, 100.27 2.37 M51.73 58.21 C65.22 41.86, 80.31 24.67, 100.27 2.37 M56.71 58.58 C69.86 40.69, 83.54 24.51, 105.92 1.97 M56.71 58.58 C74.08 37.44, 91.33 18.94, 105.92 1.97 M62.36 58.18 C76.19 39.69, 93.99 20.99, 110.9 2.33 M62.36 58.18 C73.59 44.42, 86.3 31.27, 110.9 2.33 M67.34 58.54 C84.64 40.7, 99.62 20.26, 116.55 1.94 M67.34 58.54 C78.48 45.13, 88.95 33.63, 116.55 1.94 M72.99 58.15 C82.44 46.19, 95.22 34.17, 121.53 2.3 M72.99 58.15 C89.26 40.55, 104.78 20.85, 121.53 2.3 M77.97 58.51 C93.87 41.45, 105.63 28.81, 126.52 2.66 M77.97 58.51 C91.08 42.35, 106.28 26.83, 126.52 2.66 M82.96 58.87 C100.64 41.19, 118.28 20.61, 132.82 1.51 M82.96 58.87 C98.9 41.4, 114.11 25.34, 132.82 1.51 M88.6 58.47 C105.5 37.41, 126.24 16.93, 135.84 4.13 M88.6 58.47 C103.54 40.48, 118.14 25.23, 135.84 4.13 M93.59 58.83 C103.81 44.88, 115.53 35.39, 139.51 6 M93.59 58.83 C104.6 46.38, 115.72 32.98, 139.51 6 M99.23 58.44 C109.05 49.88, 117.34 37.55, 140.57 10.89 M99.23 58.44 C111.05 46.11, 120.85 33.25, 140.57 10.89 M104.22 58.8 C117.16 45.81, 125.71 33.3, 140.3 17.29 M104.22 58.8 C116.12 45.73, 128.77 30.26, 140.3 17.29 M109.21 59.16 C120.83 49.57, 127.59 35.99, 140.04 23.69 M109.21 59.16 C115.56 51.66, 120.85 44.81, 140.04 23.69 M114.85 58.76 C120.11 52.5, 125.87 46.21, 139.78 30.08 M114.85 58.76 C121.2 51.34, 128.12 42.11, 139.78 30.08 M119.84 59.12 C123.79 52.58, 128.37 49.29, 140.18 35.73 M119.84 59.12 C124.62 53.2, 129.51 48.3, 140.18 35.73 M126.14 57.97 C131.97 52.91, 136.21 45.93, 139.91 42.12 M126.14 57.97 C130.12 53.72, 133.48 49.07, 139.91 42.12 M133.09 56.07 C134.69 53.66, 138.72 50.18, 139.65 48.52 M133.09 56.07 C135.02 54.09, 137.09 51.23, 139.65 48.52" stroke="#fa5252" stroke-width="0.5" fill="none"></path><path d="M14.43 0 M14.43 0 C39.96 -0.88, 65.51 1.32, 126.09 0 M14.43 0 C57.26 0.82, 98.48 1.19, 126.09 0 M126.09 0 C135.59 -0.21, 139.22 3.34, 140.52 14.43 M126.09 0 C135.14 -0.84, 140.44 3.72, 140.52 14.43 M140.52 14.43 C139.36 26.12, 141.8 36.65, 140.52 43.3 M140.52 14.43 C139.43 25.23, 140.83 33.62, 140.52 43.3 M140.52 43.3 C139.02 54.08, 136.89 58.68, 126.09 57.73 M140.52 43.3 C140.52 53.23, 136.96 57.39, 126.09 57.73 M126.09 57.73 C96.15 57.2, 69.24 59.29, 14.43 57.73 M126.09 57.73 C85.77 58.39, 44.89 57.78, 14.43 57.73 M14.43 57.73 C3.77 58.31, 0.2 52.91, 0 43.3 M14.43 57.73 C3.82 55.88, 1.41 50.73, 0 43.3 M0 43.3 C1.35 36.89, 1.4 28.05, 0 14.43 M0 43.3 C1.13 33.75, -0.59 23.14, 0 14.43 M0 14.43 C-1.29 6.29, 4.23 -1.36, 14.43 0 M0 14.43 C-0.28 2.79, 6.28 0.6, 14.43 0" stroke="#000000" stroke-width="1" fill="none"></path></g><g stroke-linecap="round" transform="translate(449.171875 169.40075635445146) rotate(0 83.82228339442776 126.7770776400638)"><path d="M-0.99 -1.3 C62.51 1.8, 124.98 1.53, 168.15 -1.46 M-0.67 -0.03 C46.97 0, 91.81 -0.84, 167.31 0.73 M168.23 1.11 C166.82 72.9, 165.06 143.03, 168.97 253.28 M167.62 -0.35 C166.07 70.27, 164.96 141.46, 167.64 254.18 M169.11 252.52 C102.59 252.71, 39.23 254.34, 1.33 251.97 M167.03 253.98 C121.38 254.18, 76.48 252.61, -0.56 253.75 M0.14 252.42 C3.05 154.86, 0.94 54.95, 0.46 -0.62 M-0.52 252.95 C-1.07 158.72, -0.95 64.63, -0.08 0.15" stroke="#000000" stroke-width="1" fill="none"></path></g><g stroke-linecap="round" transform="translate(464.9547305316246 210.64339965152044) rotate(0 70.2601309878035 28.8665324639004)"><path d="M14.01 -1.61 L131.41 -0.4 L138.62 6.09 L140.51 11.23 L140.12 48.16 L134.39 55.74 L126.41 56.39 L8.05 58.43 L4.15 53.06 L-0.91 46.01 L1.69 10.74 L0.06 6.5 L6.36 3.39 L15.91 0.99" stroke="none" stroke-width="0" fill="#82c91e"></path><path d="M14.43 0 M14.43 0 C43.75 -1.35, 71.87 0.33, 126.09 0 M14.43 0 C47.36 -1.43, 81.42 -0.5, 126.09 0 M126.09 0 C137.25 1.62, 140.25 3.47, 140.52 14.43 M126.09 0 C137.39 -1.19, 139.13 5.14, 140.52 14.43 M140.52 14.43 C139.22 21.53, 140.12 29.41, 140.52 43.3 M140.52 14.43 C141.5 21.94, 139.93 27.66, 140.52 43.3 M140.52 43.3 C140.91 54.69, 133.86 56.28, 126.09 57.73 M140.52 43.3 C140.72 51.32, 137.34 57.48, 126.09 57.73 M126.09 57.73 C98.42 59.5, 72.91 58.19, 14.43 57.73 M126.09 57.73 C99.25 56.74, 73.34 57.03, 14.43 57.73 M14.43 57.73 C5.19 56.58, 0.51 51.1, 0 43.3 M14.43 57.73 C6.93 56.48, -1.07 51.99, 0 43.3 M0 43.3 C-0.17 31.76, 0.98 22.7, 0 14.43 M0 43.3 C-0.45 33.9, 0.99 24.83, 0 14.43 M0 14.43 C-1.26 4.09, 6.02 -0.41, 14.43 0 M0 14.43 C1.11 6.68, 3.97 2.28, 14.43 0" stroke="#000000" stroke-width="1" fill="none"></path></g><g transform="translate(467.5332208944278 139.29508836542095) rotate(0 64.5 12)"><text x="0" y="19" font-family="Cascadia, Segoe UI Emoji" font-size="20px" fill="#000000" text-anchor="start" style="white-space: pre;" direction="ltr">TiKV node 3</text></g><g transform="translate(491.9550958944278 175.84586961542095) rotate(0 41 12)"><text x="0" y="19" font-family="Cascadia, Segoe UI Emoji" font-size="20px" fill="#000000" text-anchor="start" style="white-space: pre;" direction="ltr">Store 1</text></g><g transform="translate(487.1269708944278 226.72477586542095) rotate(0 47 12)"><text x="0" y="19" font-family="Cascadia, Segoe UI Emoji" font-size="20px" fill="#000000" text-anchor="start" style="white-space: pre;" direction="ltr">Region 2</text></g><g transform="translate(486.7207208944278 299.89665086542095) rotate(0 47 12)"><text x="0" y="19" font-family="Cascadia, Segoe UI Emoji" font-size="20px" fill="#000000" text-anchor="start" style="white-space: pre;" direction="ltr">Region 4</text></g><g transform="translate(487.8691583944278 370.47477586542095) rotate(0 47 12)"><text x="0" y="19" font-family="Cascadia, Segoe UI Emoji" font-size="20px" fill="#000000" text-anchor="start" style="white-space: pre;" direction="ltr">Region 3</text></g><g stroke-linecap="round" transform="translate(679.2809024066246 350.71761840152044) rotate(0 70.26013098780345 28.8665324639004)"><path d="M1.98 5.7 C1.98 5.7, 1.98 5.7, 1.98 5.7 M1.98 5.7 C1.98 5.7, 1.98 5.7, 1.98 5.7 M1.72 12.09 C3.19 10.01, 5.96 6.19, 8.28 4.55 M1.72 12.09 C4.57 9.48, 6.87 6.59, 8.28 4.55 M1.46 18.49 C7.72 12.31, 12.74 4.79, 15.89 1.89 M1.46 18.49 C4 15.2, 8.32 12.05, 15.89 1.89 M1.85 24.13 C9.39 14.77, 13.41 10.67, 21.53 1.49 M1.85 24.13 C8.56 16.6, 16.07 6.94, 21.53 1.49 M1.59 30.53 C9.54 23.14, 15.49 12.77, 26.52 1.85 M1.59 30.53 C9.08 23.11, 15.91 14.73, 26.52 1.85 M1.33 36.93 C7.16 30.12, 17.26 21.86, 32.16 1.46 M1.33 36.93 C8.65 27.94, 17.42 17.88, 32.16 1.46 M1.72 42.57 C13.14 29.96, 19.14 18.44, 37.15 1.82 M1.72 42.57 C16.65 27.33, 30.6 10.51, 37.15 1.82 M2.12 48.22 C15.9 34.57, 26.83 21, 42.79 1.42 M2.12 48.22 C12.98 35.44, 25.11 20.67, 42.79 1.42 M3.82 52.35 C17.38 34.21, 32.83 19.63, 47.78 1.78 M3.82 52.35 C20.32 32.48, 37.59 12.15, 47.78 1.78 M6.19 55.73 C18.41 38.23, 34.57 24.69, 52.77 2.14 M6.19 55.73 C24.48 35.63, 41.76 16.87, 52.77 2.14 M9.21 58.35 C28.92 37.25, 45.14 18.93, 58.41 1.75 M9.21 58.35 C21.56 45.13, 33.09 30.79, 58.41 1.75 M14.85 57.96 C25.13 44.68, 36.93 33.28, 63.4 2.11 M14.85 57.96 C27.91 43.79, 40.36 28, 63.4 2.11 M19.84 58.32 C27.99 45.58, 40.77 34.78, 69.04 1.72 M19.84 58.32 C37.72 36.07, 57.03 16.14, 69.04 1.72 M25.48 57.92 C42.08 38.29, 61.6 18.28, 74.03 2.08 M25.48 57.92 C36.52 45.84, 47.5 33.42, 74.03 2.08 M30.47 58.28 C48.34 36.15, 69.68 14.2, 79.67 1.68 M30.47 58.28 C49.45 34.9, 70.43 12.76, 79.67 1.68 M36.11 57.89 C49.02 44.41, 59.87 31.4, 84.66 2.04 M36.11 57.89 C50.6 41.18, 64.72 25.37, 84.66 2.04 M41.1 58.25 C58.38 38.13, 77.82 15.78, 89.64 2.4 M41.1 58.25 C57.65 38.45, 75.33 18.64, 89.64 2.4 M46.08 58.61 C58.12 46.73, 69.6 30.52, 95.29 2.01 M46.08 58.61 C58.49 44.54, 71.29 29.94, 95.29 2.01 M51.73 58.21 C71.35 36.57, 89.47 14.72, 100.27 2.37 M51.73 58.21 C63.41 45.06, 75.1 32.32, 100.27 2.37 M56.71 58.58 C68.26 42.71, 82.57 27.79, 105.92 1.97 M56.71 58.58 C69.89 43.4, 83.7 27.24, 105.92 1.97 M62.36 58.18 C73.89 42.91, 84.24 29.23, 110.9 2.33 M62.36 58.18 C78.33 40.17, 93.86 21.42, 110.9 2.33 M67.34 58.54 C79.17 44.62, 95.56 29.76, 116.55 1.94 M67.34 58.54 C79.65 45.14, 90.31 30.58, 116.55 1.94 M72.99 58.15 C82.18 47.11, 92.36 32.21, 121.53 2.3 M72.99 58.15 C85.45 43.81, 98.76 27.23, 121.53 2.3 M77.97 58.51 C89.95 46.29, 101.18 31.24, 126.52 2.66 M77.97 58.51 C89.91 44.31, 101.17 30.57, 126.52 2.66 M82.96 58.87 C103.78 36.4, 120.56 13.67, 132.82 1.51 M82.96 58.87 C99.18 40.04, 115.16 23.39, 132.82 1.51 M88.6 58.47 C101.01 46.32, 113.4 31.7, 135.84 4.13 M88.6 58.47 C101.16 44.31, 114.74 29.32, 135.84 4.13 M93.59 58.83 C106.69 45.6, 117.45 30.73, 139.51 6 M93.59 58.83 C107.37 43.26, 122.44 26.86, 139.51 6 M99.23 58.44 C109.61 47.7, 120.91 33.82, 140.57 10.89 M99.23 58.44 C112.77 42.21, 127.72 25.35, 140.57 10.89 M104.22 58.8 C116.14 44.96, 129.22 31.61, 140.3 17.29 M104.22 58.8 C116.64 43.85, 131 28.26, 140.3 17.29 M109.21 59.16 C116.45 50.61, 124.91 44.1, 140.04 23.69 M109.21 59.16 C120.92 46.96, 131.14 34.04, 140.04 23.69 M114.85 58.76 C124.08 49.03, 133.99 37.33, 139.78 30.08 M114.85 58.76 C123.59 50.34, 129.96 40.83, 139.78 30.08 M119.84 59.12 C126.16 51.3, 133.74 45.29, 140.18 35.73 M119.84 59.12 C124.62 52.68, 130.76 47.23, 140.18 35.73 M126.14 57.97 C131.42 51.86, 132.59 48.4, 139.91 42.12 M126.14 57.97 C129.82 52.51, 134.86 48.25, 139.91 42.12 M133.09 56.07 C134.99 53.62, 136.41 52.08, 139.65 48.52 M133.09 56.07 C134.52 54.68, 136.44 52.65, 139.65 48.52" stroke="#fa5252" stroke-width="0.5" fill="none"></path><path d="M14.43 0 M14.43 0 C41.61 0.52, 66.84 -1.42, 126.09 0 M14.43 0 C52.91 0.63, 92.4 1.64, 126.09 0 M126.09 0 C136.32 0, 140.41 5.53, 140.52 14.43 M126.09 0 C136.84 1.23, 139.73 7.01, 140.52 14.43 M140.52 14.43 C142.64 23.36, 142 34.41, 140.52 43.3 M140.52 14.43 C139.32 22.43, 139.9 27.84, 140.52 43.3 M140.52 43.3 C142.35 54.44, 135.01 56.01, 126.09 57.73 M140.52 43.3 C140.13 51.93, 136.97 55.73, 126.09 57.73 M126.09 57.73 C86.17 56.19, 44.45 57.24, 14.43 57.73 M126.09 57.73 C94.54 58.51, 63.64 57.95, 14.43 57.73 M14.43 57.73 C3.72 58.4, 1.23 53.62, 0 43.3 M14.43 57.73 C4.48 55.96, -2.23 52.49, 0 43.3 M0 43.3 C0.01 30.92, 0.31 19.01, 0 14.43 M0 43.3 C-0.86 34.81, -0.34 27.25, 0 14.43 M0 14.43 C-1.73 3.6, 3.42 0.59, 14.43 0 M0 14.43 C1.67 6.01, 5.82 1.67, 14.43 0" stroke="#000000" stroke-width="1" fill="none"></path></g><g stroke-linecap="round" transform="translate(679.7105899066241 279.69808715152055) rotate(0 70.26013098780345 28.8665324639004)"><path d="M15.24 -1.91 L130.82 -0.72 L140.45 6.8 L139.37 9.55 L140.78 50.8 L135.83 55.7 L126.35 58.82 L7.82 56.04 L1.89 55.25 L-0.6 45.52 L1.59 11.98 L3.38 7.53 L6.47 3.47 L14.82 1.78" stroke="none" stroke-width="0" fill="#82c91e"></path><path d="M14.43 0 M14.43 0 C43.46 -0.34, 71.24 -1.94, 126.09 0 M14.43 0 C54.98 1.21, 95.8 0.96, 126.09 0 M126.09 0 C137.17 -0.93, 141.58 3, 140.52 14.43 M126.09 0 C133.9 2, 141.99 2.84, 140.52 14.43 M140.52 14.43 C139.75 22.33, 140.09 31.18, 140.52 43.3 M140.52 14.43 C140.24 24.39, 140.4 34.93, 140.52 43.3 M140.52 43.3 C142.01 53.65, 137.3 58.17, 126.09 57.73 M140.52 43.3 C141.53 51.14, 133.81 58.36, 126.09 57.73 M126.09 57.73 C100.84 57.99, 75.26 57.23, 14.43 57.73 M126.09 57.73 C96.79 57.86, 70.05 58.19, 14.43 57.73 M14.43 57.73 C6.7 56.5, -1.97 51.51, 0 43.3 M14.43 57.73 C7.06 57.25, -2.16 54.64, 0 43.3 M0 43.3 C-0.07 31.59, 1.08 23.41, 0 14.43 M0 43.3 C-0.1 33.2, 0.57 22.66, 0 14.43 M0 14.43 C1.43 4.48, 3.26 0.53, 14.43 0 M0 14.43 C1.25 6.36, 4.21 -1.53, 14.43 0" stroke="#000000" stroke-width="1" fill="none"></path></g><g stroke-linecap="round" transform="translate(663.3515625 166.68200635445146) rotate(0 83.82228339442781 126.7770776400638)"><path d="M1.96 1.16 C33.37 -0.14, 69.74 2.54, 168.59 0 M-0.39 -0.86 C53.08 -0.16, 104.46 0.93, 168.11 0.68 M167.96 1.44 C167.82 99.27, 168.97 200.39, 167.63 252.86 M167.22 0.17 C169.42 56.18, 169.21 111.81, 167.27 253.98 M168.92 251.84 C132.94 253.71, 98.9 254.43, -1.36 253.31 M168.16 253.2 C131.53 253.79, 96 254.73, 0.36 254.35 M-1.34 254 C-1.99 172.94, 0.64 91.09, -0.65 1.05 M0.25 252.85 C0.76 198.05, 1.02 141.98, -0.5 -0.8" stroke="#000000" stroke-width="1" fill="none"></path></g><g stroke-linecap="round" transform="translate(679.1344180316246 207.92464965152044) rotate(0 70.26013098780345 28.8665324639004)"><path d="M1.98 5.7 C1.98 5.7, 1.98 5.7, 1.98 5.7 M1.98 5.7 C1.98 5.7, 1.98 5.7, 1.98 5.7 M1.72 12.09 C2.5 11.19, 4.95 9.57, 8.28 4.55 M1.72 12.09 C4.37 9.51, 6.66 5.83, 8.28 4.55 M1.46 18.49 C5.33 11.42, 12.16 5.66, 15.89 1.89 M1.46 18.49 C5.71 14.66, 9.31 9.7, 15.89 1.89 M1.85 24.13 C10.74 17.58, 14.23 8.72, 21.53 1.49 M1.85 24.13 C5.63 18.75, 10.07 14.18, 21.53 1.49 M1.59 30.53 C8.49 20.87, 16.68 13.4, 26.52 1.85 M1.59 30.53 C10.19 20.06, 17.31 11.45, 26.52 1.85 M1.33 36.93 C9.13 27.55, 16.82 18.51, 32.16 1.46 M1.33 36.93 C8.32 27.59, 17.85 18.89, 32.16 1.46 M1.72 42.57 C14.53 28.8, 29.5 8.9, 37.15 1.82 M1.72 42.57 C14.77 27.13, 27.42 12.43, 37.15 1.82 M2.12 48.22 C17.91 31.4, 30.41 16.17, 42.79 1.42 M2.12 48.22 C10.13 38.05, 20.58 27.96, 42.79 1.42 M3.82 52.35 C16.8 40.22, 28.41 23.48, 47.78 1.78 M3.82 52.35 C13.34 40.94, 24.44 29.36, 47.78 1.78 M6.19 55.73 C17.84 45.15, 26.71 30.8, 52.77 2.14 M6.19 55.73 C25.04 35.49, 41.37 13.55, 52.77 2.14 M9.21 58.35 C28.95 36.83, 46.25 18.59, 58.41 1.75 M9.21 58.35 C27.9 35.31, 47.06 13.73, 58.41 1.75 M14.85 57.96 C28.12 43.56, 40.32 28.43, 63.4 2.11 M14.85 57.96 C30.59 38.21, 47.4 20.37, 63.4 2.11 M19.84 58.32 C29.9 47.48, 41.91 35.5, 69.04 1.72 M19.84 58.32 C33.46 44.39, 44.44 29.13, 69.04 1.72 M25.48 57.92 C37.6 41.61, 52.1 30.35, 74.03 2.08 M25.48 57.92 C43.38 38.43, 60.79 16.55, 74.03 2.08 M30.47 58.28 C42.77 46.28, 53.95 30.84, 79.67 1.68 M30.47 58.28 C42.11 43.52, 54 31.63, 79.67 1.68 M36.11 57.89 C53.89 36.32, 72.59 14.88, 84.66 2.04 M36.11 57.89 C50.99 42.74, 64.41 25.84, 84.66 2.04 M41.1 58.25 C52.36 47.14, 62.49 34.16, 89.64 2.4 M41.1 58.25 C54.41 41.21, 70.03 25.9, 89.64 2.4 M46.08 58.61 C61.34 37.75, 78.85 18.52, 95.29 2.01 M46.08 58.61 C57.97 46.21, 69.94 32.73, 95.29 2.01 M51.73 58.21 C69.4 35.82, 89.4 15.61, 100.27 2.37 M51.73 58.21 C69.22 38.25, 85.96 19.83, 100.27 2.37 M56.71 58.58 C67.96 46.25, 78.72 34.78, 105.92 1.97 M56.71 58.58 C70.14 42.48, 83.83 27.13, 105.92 1.97 M62.36 58.18 C75.27 43.02, 92.53 25.72, 110.9 2.33 M62.36 58.18 C77.08 41.91, 89.92 25.42, 110.9 2.33 M67.34 58.54 C79.23 44.12, 89.59 33.4, 116.55 1.94 M67.34 58.54 C83.74 38.49, 100.42 19.65, 116.55 1.94 M72.99 58.15 C81.37 45.78, 92.85 35.41, 121.53 2.3 M72.99 58.15 C82.1 46.02, 93.83 35.47, 121.53 2.3 M77.97 58.51 C93.97 37.79, 112.33 20.33, 126.52 2.66 M77.97 58.51 C94.75 39.39, 113.24 17.93, 126.52 2.66 M82.96 58.87 C100.77 39.25, 116.44 18.55, 132.82 1.51 M82.96 58.87 C99.18 40.47, 113.94 24.28, 132.82 1.51 M88.6 58.47 C104.45 38.75, 121.04 20.2, 135.84 4.13 M88.6 58.47 C102.09 42.12, 115.97 27.73, 135.84 4.13 M93.59 58.83 C110 39.93, 124.66 18.87, 139.51 6 M93.59 58.83 C103.09 47.7, 111.49 38.23, 139.51 6 M99.23 58.44 C110.38 45, 124.41 30.83, 140.57 10.89 M99.23 58.44 C110.04 45.35, 122 31.08, 140.57 10.89 M104.22 58.8 C115.11 49.35, 122.18 36.26, 140.3 17.29 M104.22 58.8 C111.92 48.04, 120.93 38.24, 140.3 17.29 M109.21 59.16 C119.73 50.18, 125.73 39.21, 140.04 23.69 M109.21 59.16 C120.02 47.79, 130.91 34.03, 140.04 23.69 M114.85 58.76 C121.98 49.79, 128.8 38.49, 139.78 30.08 M114.85 58.76 C123.73 48.55, 133.9 37.72, 139.78 30.08 M119.84 59.12 C127.04 51.05, 131.96 46.86, 140.18 35.73 M119.84 59.12 C125.36 52.86, 130.81 47.37, 140.18 35.73 M126.14 57.97 C130.82 51.86, 136.12 47.13, 139.91 42.12 M126.14 57.97 C129.41 52.61, 132.88 48.99, 139.91 42.12 M133.09 56.07 C134.51 52.93, 138.61 49.93, 139.65 48.52 M133.09 56.07 C135.13 53.77, 136.85 52.24, 139.65 48.52" stroke="#fab005" stroke-width="0.5" fill="none"></path><path d="M14.43 0 M14.43 0 C49.13 1.65, 86.03 -0.99, 126.09 0 M14.43 0 C41.16 0.67, 66.42 0.31, 126.09 0 M126.09 0 C136.43 0.98, 141.59 4.13, 140.52 14.43 M126.09 0 C137.91 1.48, 141.97 6.62, 140.52 14.43 M140.52 14.43 C139.22 24.76, 138.8 35.44, 140.52 43.3 M140.52 14.43 C140.14 21.16, 141.56 25.71, 140.52 43.3 M140.52 43.3 C138.8 52.58, 134.85 58.83, 126.09 57.73 M140.52 43.3 C138.51 54.27, 137.44 57.92, 126.09 57.73 M126.09 57.73 C91.3 56.44, 57.26 57.88, 14.43 57.73 M126.09 57.73 C97.12 56.93, 69.17 58.09, 14.43 57.73 M14.43 57.73 C5.51 57.45, -1.54 50.98, 0 43.3 M14.43 57.73 C4.38 59.85, -2.19 52.63, 0 43.3 M0 43.3 C-1.5 34.83, 0.14 25.64, 0 14.43 M0 43.3 C0.75 36.27, -0.58 30.28, 0 14.43 M0 14.43 C0.59 6.26, 5.85 0.88, 14.43 0 M0 14.43 C1.67 6.24, 7.08 0.56, 14.43 0" stroke="#000000" stroke-width="1" fill="none"></path></g><g transform="translate(681.7129083944278 136.57633836542095) rotate(0 64.5 12)"><text x="0" y="19" font-family="Cascadia, Segoe UI Emoji" font-size="20px" fill="#000000" text-anchor="start" style="white-space: pre;" direction="ltr">TiKV node 4</text></g><g transform="translate(706.1347833944278 173.12711961542095) rotate(0 41 12)"><text x="0" y="19" font-family="Cascadia, Segoe UI Emoji" font-size="20px" fill="#000000" text-anchor="start" style="white-space: pre;" direction="ltr">Store 2</text></g><g transform="translate(701.3066583944278 224.00602586542095) rotate(0 47 12)"><text x="0" y="19" font-family="Cascadia, Segoe UI Emoji" font-size="20px" fill="#000000" text-anchor="start" style="white-space: pre;" direction="ltr">Region 1</text></g><g transform="translate(700.9004083944278 297.17790086542095) rotate(0 47 12)"><text x="0" y="19" font-family="Cascadia, Segoe UI Emoji" font-size="20px" fill="#000000" text-anchor="start" style="white-space: pre;" direction="ltr">Region 2</text></g><g transform="translate(702.0488458944278 367.75602586542095) rotate(0 47 12)"><text x="0" y="19" font-family="Cascadia, Segoe UI Emoji" font-size="20px" fill="#000000" text-anchor="start" style="white-space: pre;" direction="ltr">Region 4</text></g><g stroke-linecap="round" transform="translate(898.9254336566241 276.94418090152055) rotate(0 70.26013098780345 28.8665324639004)"><path d="M3.25 2.7 L143.1 3.5 L140.48 60.88 L3.2 54.65" stroke="none" stroke-width="0" fill="#82c91e"></path><path d="M2.42 -2.27 C52.78 -0.29, 95.94 -0.57, 138.46 3.08 M141.67 -0.87 C142.47 17.23, 139.87 43.72, 144.03 58.82 M137.26 54.65 C105.32 57.2, 67.14 54.13, -1.05 59 M-3.13 58.81 C0.9 37.65, 3.85 16.28, -0.42 0.28" stroke="#000000" stroke-width="1.5" fill="none" stroke-dasharray="8 9"></path></g><g transform="translate(887.1543146444278 134.50602586542095) rotate(0 82 12)"><text x="82" y="19" font-family="Cascadia, Segoe UI Emoji" font-size="20px" fill="#000000" text-anchor="middle" style="white-space: pre;" direction="ltr">TiFlash node 1</text></g><g transform="translate(925.3496271444278 170.37321336542095) rotate(0 41 12)"><text x="0" y="19" font-family="Cascadia, Segoe UI Emoji" font-size="20px" fill="#000000" text-anchor="start" style="white-space: pre;" direction="ltr">Store 5</text></g><g transform="translate(920.5215021444278 221.25211961542095) rotate(0 47 12)"><text x="0" y="19" font-family="Cascadia, Segoe UI Emoji" font-size="20px" fill="#000000" text-anchor="start" style="white-space: pre;" direction="ltr">Region 3</text></g><g transform="translate(920.1152521444278 294.42399461542095) rotate(0 47 12)"><text x="0" y="19" font-family="Cascadia, Segoe UI Emoji" font-size="20px" fill="#000000" text-anchor="start" style="white-space: pre;" direction="ltr">Region 2</text></g><g stroke-linecap="round" transform="translate(1103.5377294594105 345.85629027652044) rotate(0 70.26013098780345 28.8665324639004)"><path d="M0 0 C0 0, 0 0, 0 0 M0 0 C0 0, 0 0, 0 0 M-1.32 7.72 C0.32 3.49, 4.56 2.97, 4.34 0.91 M-0.2 5.65 C0.84 5.41, 2.64 3, 4.28 0.69 M-2.69 11.87 C2.66 7.14, 4.35 4.59, 13.17 2.48 M0.71 10.67 C4.31 8.76, 7.33 4.59, 9.22 -0.32 M-2.14 18.21 C-0.95 14.16, 8.42 13.48, 18.16 4.03 M0.75 20.22 C4.47 12.11, 10.49 6.6, 16.73 1.18 M0.5 26.15 C5.67 20.48, 14.56 11.58, 21.2 1 M-0.32 25.53 C7.65 18.97, 13.43 11.36, 22.55 -1.12 M-0.88 30.21 C11.58 21.54, 19.74 9.95, 26.76 1.63 M1.77 29.51 C9.7 20.42, 16.91 10.85, 27.04 -0.25 M2.99 35.77 C7.42 23.98, 17.55 18.41, 30.12 1.54 M-0.79 37.66 C8.74 24.57, 19.39 13.48, 30.61 0.3 M-2.78 44.22 C9.2 27.61, 22.34 16.94, 35.92 1.17 M-0.21 41.49 C11.51 28.21, 21.97 18.4, 35.54 0.19 M-4.1 50.06 C13.45 32.52, 25.66 20.49, 42.48 -1.3 M0.27 48.39 C16.28 31.48, 31.3 9.97, 40.63 1.73 M1.83 58.48 C18.01 41.32, 27.74 20.24, 43.72 -1.07 M0.51 53.89 C17.78 32.67, 37.25 11.55, 47.46 -0.54 M1.72 60.8 C12.96 48.39, 20.96 31.26, 53.52 -1.86 M2.88 57.78 C14.91 44.36, 25.7 29.18, 55.01 -0.3 M6.51 59.32 C24.3 41.95, 41.64 15.86, 59.57 0.94 M7.01 59.57 C23.13 40.46, 41.24 21.73, 57.88 2.15 M13.46 61.21 C30.93 38.38, 43.41 20.19, 63.79 -2.81 M12.1 61.24 C25.62 44.73, 38.75 29.76, 64.99 -0.61 M16.93 59.36 C29.94 42.98, 38.36 33.66, 68.16 2.87 M18.05 58.61 C34.26 38.98, 51.2 22.5, 69.73 -1.49 M22.39 61.78 C45.82 38.01, 60.1 15.41, 75.14 -3.1 M23.8 59.49 C40.97 39.52, 56.72 19.36, 72.67 0.63 M30.76 60.42 C43.4 39.17, 59.9 27.09, 81.51 2.09 M29.91 59.24 C47.23 34.73, 68.11 13.19, 79.76 -1.52 M32.28 56.13 C44.04 46.35, 56.87 29.14, 86.75 -2.03 M32.86 58.31 C47.63 44.43, 59.48 32.38, 84.99 -0.08 M38.92 59.46 C54.43 40.08, 65.97 25.55, 86.94 1.68 M39.66 57.82 C54.15 40.12, 74.83 19.47, 88.59 1.6 M46.21 59.59 C53.43 44.94, 65.89 31.68, 99.11 -3.18 M42.04 61.14 C63.19 37.76, 85 14.05, 95.72 0.41 M49.64 57.14 C65.51 37.43, 79.12 19.5, 99.11 -1.63 M51.18 57.4 C67.31 39.73, 81.54 20.72, 98.67 -0.88 M54.56 57.13 C71.36 36.52, 89.53 15.92, 110.01 -2.47 M55.89 59.09 C76.01 36.82, 93.89 10.38, 107.5 -2.1 M60.49 61.79 C79.47 41.62, 98.75 18.44, 107.95 2.61 M61.25 57.63 C73.63 38.89, 92.39 19.8, 112.29 -0.08 M63.05 55.46 C79.01 45.9, 93.19 28.38, 117.9 0.64 M66.85 60.92 C82.01 41.83, 98.88 18.72, 117.13 -0.39 M70.31 61.45 C86.74 40.69, 101.41 19.94, 122.75 2.51 M69.44 56.87 C86.83 44.7, 96.98 26.41, 121.6 0.53 M72.69 62.95 C93.93 42.92, 113.32 21.63, 128.53 4.11 M77.17 59.03 C90.01 39.43, 107.61 20.15, 128.24 -0.85 M83.28 59.84 C96.33 37.54, 116.99 17.05, 136.08 -0.11 M80.21 58.1 C96.64 39.26, 108.74 24.42, 130.58 -0.85 M83.8 61.65 C103.58 42.05, 119.24 24.77, 138.97 3.84 M84.97 59.51 C98.45 47.52, 110.42 31.68, 137.33 -0.96 M88.89 56.36 C106.9 39.09, 119.99 21.47, 142.52 -0.23 M92.81 58.97 C107.33 42.9, 119.7 25.22, 143.75 3.15 M100.04 59.32 C105.92 44.77, 118.65 33.15, 138.36 9.48 M98.2 60.07 C109.19 45.09, 123.1 27.42, 140.5 8.51 M105.28 58.86 C110.38 45.58, 121.66 32.76, 145.39 12.37 M102.74 58.55 C118.74 42.67, 130.62 25.13, 142.9 13.08 M108.35 61.4 C117.78 50.29, 124.46 36.87, 139.72 18.8 M108.65 60.11 C114.86 50.15, 122.44 41.12, 143.23 19.89 M113.86 60.61 C116.5 49.61, 127.03 43.75, 144.41 22.01 M114.26 60.27 C120.08 51.58, 123.53 43.9, 140.74 25.55 M115 59 C123.64 53.9, 128.59 43.13, 142.63 31.23 M117.97 58.65 C128.03 50.34, 135.49 38.62, 141.13 32.13 M123.41 56.83 C128.68 57.79, 134.11 45.74, 145.4 37.26 M122.53 58.53 C127.67 51.84, 133.09 49.26, 140.61 37.38 M125.57 56.94 C134.44 51.57, 137.96 47.48, 141.42 41.42 M127.64 60.4 C130.81 53.81, 135.44 48.71, 142.07 42.38 M135.54 60.77 C137.4 57.05, 139.91 54.57, 141.2 52 M134.07 58.31 C137.12 55.47, 139.28 52.51, 142.54 50.01" stroke="#fa5252" stroke-width="0.5" fill="none"></path><path d="M-2.8 3.77 C45.89 -2.04, 91.29 0.46, 137.58 1.82 M141.61 0.31 C143.62 19.96, 137.11 39.77, 139.09 60.32 M142.67 57.2 C83.97 54.97, 30.25 59.82, 0.56 55.13 M3.23 61.02 C4 42.32, -0.08 37.45, 1.22 -0.49" stroke="#000000" stroke-width="1.5" fill="none" stroke-dasharray="8 9"></path></g><g stroke-linecap="round" transform="translate(1103.9674169594105 274.83675902652055) rotate(0 70.26013098780345 28.8665324639004)"><path d="M-1.03 3.05 L141.75 -0.49 L138.63 59.32 L2.57 54.49" stroke="none" stroke-width="0" fill="#82c91e"></path><path d="M-0.68 1.48 C39.06 -0.44, 70.84 3.02, 139.05 -1.82 M142.34 0.5 C140.92 13.9, 141.81 25.07, 143.56 59.66 M143.11 61.08 C109.18 57.58, 82.77 56.19, -2.63 54.38 M-2.61 53.82 C-3.74 45.04, 2.8 33.41, 3.05 -3.75" stroke="#000000" stroke-width="1.5" fill="none" stroke-dasharray="8 9"></path></g><g transform="translate(1089.6806729472141 131.18376024042095) rotate(0 82 12)"><text x="82" y="19" font-family="Cascadia, Segoe UI Emoji" font-size="20px" fill="#000000" text-anchor="middle" style="white-space: pre;" direction="ltr">TiFlash node 2</text></g><g transform="translate(1130.3916104472141 168.26579149042095) rotate(0 41 12)"><text x="0" y="19" font-family="Cascadia, Segoe UI Emoji" font-size="20px" fill="#000000" text-anchor="start" style="white-space: pre;" direction="ltr">Store 6</text></g><g transform="translate(1125.1572354472141 292.31657274042095) rotate(0 47 12)"><text x="0" y="19" font-family="Cascadia, Segoe UI Emoji" font-size="20px" fill="#000000" text-anchor="start" style="white-space: pre;" direction="ltr">Region 2</text></g><g transform="translate(1126.3056729472141 362.89469774042095) rotate(0 47 12)"><text x="0" y="19" font-family="Cascadia, Segoe UI Emoji" font-size="20px" fill="#000000" text-anchor="start" style="white-space: pre;" direction="ltr">Region 4</text></g><g stroke-linecap="round"><g transform="translate(660.7872144256482 71.74770996575847) rotate(0 -279.0980044849125 33.39657599718474)"><path d="M-0.72 0.73 C-211.42 24.86, -421.21 49.55, -558.04 66.97 M0.02 -0.18 C-177.9 22.19, -355.98 43.52, -558.21 66.51" stroke="#000000" stroke-width="1" fill="none"></path></g><g transform="translate(660.7872144256482 71.74770996575847) rotate(0 -279.0980044849125 33.39657599718474)"><path d="M-557.58 67.25 L-546.32 60.4 L-542.31 71.62 L-556.55 66.78" stroke="none" stroke-width="0" fill="#000000" fill-rule="evenodd"></path><path d="M-559.57 67.89 C-554.26 64.1, -547.75 60.23, -545.39 59.2 M-558.18 66.18 C-554.22 63.53, -550.65 61.18, -545.72 58.34 M-544.36 57.69 C-544.11 63.41, -545.25 67.74, -545.24 70.67 M-545.42 58.32 C-544.86 62.45, -544.3 66.74, -543.39 70.92 M-542.92 71.11 C-548.67 70.56, -556.27 66.53, -557.31 65.2 M-543.91 71.8 C-548.52 69.96, -553 67.76, -558.84 67 M-558.21 66.51 C-558.21 66.51, -558.21 66.51, -558.21 66.51 M-558.21 66.51 C-558.21 66.51, -558.21 66.51, -558.21 66.51" stroke="#000000" stroke-width="1" fill="none"></path></g></g><g stroke-linecap="round"><g transform="translate(654.2583799977419 75.35593184791506) rotate(0 -160.27055525300472 31.417632400172863)"><path d="M0.48 0.52 C-119.24 25.67, -238.11 48.85, -321.02 60.8 M-0.32 0.58 C-102.55 18.4, -204.84 38.68, -320.46 62.31" stroke="#000000" stroke-width="1" fill="none"></path></g><g transform="translate(654.2583799977419 75.35593184791506) rotate(0 -160.27055525300472 31.417632400172863)"><path d="M-318.83 62.67 L-310.04 52.62 L-306.88 66.59 L-320.93 60.71" stroke="none" stroke-width="0" fill="#000000" fill-rule="evenodd"></path><path d="M-319.94 62.88 C-315.79 59.44, -310.8 56.34, -308.75 52.36 M-320.82 62.95 C-316.4 59.59, -312.04 57.27, -308.14 54 M-309.58 54.63 C-307.41 57.41, -306.51 62.76, -307.1 66.08 M-308.26 53.15 C-308 56.94, -307.16 60.14, -306.38 65.91 M-304.39 66.1 C-310.94 64.43, -314.99 64.33, -319.56 60.94 M-305.72 65.11 C-311.24 64.81, -317.23 63.19, -320.55 62.18 M-320.46 62.31 C-320.46 62.31, -320.46 62.31, -320.46 62.31 M-320.46 62.31 C-320.46 62.31, -320.46 62.31, -320.46 62.31" stroke="#000000" stroke-width="1" fill="none"></path></g></g><g stroke-linecap="round"><g transform="translate(660.7278305978775 77.34074792664211) rotate(0 -53.05116111085772 30.763101183680376)"><path d="M-0.43 0.71 C-33.03 20.36, -69.52 40.38, -103.59 61.1 M-0.84 -0.1 C-28.66 15.02, -55.36 31.67, -105.68 61.63" stroke="#000000" stroke-width="1" fill="none"></path></g><g transform="translate(660.7278305978775 77.34074792664211) rotate(0 -53.05116111085772 30.763101183680376)"><path d="M-106 60.28 L-98.2 48.06 L-91.84 61.78 L-106.22 63.09" stroke="none" stroke-width="0" fill="#000000" fill-rule="evenodd"></path><path d="M-106 62.17 C-101.53 57.56, -100.38 53.32, -95.82 48.33 M-106.3 61.55 C-104.23 58.13, -101.13 55, -97.39 48.73 M-97.27 50.16 C-94.44 54.24, -93.41 57.12, -91.6 59.2 M-97.12 48.9 C-95.25 52.21, -93.16 55.67, -90.6 59.59 M-91.55 58.88 C-94.09 59.74, -97.98 61.67, -106.4 62.24 M-91.13 60.02 C-94.66 61.25, -100.21 61.81, -105.11 62.2 M-105.68 61.63 C-105.68 61.63, -105.68 61.63, -105.68 61.63 M-105.68 61.63 C-105.68 61.63, -105.68 61.63, -105.68 61.63" stroke="#000000" stroke-width="1" fill="none"></path></g></g><g stroke-linecap="round"><g transform="translate(666.4088219653568 74.6209359489981) rotate(0 47.13358404093299 32.23448883906735)"><path d="M0.63 0.57 C21.22 14.65, 45.13 31.15, 93.64 62.3 M0.82 0.4 C20.43 13.26, 38.9 26.87, 91.81 64.06" stroke="#000000" stroke-width="1" fill="none"></path></g><g transform="translate(666.4088219653568 74.6209359489981) rotate(0 47.13358404093299 32.23448883906735)"><path d="M91.42 65.23 L75.24 62.8 L85.5 52.23 L91.85 65.5" stroke="none" stroke-width="0" fill="#000000" fill-rule="evenodd"></path><path d="M92.27 64.49 C87.21 62.71, 84.96 62.92, 77.9 60.1 M92.42 64.37 C89.03 63.42, 84.76 62.71, 76.52 61.42 M76.01 61.38 C78.72 59.27, 80.24 55.41, 84.6 50.83 M76.95 61.27 C80.14 57.93, 82.44 53.58, 84.12 51.12 M84.42 50.07 C86.61 55.32, 88.72 55.77, 92.98 63.96 M84.09 50.71 C86.35 53.66, 88.47 58.1, 91.19 64 M91.81 64.06 C91.81 64.06, 91.81 64.06, 91.81 64.06 M91.81 64.06 C91.81 64.06, 91.81 64.06, 91.81 64.06" stroke="#000000" stroke-width="1" fill="none"></path></g></g><g stroke-linecap="round"><g transform="translate(675.2621940415925 71.31897722952176) rotate(0 145.1118149341081 30.23759677529182)"><path d="M-1.33 1.03 C65.41 12.89, 129.25 26.36, 291.55 59.52 M0.61 0.13 C107.19 24.21, 215.11 45.91, 291.3 60.35" stroke="#000000" stroke-width="1" fill="none"></path></g><g transform="translate(675.2621940415925 71.31897722952176) rotate(0 145.1118149341081 30.23759677529182)"><path d="M291.07 58.45 L274.9 64.24 L277.48 52.03 L290.18 62.09" stroke="none" stroke-width="0" fill="#000000" fill-rule="evenodd"></path><path d="M289.95 61.4 C288.92 62.13, 284.87 63.12, 276.82 63.64 M291.92 60.48 C285.26 61.74, 280.21 62.67, 276.56 64.48 M275.8 64.43 C278.3 60.72, 277.53 57.76, 279.76 52.24 M277.18 64.45 C277.23 58.83, 278.43 54.05, 278.91 51.94 M278.43 51.97 C281.74 53.02, 286.86 55.33, 291.09 59.84 M279.69 51.64 C281.72 53.37, 285.07 55.72, 292.01 60.58 M291.3 60.35 C291.3 60.35, 291.3 60.35, 291.3 60.35 M291.3 60.35 C291.3 60.35, 291.3 60.35, 291.3 60.35" stroke="#000000" stroke-width="1" fill="none"></path></g></g><g stroke-linecap="round"><g transform="translate(688.3452601016276 70.08644184768335) rotate(0 241.42874910834706 26.917928595528842)"><path d="M0.22 0.8 C122.25 13.46, 243.28 27.48, 482.97 54.1 M-0.12 -0.27 C134.14 16.76, 268.39 31.69, 482.27 53.4" stroke="#000000" stroke-width="1" fill="none"></path></g><g transform="translate(688.3452601016276 70.08644184768335) rotate(0 241.42874910834706 26.917928595528842)"><path d="M484 52.03 L467.04 56.83 L468.74 44.19 L482.54 52.76" stroke="none" stroke-width="0" fill="#000000" fill-rule="evenodd"></path><path d="M482.65 54.8 C479.33 53.27, 474.58 55.41, 468.84 59.23 M482.06 52.92 C477.96 55.06, 473.75 56.42, 467.59 57.98 M467.43 58.4 C468.78 54.69, 469.49 50.69, 469.41 46.74 M467.54 58.46 C468.69 53.82, 469.39 48.24, 468.96 45.4 M468.32 46.37 C474.33 49.39, 479.32 51.4, 481.69 52.93 M470.08 45.97 C473.2 47.66, 476.01 50.26, 481.89 54.14 M482.27 53.4 C482.27 53.4, 482.27 53.4, 482.27 53.4 M482.27 53.4 C482.27 53.4, 482.27 53.4, 482.27 53.4" stroke="#000000" stroke-width="1" fill="none"></path></g></g><g transform="translate(1301.6347833944278 269.08203125) rotate(0 99.5 24)"><text x="99.5" y="19" font-family="Cascadia, Segoe UI Emoji" font-size="20px" fill="#000000" text-anchor="middle" style="white-space: pre;" direction="ltr">Table 101</text><text x="99.5" y="43" font-family="Cascadia, Segoe UI Emoji" font-size="20px" fill="#000000" text-anchor="middle" style="white-space: pre;" direction="ltr">TIFLASH REPLICA 2</text></g><g transform="translate(1112.9394708944278 457.84375) rotate(0 58.5 12)"><text x="0" y="19" font-family="Cascadia, Segoe UI Emoji" font-size="20px" fill="#000000" text-anchor="start" style="white-space: pre;" direction="ltr">Raft Group</text></g><g stroke-linecap="round"><g transform="translate(1163.0694189676808 438.3520426817611) rotate(0 0.07224707795887753 -16.8076259607449)"><path d="M0.63 -1.14 C0.61 -6.79, 0.59 -28.77, 0.82 -34.5 M-0.5 0.88 C-0.79 -4.51, -0.7 -27.01, -0.35 -32.95" stroke="#c92a2a" stroke-width="1" fill="none"></path></g></g><g stroke-linecap="round"><g transform="translate(1104.9941583944278 376.63671875) rotate(0 -141.88689434565606 1.614837712422002)"><path d="M0.37 0.39 C-46.84 1.01, -236.85 2.66, -284.15 2.84" stroke="#c92a2a" stroke-width="1.5" fill="none" stroke-dasharray="8 9"></path></g></g><g stroke-linecap="round"><g transform="translate(679.2675958944278 377.4453125) rotate(0 -36.408014998324234 -33.01370285820215)"><path d="M-1.15 -0.73 C-13.37 -11.49, -60.58 -54.7, -72.56 -65.59 M0.44 1.51 C-11.96 -9.55, -60.89 -56.48, -73.26 -67.54" stroke="#c92a2a" stroke-width="1" fill="none"></path></g></g><g stroke-linecap="round"><g transform="translate(467.0566583944278 311.4609375) rotate(0 -152.65374802313744 24.719018882140517)"><path d="M0.66 -0.79 C-5.82 3.82, -25.84 21.96, -38.62 28.43 C-51.41 34.9, -61.79 36.15, -76.03 38.01 C-90.27 39.86, -99.31 39.6, -124.09 39.58 C-148.86 39.56, -198.9 38.14, -224.68 37.89 C-250.47 37.63, -265.27 36.02, -278.82 38.08 C-292.37 40.13, -301.49 48.55, -305.97 50.23 M-0.46 1.4 C-7.03 5.64, -26.89 20.52, -39.07 26.85 C-51.24 33.17, -59.46 37.61, -73.51 39.35 C-87.56 41.1, -98 37.58, -123.37 37.3 C-148.75 37.03, -199.99 37.7, -225.75 37.69 C-251.5 37.68, -264.68 35.3, -277.9 37.25 C-291.11 39.2, -300.33 47.11, -305.06 49.39" stroke="#c92a2a" stroke-width="1" fill="none"></path></g></g><g stroke-linecap="round"><g transform="translate(386.1777521444278 294.04296875) rotate(0 38.99394482569767 -26.35056874679401)"><path d="M-0.03 -0.86 C13.37 -9.84, 66.18 -45, 79.49 -54.01 M-1.5 1.31 C11.86 -7.45, 65.33 -43.17, 78.84 -52.39" stroke="#5c940d" stroke-width="1" fill="none"></path></g></g><g stroke-linecap="round"><g transform="translate(604.5605646444278 237.140625) rotate(0 37.50438642739317 36.69531541088597)"><path d="M0.69 0.58 C13.25 12.6, 62.95 60.34, 75.42 72.38 M-0.41 -0.16 C11.94 11.98, 61.72 61.19, 74.2 73.55" stroke="#5c940d" stroke-width="1" fill="none"></path></g></g><g stroke-linecap="round"><g transform="translate(819.7675958944278 308.6328125) rotate(0 40.9564435070381 -0.07726524847561222)"><path d="M0.67 1.16 C14.04 0.82, 68.09 -0.87, 81.24 -1.32" stroke="#5c940d" stroke-width="1.5" fill="none" stroke-dasharray="8 9"></path></g></g><g stroke-linecap="round"><g transform="translate(1041.1074396444278 304.08984375) rotate(0 30.91785878594976 -1.0182863032910916)"><path d="M-0.35 -0.83 C10.04 -1.14, 51.94 -1.39, 62.19 -1.42 M1.66 1.35 C12.01 0.61, 51.99 -2.67, 61.76 -3.39" stroke="#5c940d" stroke-width="1" fill="none"></path></g></g><g stroke-linecap="round"><g transform="translate(1243.5449396444278 304.73046875) rotate(0 22.9821454661153 -0.3212832721136465)"><path d="M0.7 -0.35 C7.96 -0.62, 36.45 -0.7, 43.95 -0.68 M-0.39 -1.58 C7.24 -1.72, 38.69 1.04, 46.35 0.94" stroke="#5c940d" stroke-width="1" fill="none"></path></g></g><g stroke-linecap="round"><g transform="translate(854.0879083944278 127.86328125) rotate(0 2.50390625 158.77929687500003)"><path d="M0 0 C0.83 52.93, 4.17 264.63, 5.01 317.56" stroke="#495057" stroke-width="4.5" fill="none" stroke-dasharray="8 12"></path></g></g><g stroke-linecap="round" transform="translate(1101.0387149066246 202.3498982001621) rotate(0 70.26013098780345 28.8665324639004)"><path d="M0 0 C0 0, 0 0, 0 0 M0 0 C0 0, 0 0, 0 0 M0.36 5.54 C0.05 5.35, 4.38 1.18, 4.61 -0.47 M-0.75 5.74 C1.42 4.46, 4.07 2.94, 4.54 0.41 M0.05 10 C1.68 8.53, 10.45 1.87, 8.09 -2.18 M-0.74 13.46 C3.79 8.03, 6.15 6.64, 9.44 0.12 M-1.21 16.76 C-0.26 15.12, 3.76 8.77, 16.92 3.68 M1.52 18.08 C4.63 10.3, 10.76 6.23, 15.2 0.18 M4.11 24.77 C7.93 20.64, 14.21 8.55, 19.46 0.46 M-1.45 23.57 C7.11 13.45, 15.1 4.16, 19.73 -0.35 M1.45 31.01 C5.96 25.25, 9.56 18.27, 26.82 1.46 M1.41 29.92 C11.18 21.26, 20.32 6.95, 25.14 2.24 M2.54 37.52 C7.3 28.99, 13.36 17.13, 31.6 -3.55 M0.22 38.56 C12.17 26.32, 20.15 15.59, 33.35 1.61 M2.37 44.28 C9.63 31.91, 23.05 20.56, 36.91 0.31 M-0.51 42.42 C8.32 31.72, 20.19 19.59, 36.17 0.85 M-3.95 46.64 C8.05 37.24, 14.67 29.63, 44.42 -1.91 M-0.25 49.6 C12.2 34.39, 25.83 18.84, 42.07 -2.09 M-1.68 53.14 C15.29 33.45, 34.16 16.88, 44.07 2.21 M-0.29 53.55 C18.01 35.5, 31.15 19.42, 46.48 1.04 M2.44 61.14 C17.4 45.4, 23.87 27.8, 50.13 -2.49 M-0.16 59.06 C16.18 45.19, 27.07 25.91, 54.64 -1.76 M8.34 57.94 C20.14 45.91, 37.79 23.96, 58.86 -1.55 M5.25 59.61 C20.46 45.12, 33.87 30.53, 59.88 0.68 M12.38 62.99 C28.94 39.6, 49.54 11.31, 60.63 2.17 M12.06 57.91 C30.03 34.93, 51.95 11.23, 62.46 0.15 M13.95 60.89 C30.45 44.25, 50.55 24.73, 69.53 -2.34 M16.76 59.27 C39.83 35.84, 57.29 14.42, 67.85 0.49 M25.19 63.11 C39.94 35.27, 63.56 19.03, 71.52 -1.16 M22.56 59.55 C41.2 39.65, 57.8 16.88, 73.58 -0.97 M27.07 61.05 C43.71 43.93, 54.5 23.45, 78.02 -2.26 M26.23 58.59 C41.74 41.11, 55.02 25.59, 79.52 2.04 M31.06 59.2 C54.31 35.49, 74.88 19.99, 82.08 -2.42 M32.37 59.67 C52.93 37.43, 69.86 15.07, 86.72 -1.88 M35.22 60.24 C50.06 41.44, 61.1 32.14, 87.96 -2.06 M40.26 58.92 C54.63 40.11, 74.83 18.25, 91.68 1.72 M45.85 58.22 C57.88 43.79, 78.55 21.59, 99.28 -4.19 M42.15 60.79 C57.8 42.87, 71.18 28.84, 97.23 -1.51 M49.61 55.61 C63.58 46.6, 69.12 31.47, 100.64 2.8 M50.08 59.46 C61.93 44.05, 77.12 27.18, 98.78 0.79 M51.14 56.49 C63.15 45.09, 75.96 32.66, 109.77 -1.79 M54.21 58.29 C69.96 43.93, 83.1 31.24, 107.16 1.06 M61.17 59.61 C71.67 45.06, 86.66 30.77, 111.08 2.19 M61.59 59.26 C76.34 40.79, 94 20.09, 110.92 -0.66 M62.17 59.6 C85.04 39.34, 98 23.47, 115.23 -2.43 M66.53 58.4 C83.04 37.16, 101.01 14.54, 114.51 1.36 M68.47 56 C89.11 33.47, 110.3 9.42, 119.96 -0.73 M69.36 59.22 C86.15 42.36, 97.06 25.65, 123.85 -1.69 M75.87 62.48 C97.07 39.03, 115.32 15.93, 123.02 -0.31 M74.75 60.17 C96.21 35.71, 116.22 15.2, 125.94 0.48 M81.79 59.87 C91.38 42.14, 107.12 29.13, 129.65 -1.47 M82.58 60.05 C94.69 43.4, 109.11 27.11, 133 1.47 M82.88 61.36 C94.19 47.75, 112.48 37.67, 138.19 -0.02 M86.16 57.5 C103.7 43.88, 117.99 24.12, 138.79 -0.37 M95.12 57.6 C107.27 39.82, 123.1 18.45, 138.9 3.29 M91.13 60.35 C113.51 35.54, 133.06 14.6, 142.12 2.97 M95.5 57.81 C110.95 43.25, 130.17 21.3, 140.24 7.19 M97.7 57.15 C109.27 45.32, 125.76 30.02, 143.8 5.9 M105.44 59.66 C118.72 39.79, 128.53 25.16, 141.59 9.7 M102.87 59.29 C113.69 46.04, 125.5 34.16, 140.06 15.33 M103.73 62.66 C123.24 43.71, 133.67 27.08, 138.93 17.82 M105.98 60.72 C119.73 45.45, 133.53 29.06, 142.93 20.68 M111.41 61.55 C121.36 49.07, 126.4 45.26, 138.34 23.62 M112.3 59.63 C118.78 50.92, 125.13 41.81, 142.4 24.29 M119.26 60.1 C125.16 47.74, 133.76 40.58, 144.93 29.66 M117.24 58.63 C125.72 49.94, 132.38 45.25, 142.04 31.15 M121.4 60.35 C129.35 58.39, 130.96 48.64, 138.28 38.79 M122.6 58.22 C129.31 53.31, 130.99 48.27, 143.16 37.01 M131.46 59.62 C130.86 51.13, 134.36 48.22, 138.07 43.36 M129.42 60.17 C133.18 54.79, 134.22 53.2, 141.11 45.9 M135.23 57.19 C136.43 56.21, 136.51 53.62, 140.43 48.35 M134.11 60.37 C137.01 58.12, 137.59 55.11, 141.54 50.28" stroke="#fab005" stroke-width="0.5" fill="none"></path><path d="M3.69 2 C41.07 3.55, 92.29 -0.3, 139.35 -1.43 M143.29 1.47 C143.89 24.37, 143.24 48.94, 137.67 54.42 M140.46 54.9 C100.67 53.13, 54.55 58.06, -3.69 55.26 M0.23 56.31 C3.12 42.63, 1.85 31.19, -0.16 2.79" stroke="#000000" stroke-width="1.5" fill="none" stroke-dasharray="8 9"></path></g><g transform="translate(1123.1465021444278 217.6851806640625) rotate(0 47 12)"><text x="0" y="19" font-family="Cascadia, Segoe UI Emoji" font-size="20px" fill="#000000" text-anchor="start" style="white-space: pre;" direction="ltr">Region 1</text></g><g stroke-linecap="round" transform="translate(1291.7324396444278 134.6968994140625) rotate(0 106.9609375 36.54296875)"><path d="M-2.21 -1.6 C60.39 2.08, 114.8 0.81, 213.14 -1.35 M217.54 0.96 C214.83 20.26, 210.36 46.83, 217.84 69.24 M213.22 75.2 C152.66 71.51, 95.25 75.02, 3.49 75.95 M1.17 72.25 C-0.18 52.7, -2.89 38.52, 3.35 -1.68" stroke="#000000" stroke-width="1.5" fill="none" stroke-dasharray="8 9"></path></g><g transform="translate(1298.7715021444278 149.9859619140625) rotate(0 99.5 24)"><text x="99.5" y="19" font-family="Cascadia, Segoe UI Emoji" font-size="20px" fill="#000000" text-anchor="middle" style="white-space: pre;" direction="ltr">Table ...</text><text x="99.5" y="43" font-family="Cascadia, Segoe UI Emoji" font-size="20px" fill="#000000" text-anchor="middle" style="white-space: pre;" direction="ltr">TIFLASH REPLICA 1</text></g><g stroke-linecap="round"><g transform="translate(1290.9863458944278 186.3218994140625) rotate(0 -22.8203125 20.01953125)"><path d="M0 0 C-3.74 5.04, -14.83 23.54, -22.44 30.21 C-30.05 36.88, -41.77 38.4, -45.64 40.04 M0 0 C-3.74 5.04, -14.83 23.54, -22.44 30.21 C-30.05 36.88, -41.77 38.4, -45.64 40.04" stroke="#000000" stroke-width="2" fill="none"></path></g></g><g stroke-linecap="round"><g transform="translate(1104.2480646444278 231.4312744140625) rotate(0 -32.50390625 1.013671875)"><path d="M0 0 C-10.83 0.34, -54.17 1.69, -65.01 2.03 M0 0 C-10.83 0.34, -54.17 1.69, -65.01 2.03" stroke="#000000" stroke-width="2" fill="none"></path></g></g><g stroke-linecap="round"><g transform="translate(900.3222833944278 238.1343994140625) rotate(0 -21.376953125 0.4921875)"><path d="M0 0 C-7.13 0.16, -35.63 0.82, -42.75 0.98 M0 0 C-7.13 0.16, -35.63 0.82, -42.75 0.98" stroke="#000000" stroke-width="2" fill="none"></path></g></g><g stroke-linecap="round"><g transform="translate(672.3027521444278 10.0562744140625) rotate(0 -13.376953125 27.53515625)"><path d="M0 0 C-4.46 9.18, -22.29 45.89, -26.75 55.07 M0 0 C-4.46 9.18, -22.29 45.89, -26.75 55.07" stroke="#000000" stroke-width="2" fill="none"></path></g></g></svg>